<mxfile host="app.diagrams.net" modified="2022-02-14T13:48:44.331Z" agent="5.0 (Windows NT 10.0; Win64; x64) AppleWebKit/537.36 (KHTML, like Gecko) Chrome/98.0.4758.82 Safari/537.36" etag="rWM7IMvx_VtZDD7vkhG3" version="16.5.3" type="github" pages="4">
  <diagram id="-Gx7N6ykxCa6QEQfb6ec" name="运行Java代码的流程">
    <mxGraphModel dx="1422" dy="800" grid="1" gridSize="10" guides="1" tooltips="1" connect="1" arrows="1" fold="1" page="1" pageScale="1" pageWidth="827" pageHeight="1169" math="0" shadow="0">
      <root>
        <mxCell id="dy5ecrsJD2A3xy8pY8UU-0" />
        <mxCell id="dy5ecrsJD2A3xy8pY8UU-1" parent="dy5ecrsJD2A3xy8pY8UU-0" />
        <mxCell id="LslVG7kpRuftllUN09Hv-2" style="edgeStyle=orthogonalEdgeStyle;rounded=0;orthogonalLoop=1;jettySize=auto;html=1;" edge="1" parent="dy5ecrsJD2A3xy8pY8UU-1" source="LslVG7kpRuftllUN09Hv-0" target="LslVG7kpRuftllUN09Hv-1">
          <mxGeometry relative="1" as="geometry" />
        </mxCell>
        <mxCell id="LslVG7kpRuftllUN09Hv-3" value="Javac" style="edgeLabel;html=1;align=center;verticalAlign=middle;resizable=0;points=[];" vertex="1" connectable="0" parent="LslVG7kpRuftllUN09Hv-2">
          <mxGeometry x="-0.1" y="2" relative="1" as="geometry">
            <mxPoint as="offset" />
          </mxGeometry>
        </mxCell>
        <mxCell id="LslVG7kpRuftllUN09Hv-0" value="Test.java" style="rounded=0;whiteSpace=wrap;html=1;fillColor=#cce5ff;strokeColor=#36393d;" vertex="1" parent="dy5ecrsJD2A3xy8pY8UU-1">
          <mxGeometry x="414" y="130" width="120" height="60" as="geometry" />
        </mxCell>
        <mxCell id="LslVG7kpRuftllUN09Hv-13" style="edgeStyle=orthogonalEdgeStyle;rounded=0;orthogonalLoop=1;jettySize=auto;html=1;" edge="1" parent="dy5ecrsJD2A3xy8pY8UU-1" source="LslVG7kpRuftllUN09Hv-1" target="LslVG7kpRuftllUN09Hv-12">
          <mxGeometry relative="1" as="geometry" />
        </mxCell>
        <mxCell id="LslVG7kpRuftllUN09Hv-1" value="Test.class" style="rounded=0;whiteSpace=wrap;html=1;fillColor=#cdeb8b;strokeColor=#36393d;" vertex="1" parent="dy5ecrsJD2A3xy8pY8UU-1">
          <mxGeometry x="414" y="310" width="120" height="60" as="geometry" />
        </mxCell>
        <mxCell id="LslVG7kpRuftllUN09Hv-5" value="Groovy" style="rounded=1;whiteSpace=wrap;html=1;fillColor=#f5f5f5;strokeColor=#666666;gradientColor=#b3b3b3;" vertex="1" parent="dy5ecrsJD2A3xy8pY8UU-1">
          <mxGeometry x="70" y="210" width="120" height="60" as="geometry" />
        </mxCell>
        <mxCell id="LslVG7kpRuftllUN09Hv-6" value="Kotlin" style="rounded=1;whiteSpace=wrap;html=1;fillColor=#f5f5f5;strokeColor=#666666;gradientColor=#b3b3b3;" vertex="1" parent="dy5ecrsJD2A3xy8pY8UU-1">
          <mxGeometry x="70" y="410" width="120" height="60" as="geometry" />
        </mxCell>
        <mxCell id="LslVG7kpRuftllUN09Hv-7" value="Scala" style="rounded=1;whiteSpace=wrap;html=1;fillColor=#f5f5f5;strokeColor=#666666;gradientColor=#b3b3b3;" vertex="1" parent="dy5ecrsJD2A3xy8pY8UU-1">
          <mxGeometry x="70" y="310" width="120" height="60" as="geometry" />
        </mxCell>
        <mxCell id="LslVG7kpRuftllUN09Hv-8" value="" style="shape=curlyBracket;whiteSpace=wrap;html=1;rounded=1;flipH=1;size=0.5;" vertex="1" parent="dy5ecrsJD2A3xy8pY8UU-1">
          <mxGeometry x="220" y="240" width="20" height="210" as="geometry" />
        </mxCell>
        <mxCell id="LslVG7kpRuftllUN09Hv-10" value="" style="endArrow=classic;html=1;rounded=0;" edge="1" parent="dy5ecrsJD2A3xy8pY8UU-1">
          <mxGeometry width="50" height="50" relative="1" as="geometry">
            <mxPoint x="250" y="340" as="sourcePoint" />
            <mxPoint x="410" y="340" as="targetPoint" />
          </mxGeometry>
        </mxCell>
        <mxCell id="LslVG7kpRuftllUN09Hv-11" value="编译" style="edgeLabel;html=1;align=center;verticalAlign=middle;resizable=0;points=[];" vertex="1" connectable="0" parent="LslVG7kpRuftllUN09Hv-10">
          <mxGeometry x="0.0458" relative="1" as="geometry">
            <mxPoint as="offset" />
          </mxGeometry>
        </mxCell>
        <mxCell id="LslVG7kpRuftllUN09Hv-12" value="JVM是一个软件&lt;br&gt;它帮我们屏蔽底层操作系统、硬件、CPU指令层面的细节" style="rounded=0;whiteSpace=wrap;html=1;fillColor=#f0a30a;strokeColor=#BD7000;fontColor=#000000;" vertex="1" parent="dy5ecrsJD2A3xy8pY8UU-1">
          <mxGeometry x="311" y="470" width="326" height="90" as="geometry" />
        </mxCell>
        <mxCell id="LslVG7kpRuftllUN09Hv-14" value="Windows&lt;br&gt;01010101" style="rounded=1;whiteSpace=wrap;html=1;fillColor=#d5e8d4;gradientColor=#97d077;strokeColor=#82b366;" vertex="1" parent="dy5ecrsJD2A3xy8pY8UU-1">
          <mxGeometry x="120" y="690" width="120" height="60" as="geometry" />
        </mxCell>
        <mxCell id="LslVG7kpRuftllUN09Hv-15" value="Linux&lt;br&gt;1010101" style="rounded=1;whiteSpace=wrap;html=1;fillColor=#d5e8d4;gradientColor=#97d077;strokeColor=#82b366;" vertex="1" parent="dy5ecrsJD2A3xy8pY8UU-1">
          <mxGeometry x="330" y="690" width="120" height="60" as="geometry" />
        </mxCell>
        <mxCell id="LslVG7kpRuftllUN09Hv-16" value="Solaris&lt;br&gt;01010100" style="rounded=1;whiteSpace=wrap;html=1;fillColor=#d5e8d4;gradientColor=#97d077;strokeColor=#82b366;" vertex="1" parent="dy5ecrsJD2A3xy8pY8UU-1">
          <mxGeometry x="550" y="690" width="120" height="60" as="geometry" />
        </mxCell>
        <mxCell id="LslVG7kpRuftllUN09Hv-17" value="other&lt;br&gt;0110001" style="rounded=1;whiteSpace=wrap;html=1;fillColor=#d5e8d4;gradientColor=#97d077;strokeColor=#82b366;" vertex="1" parent="dy5ecrsJD2A3xy8pY8UU-1">
          <mxGeometry x="750" y="690" width="120" height="60" as="geometry" />
        </mxCell>
        <mxCell id="LslVG7kpRuftllUN09Hv-24" value="" style="endArrow=classic;html=1;rounded=0;dashed=1;strokeColor=default;entryX=0.558;entryY=-0.017;entryDx=0;entryDy=0;entryPerimeter=0;exitX=0.5;exitY=1;exitDx=0;exitDy=0;" edge="1" parent="dy5ecrsJD2A3xy8pY8UU-1" source="LslVG7kpRuftllUN09Hv-12" target="LslVG7kpRuftllUN09Hv-14">
          <mxGeometry width="50" height="50" relative="1" as="geometry">
            <mxPoint x="260" y="670" as="sourcePoint" />
            <mxPoint x="310" y="620" as="targetPoint" />
          </mxGeometry>
        </mxCell>
        <mxCell id="LslVG7kpRuftllUN09Hv-25" value="" style="endArrow=classic;html=1;rounded=0;dashed=1;strokeColor=default;entryX=0.5;entryY=0;entryDx=0;entryDy=0;exitX=0.5;exitY=1;exitDx=0;exitDy=0;" edge="1" parent="dy5ecrsJD2A3xy8pY8UU-1" source="LslVG7kpRuftllUN09Hv-12" target="LslVG7kpRuftllUN09Hv-15">
          <mxGeometry width="50" height="50" relative="1" as="geometry">
            <mxPoint x="667.04" y="561.02" as="sourcePoint" />
            <mxPoint x="380.0000000000002" y="690.0000000000002" as="targetPoint" />
          </mxGeometry>
        </mxCell>
        <mxCell id="LslVG7kpRuftllUN09Hv-26" value="" style="endArrow=classic;html=1;rounded=0;dashed=1;strokeColor=default;entryX=0.5;entryY=0;entryDx=0;entryDy=0;exitX=0.5;exitY=1;exitDx=0;exitDy=0;fontStyle=1" edge="1" parent="dy5ecrsJD2A3xy8pY8UU-1" source="LslVG7kpRuftllUN09Hv-12" target="LslVG7kpRuftllUN09Hv-16">
          <mxGeometry width="50" height="50" relative="1" as="geometry">
            <mxPoint x="494" y="580" as="sourcePoint" />
            <mxPoint x="206.96000000000026" y="708.9800000000002" as="targetPoint" />
          </mxGeometry>
        </mxCell>
        <mxCell id="LslVG7kpRuftllUN09Hv-27" value="" style="endArrow=classic;html=1;rounded=0;dashed=1;strokeColor=default;entryX=0.5;entryY=0;entryDx=0;entryDy=0;exitX=0.5;exitY=1;exitDx=0;exitDy=0;fontStyle=1" edge="1" parent="dy5ecrsJD2A3xy8pY8UU-1" source="LslVG7kpRuftllUN09Hv-12">
          <mxGeometry width="50" height="50" relative="1" as="geometry">
            <mxPoint x="691" y="560" as="sourcePoint" />
            <mxPoint x="827.0000000000002" y="690" as="targetPoint" />
          </mxGeometry>
        </mxCell>
        <mxCell id="LslVG7kpRuftllUN09Hv-28" value="&lt;font style=&quot;font-size: 24px&quot;&gt;Wirte Once &lt;br&gt;Run Everywhere&lt;/font&gt;" style="text;html=1;strokeColor=#6c8ebf;fillColor=#dae8fc;align=center;verticalAlign=middle;whiteSpace=wrap;rounded=0;gradientColor=#7ea6e0;" vertex="1" parent="dy5ecrsJD2A3xy8pY8UU-1">
          <mxGeometry x="827" y="480" width="200" height="60" as="geometry" />
        </mxCell>
        <mxCell id="LslVG7kpRuftllUN09Hv-29" value="不同系统，不同JDK版本" style="text;html=1;strokeColor=#996185;fillColor=#e6d0de;align=center;verticalAlign=middle;whiteSpace=wrap;rounded=0;fontSize=24;gradientColor=#d5739d;" vertex="1" parent="dy5ecrsJD2A3xy8pY8UU-1">
          <mxGeometry x="330" y="840" width="280" height="35" as="geometry" />
        </mxCell>
      </root>
    </mxGraphModel>
  </diagram>
  <diagram id="vfA-4kRPwBWYJF6NTaz_" name="JVM运行原理图">
    <mxGraphModel dx="2005" dy="663" grid="1" gridSize="10" guides="1" tooltips="1" connect="1" arrows="1" fold="1" page="1" pageScale="1" pageWidth="827" pageHeight="1169" math="0" shadow="0">
      <root>
        <mxCell id="0" />
        <mxCell id="1" parent="0" />
        <mxCell id="_hazHtU4IWWNpUmxOMhj-7" style="edgeStyle=orthogonalEdgeStyle;rounded=0;orthogonalLoop=1;jettySize=auto;html=1;entryX=0;entryY=0.5;entryDx=0;entryDy=0;" edge="1" parent="1" source="_hazHtU4IWWNpUmxOMhj-1" target="_hazHtU4IWWNpUmxOMhj-2">
          <mxGeometry relative="1" as="geometry" />
        </mxCell>
        <mxCell id="_hazHtU4IWWNpUmxOMhj-8" value="Javac" style="edgeLabel;html=1;align=center;verticalAlign=middle;resizable=0;points=[];" vertex="1" connectable="0" parent="_hazHtU4IWWNpUmxOMhj-7">
          <mxGeometry x="-0.0274" y="1" relative="1" as="geometry">
            <mxPoint as="offset" />
          </mxGeometry>
        </mxCell>
        <mxCell id="_hazHtU4IWWNpUmxOMhj-1" value="Mall.java" style="rounded=0;whiteSpace=wrap;html=1;fillColor=#dae8fc;strokeColor=#6c8ebf;" vertex="1" parent="1">
          <mxGeometry x="120" y="100" width="120" height="60" as="geometry" />
        </mxCell>
        <mxCell id="_hazHtU4IWWNpUmxOMhj-9" style="edgeStyle=orthogonalEdgeStyle;rounded=0;orthogonalLoop=1;jettySize=auto;html=1;entryX=0.5;entryY=0;entryDx=0;entryDy=0;" edge="1" parent="1" source="_hazHtU4IWWNpUmxOMhj-2" target="_hazHtU4IWWNpUmxOMhj-5">
          <mxGeometry relative="1" as="geometry" />
        </mxCell>
        <mxCell id="_hazHtU4IWWNpUmxOMhj-2" value="Class File" style="rounded=0;whiteSpace=wrap;html=1;fillColor=#dae8fc;strokeColor=#6c8ebf;" vertex="1" parent="1">
          <mxGeometry x="590" y="100" width="120" height="60" as="geometry" />
        </mxCell>
        <mxCell id="_hazHtU4IWWNpUmxOMhj-5" value="类加载子系统（F）&lt;br&gt;ClassLoader Sub System" style="rounded=0;whiteSpace=wrap;html=1;fillColor=#f8cecc;strokeColor=#b85450;" vertex="1" parent="1">
          <mxGeometry x="590" y="230" width="120" height="60" as="geometry" />
        </mxCell>
        <mxCell id="_hazHtU4IWWNpUmxOMhj-10" value="" style="rounded=0;whiteSpace=wrap;html=1;" vertex="1" parent="1">
          <mxGeometry x="90" y="320" width="710" height="290" as="geometry" />
        </mxCell>
        <mxCell id="_hazHtU4IWWNpUmxOMhj-21" style="edgeStyle=orthogonalEdgeStyle;rounded=0;orthogonalLoop=1;jettySize=auto;html=1;entryX=0.127;entryY=0.005;entryDx=0;entryDy=0;entryPerimeter=0;" edge="1" parent="1" source="_hazHtU4IWWNpUmxOMhj-11" target="_hazHtU4IWWNpUmxOMhj-10">
          <mxGeometry relative="1" as="geometry" />
        </mxCell>
        <mxCell id="_hazHtU4IWWNpUmxOMhj-11" value="垃圾回收器&lt;br&gt;GC" style="rounded=0;whiteSpace=wrap;html=1;fillColor=#f8cecc;strokeColor=#b85450;" vertex="1" parent="1">
          <mxGeometry x="120" y="220" width="120" height="60" as="geometry" />
        </mxCell>
        <mxCell id="_hazHtU4IWWNpUmxOMhj-12" value="" style="endArrow=none;html=1;rounded=0;entryX=0.373;entryY=0;entryDx=0;entryDy=0;entryPerimeter=0;exitX=0.374;exitY=0.999;exitDx=0;exitDy=0;exitPerimeter=0;" edge="1" parent="1" source="_hazHtU4IWWNpUmxOMhj-10" target="_hazHtU4IWWNpUmxOMhj-10">
          <mxGeometry width="50" height="50" relative="1" as="geometry">
            <mxPoint x="310" y="410" as="sourcePoint" />
            <mxPoint x="360" y="360" as="targetPoint" />
          </mxGeometry>
        </mxCell>
        <mxCell id="_hazHtU4IWWNpUmxOMhj-13" value="数据共享（公共）数据区" style="text;html=1;strokeColor=none;fillColor=none;align=center;verticalAlign=middle;whiteSpace=wrap;rounded=0;" vertex="1" parent="1">
          <mxGeometry x="130" y="330" width="160" height="20" as="geometry" />
        </mxCell>
        <mxCell id="_hazHtU4IWWNpUmxOMhj-14" value="" style="rounded=0;whiteSpace=wrap;html=1;dashed=1;fillColor=#fff2cc;strokeColor=#d6b656;" vertex="1" parent="1">
          <mxGeometry x="140" y="380" width="170" height="190" as="geometry" />
        </mxCell>
        <mxCell id="_hazHtU4IWWNpUmxOMhj-15" value="堆（E）&lt;br&gt;Heap" style="rounded=0;whiteSpace=wrap;html=1;fillColor=#d80073;fontColor=#ffffff;strokeColor=#A50040;" vertex="1" parent="1">
          <mxGeometry x="165" y="400" width="120" height="60" as="geometry" />
        </mxCell>
        <mxCell id="_hazHtU4IWWNpUmxOMhj-16" value="元空间（D）&lt;br&gt;Metespace" style="rounded=0;whiteSpace=wrap;html=1;fillColor=#d80073;fontColor=#ffffff;strokeColor=#A50040;" vertex="1" parent="1">
          <mxGeometry x="165" y="480" width="120" height="60" as="geometry" />
        </mxCell>
        <mxCell id="_hazHtU4IWWNpUmxOMhj-17" value="数据隔离（私有）数据区" style="text;html=1;strokeColor=none;fillColor=none;align=center;verticalAlign=middle;whiteSpace=wrap;rounded=0;" vertex="1" parent="1">
          <mxGeometry x="510" y="330" width="160" height="20" as="geometry" />
        </mxCell>
        <mxCell id="_hazHtU4IWWNpUmxOMhj-20" value="" style="endArrow=classic;html=1;rounded=0;exitX=0.5;exitY=1;exitDx=0;exitDy=0;" edge="1" parent="1" source="_hazHtU4IWWNpUmxOMhj-5">
          <mxGeometry width="50" height="50" relative="1" as="geometry">
            <mxPoint x="650" y="340" as="sourcePoint" />
            <mxPoint x="650" y="320" as="targetPoint" />
          </mxGeometry>
        </mxCell>
        <mxCell id="_hazHtU4IWWNpUmxOMhj-22" value="" style="shape=curlyBracket;whiteSpace=wrap;html=1;rounded=1;" vertex="1" parent="1">
          <mxGeometry y="320" width="80" height="290" as="geometry" />
        </mxCell>
        <mxCell id="_hazHtU4IWWNpUmxOMhj-25" value="Java内存部分&lt;br&gt;（运行时数据区）" style="text;html=1;strokeColor=none;fillColor=none;align=center;verticalAlign=middle;whiteSpace=wrap;rounded=0;" vertex="1" parent="1">
          <mxGeometry x="-100" y="445" width="120" height="40" as="geometry" />
        </mxCell>
        <mxCell id="_hazHtU4IWWNpUmxOMhj-26" value="" style="rounded=0;whiteSpace=wrap;html=1;fillColor=#1ba1e2;fontColor=#ffffff;strokeColor=#006EAF;" vertex="1" parent="1">
          <mxGeometry x="420" y="370" width="350" height="200" as="geometry" />
        </mxCell>
        <mxCell id="_hazHtU4IWWNpUmxOMhj-27" value="虚拟机栈（B）&lt;br&gt;VM Stack" style="rounded=0;whiteSpace=wrap;html=1;fillColor=#60a917;fontColor=#ffffff;strokeColor=#2D7600;" vertex="1" parent="1">
          <mxGeometry x="450" y="400" width="120" height="60" as="geometry" />
        </mxCell>
        <mxCell id="_hazHtU4IWWNpUmxOMhj-28" value="本地方法栈（C）&lt;br&gt;Native Method Stack" style="rounded=0;whiteSpace=wrap;html=1;fillColor=#60a917;fontColor=#ffffff;strokeColor=#2D7600;" vertex="1" parent="1">
          <mxGeometry x="610" y="400" width="120" height="60" as="geometry" />
        </mxCell>
        <mxCell id="_hazHtU4IWWNpUmxOMhj-29" value="程序计数器（A）&lt;br&gt;Program Counter Register" style="rounded=0;whiteSpace=wrap;html=1;fillColor=#60a917;fontColor=#ffffff;strokeColor=#2D7600;" vertex="1" parent="1">
          <mxGeometry x="460" y="480" width="260" height="60" as="geometry" />
        </mxCell>
        <mxCell id="_hazHtU4IWWNpUmxOMhj-30" value="执行引擎" style="rounded=0;whiteSpace=wrap;html=1;fillColor=#b1ddf0;strokeColor=#10739e;" vertex="1" parent="1">
          <mxGeometry x="120" y="670" width="120" height="60" as="geometry" />
        </mxCell>
        <mxCell id="_hazHtU4IWWNpUmxOMhj-31" value="" style="endArrow=classic;html=1;rounded=0;entryX=0.099;entryY=1.006;entryDx=0;entryDy=0;entryPerimeter=0;exitX=0.336;exitY=0;exitDx=0;exitDy=0;exitPerimeter=0;" edge="1" parent="1" source="_hazHtU4IWWNpUmxOMhj-30" target="_hazHtU4IWWNpUmxOMhj-10">
          <mxGeometry width="50" height="50" relative="1" as="geometry">
            <mxPoint x="130" y="680" as="sourcePoint" />
            <mxPoint x="180" y="630" as="targetPoint" />
          </mxGeometry>
        </mxCell>
        <mxCell id="_hazHtU4IWWNpUmxOMhj-32" value="" style="endArrow=classic;html=1;rounded=0;exitX=0.155;exitY=1.004;exitDx=0;exitDy=0;exitPerimeter=0;" edge="1" parent="1" source="_hazHtU4IWWNpUmxOMhj-10">
          <mxGeometry width="50" height="50" relative="1" as="geometry">
            <mxPoint x="180" y="670" as="sourcePoint" />
            <mxPoint x="200" y="670" as="targetPoint" />
          </mxGeometry>
        </mxCell>
        <mxCell id="_hazHtU4IWWNpUmxOMhj-36" style="edgeStyle=orthogonalEdgeStyle;rounded=0;orthogonalLoop=1;jettySize=auto;html=1;" edge="1" parent="1" source="_hazHtU4IWWNpUmxOMhj-33" target="_hazHtU4IWWNpUmxOMhj-34">
          <mxGeometry relative="1" as="geometry" />
        </mxCell>
        <mxCell id="_hazHtU4IWWNpUmxOMhj-33" value="本地库接口" style="rounded=0;whiteSpace=wrap;html=1;fillColor=#b1ddf0;strokeColor=#10739e;" vertex="1" parent="1">
          <mxGeometry x="440" y="670" width="120" height="60" as="geometry" />
        </mxCell>
        <mxCell id="_hazHtU4IWWNpUmxOMhj-37" style="edgeStyle=orthogonalEdgeStyle;rounded=0;orthogonalLoop=1;jettySize=auto;html=1;" edge="1" parent="1" source="_hazHtU4IWWNpUmxOMhj-34" target="_hazHtU4IWWNpUmxOMhj-35">
          <mxGeometry relative="1" as="geometry" />
        </mxCell>
        <mxCell id="_hazHtU4IWWNpUmxOMhj-34" value="本地方法库" style="rounded=0;whiteSpace=wrap;html=1;fillColor=#b1ddf0;strokeColor=#10739e;" vertex="1" parent="1">
          <mxGeometry x="660" y="670" width="120" height="60" as="geometry" />
        </mxCell>
        <mxCell id="_hazHtU4IWWNpUmxOMhj-35" value="C/C++语言" style="rounded=0;whiteSpace=wrap;html=1;fillColor=#b1ddf0;strokeColor=#10739e;" vertex="1" parent="1">
          <mxGeometry x="870" y="670" width="120" height="60" as="geometry" />
        </mxCell>
        <mxCell id="_hazHtU4IWWNpUmxOMhj-38" value="" style="endArrow=classic;html=1;rounded=0;entryX=0.535;entryY=1.006;entryDx=0;entryDy=0;entryPerimeter=0;exitX=0.25;exitY=0;exitDx=0;exitDy=0;" edge="1" parent="1" source="_hazHtU4IWWNpUmxOMhj-33" target="_hazHtU4IWWNpUmxOMhj-10">
          <mxGeometry width="50" height="50" relative="1" as="geometry">
            <mxPoint x="170.32000000000016" y="680" as="sourcePoint" />
            <mxPoint x="170.28999999999996" y="621.74" as="targetPoint" />
          </mxGeometry>
        </mxCell>
        <mxCell id="_hazHtU4IWWNpUmxOMhj-39" value="" style="endArrow=classic;html=1;rounded=0;entryX=0.75;entryY=0;entryDx=0;entryDy=0;" edge="1" parent="1" target="_hazHtU4IWWNpUmxOMhj-33">
          <mxGeometry width="50" height="50" relative="1" as="geometry">
            <mxPoint x="530" y="610" as="sourcePoint" />
            <mxPoint x="210" y="680" as="targetPoint" />
            <Array as="points">
              <mxPoint x="530" y="620" />
            </Array>
          </mxGeometry>
        </mxCell>
        <mxCell id="_hazHtU4IWWNpUmxOMhj-41" value="" style="endArrow=classic;html=1;rounded=0;entryX=0;entryY=0.25;entryDx=0;entryDy=0;exitX=1;exitY=0.25;exitDx=0;exitDy=0;" edge="1" parent="1" source="_hazHtU4IWWNpUmxOMhj-30" target="_hazHtU4IWWNpUmxOMhj-33">
          <mxGeometry width="50" height="50" relative="1" as="geometry">
            <mxPoint x="270" y="720" as="sourcePoint" />
            <mxPoint x="320" y="670" as="targetPoint" />
          </mxGeometry>
        </mxCell>
        <mxCell id="_hazHtU4IWWNpUmxOMhj-42" value="" style="endArrow=classic;html=1;rounded=0;entryX=1.02;entryY=0.583;entryDx=0;entryDy=0;entryPerimeter=0;exitX=0;exitY=0.583;exitDx=0;exitDy=0;exitPerimeter=0;" edge="1" parent="1" source="_hazHtU4IWWNpUmxOMhj-33" target="_hazHtU4IWWNpUmxOMhj-30">
          <mxGeometry width="50" height="50" relative="1" as="geometry">
            <mxPoint x="300" y="750" as="sourcePoint" />
            <mxPoint x="350" y="700" as="targetPoint" />
          </mxGeometry>
        </mxCell>
      </root>
    </mxGraphModel>
  </diagram>
  <diagram id="VOZOqgfXllXMKUkCHZig" name="JVM的内存结构划分">
    <mxGraphModel dx="1718" dy="967" grid="1" gridSize="10" guides="1" tooltips="1" connect="1" arrows="1" fold="1" page="1" pageScale="1" pageWidth="827" pageHeight="1169" math="0" shadow="0">
      <root>
        <mxCell id="VLM3ZJOoLS3KzdmRsszc-0" />
        <mxCell id="VLM3ZJOoLS3KzdmRsszc-1" parent="VLM3ZJOoLS3KzdmRsszc-0" />
        <mxCell id="KxKvP_w_kPAOGpFcpC5K-0" value="" style="rounded=0;whiteSpace=wrap;html=1;dashed=1;" vertex="1" parent="VLM3ZJOoLS3KzdmRsszc-1">
          <mxGeometry x="390" y="230" width="850" height="720" as="geometry" />
        </mxCell>
        <mxCell id="KxKvP_w_kPAOGpFcpC5K-1" value="虚拟机栈&lt;br&gt;存储：&lt;br&gt;方法、局部变量、运行数据" style="rounded=0;whiteSpace=wrap;html=1;fillColor=#b0e3e6;strokeColor=#0e8088;" vertex="1" parent="VLM3ZJOoLS3KzdmRsszc-1">
          <mxGeometry x="500" y="330" width="180" height="100" as="geometry" />
        </mxCell>
        <mxCell id="KxKvP_w_kPAOGpFcpC5K-2" value="本地方法栈&lt;br&gt;存储：&lt;br&gt;Native方法" style="rounded=0;whiteSpace=wrap;html=1;fillColor=#b0e3e6;strokeColor=#0e8088;" vertex="1" parent="VLM3ZJOoLS3KzdmRsszc-1">
          <mxGeometry x="500" y="515" width="170" height="105" as="geometry" />
        </mxCell>
        <mxCell id="KxKvP_w_kPAOGpFcpC5K-3" value="程序计数器&lt;br&gt;存储：&lt;br&gt;字节码行号指示器" style="rounded=0;whiteSpace=wrap;html=1;fillColor=#b0e3e6;strokeColor=#0e8088;" vertex="1" parent="VLM3ZJOoLS3KzdmRsszc-1">
          <mxGeometry x="500" y="720" width="170" height="100" as="geometry" />
        </mxCell>
        <mxCell id="n-x5c0czaprhqIf4Y616-0" value="堆&lt;br&gt;存储：&lt;br&gt;所有创建的对象，数组，实例化变量" style="rounded=0;whiteSpace=wrap;html=1;fillColor=#cdeb8b;strokeColor=#36393d;" vertex="1" parent="VLM3ZJOoLS3KzdmRsszc-1">
          <mxGeometry x="920" y="335" width="260" height="180" as="geometry" />
        </mxCell>
        <mxCell id="n-x5c0czaprhqIf4Y616-1" value="元空间&lt;br&gt;存储：&lt;br&gt;虚拟机加载的字节码数据、静态变量、常量、&lt;br&gt;运行时常量池、类信息" style="rounded=0;whiteSpace=wrap;html=1;fillColor=#cdeb8b;strokeColor=#36393d;" vertex="1" parent="VLM3ZJOoLS3KzdmRsszc-1">
          <mxGeometry x="910" y="660" width="290" height="170" as="geometry" />
        </mxCell>
      </root>
    </mxGraphModel>
  </diagram>
  <diagram id="EYqjf-uaebE1vuHTeRLf" name="代码运行时内存信息存放案例">
    <mxGraphModel dx="2889" dy="1160" grid="1" gridSize="10" guides="1" tooltips="1" connect="1" arrows="1" fold="1" page="1" pageScale="1" pageWidth="827" pageHeight="1169" math="0" shadow="0">
      <root>
        <mxCell id="Gw9YWnHoNEfaIMr4INsT-0" />
        <mxCell id="Gw9YWnHoNEfaIMr4INsT-1" parent="Gw9YWnHoNEfaIMr4INsT-0" />
        <mxCell id="sq1VFSYlMpC6KDFZsAfr-0" value="" style="rounded=1;whiteSpace=wrap;html=1;fontSize=24;fillColor=#fff2cc;gradientColor=#ffd966;strokeColor=#d6b656;" vertex="1" parent="Gw9YWnHoNEfaIMr4INsT-1">
          <mxGeometry x="-110" y="897" width="300" height="530" as="geometry" />
        </mxCell>
        <mxCell id="sq1VFSYlMpC6KDFZsAfr-1" value="" style="rounded=1;whiteSpace=wrap;html=1;fontSize=24;fillColor=#d5e8d4;gradientColor=#97d077;strokeColor=#82b366;" vertex="1" parent="Gw9YWnHoNEfaIMr4INsT-1">
          <mxGeometry x="370" y="907" width="400" height="260" as="geometry" />
        </mxCell>
        <mxCell id="sq1VFSYlMpC6KDFZsAfr-2" value="" style="rounded=1;whiteSpace=wrap;html=1;fontSize=24;fillColor=#dae8fc;gradientColor=#7ea6e0;strokeColor=#6c8ebf;" vertex="1" parent="Gw9YWnHoNEfaIMr4INsT-1">
          <mxGeometry x="370" y="1267" width="395" height="160" as="geometry" />
        </mxCell>
        <mxCell id="sq1VFSYlMpC6KDFZsAfr-3" value="loadDate()方法栈帧" style="rounded=1;whiteSpace=wrap;html=1;fontSize=24;dashed=1;" vertex="1" parent="Gw9YWnHoNEfaIMr4INsT-1">
          <mxGeometry x="-77.5" y="997" width="242.5" height="80" as="geometry" />
        </mxCell>
        <mxCell id="sq1VFSYlMpC6KDFZsAfr-4" value="虚拟机栈" style="text;html=1;strokeColor=none;fillColor=none;align=center;verticalAlign=middle;whiteSpace=wrap;rounded=0;fontSize=24;" vertex="1" parent="Gw9YWnHoNEfaIMr4INsT-1">
          <mxGeometry x="-30" y="927" width="140" height="20" as="geometry" />
        </mxCell>
        <mxCell id="sq1VFSYlMpC6KDFZsAfr-5" value="load（）方法栈帧&lt;br&gt;&lt;br&gt;config变量" style="rounded=1;whiteSpace=wrap;html=1;fontSize=24;dashed=1;" vertex="1" parent="Gw9YWnHoNEfaIMr4INsT-1">
          <mxGeometry x="-77.5" y="1127" width="242.5" height="90" as="geometry" />
        </mxCell>
        <mxCell id="sq1VFSYlMpC6KDFZsAfr-6" value="main（）方法栈帧" style="rounded=1;whiteSpace=wrap;html=1;fontSize=24;dashed=1;" vertex="1" parent="Gw9YWnHoNEfaIMr4INsT-1">
          <mxGeometry x="-77.5" y="1277" width="242.5" height="90" as="geometry" />
        </mxCell>
        <mxCell id="sq1VFSYlMpC6KDFZsAfr-7" value="new Config（）" style="rounded=1;whiteSpace=wrap;html=1;fontSize=24;dashed=1;" vertex="1" parent="Gw9YWnHoNEfaIMr4INsT-1">
          <mxGeometry x="460" y="977" width="242.5" height="80" as="geometry" />
        </mxCell>
        <mxCell id="sq1VFSYlMpC6KDFZsAfr-8" value="堆" style="text;html=1;strokeColor=none;fillColor=none;align=center;verticalAlign=middle;whiteSpace=wrap;rounded=0;dashed=1;fontSize=24;" vertex="1" parent="Gw9YWnHoNEfaIMr4INsT-1">
          <mxGeometry x="560" y="922" width="60" height="30" as="geometry" />
        </mxCell>
        <mxCell id="sq1VFSYlMpC6KDFZsAfr-9" value="new Manager（）" style="rounded=1;whiteSpace=wrap;html=1;fontSize=24;dashed=1;" vertex="1" parent="Gw9YWnHoNEfaIMr4INsT-1">
          <mxGeometry x="460" y="1077" width="242.5" height="80" as="geometry" />
        </mxCell>
        <mxCell id="sq1VFSYlMpC6KDFZsAfr-10" value="manager" style="rounded=1;whiteSpace=wrap;html=1;fontSize=24;dashed=1;" vertex="1" parent="Gw9YWnHoNEfaIMr4INsT-1">
          <mxGeometry x="390" y="1327" width="242.5" height="80" as="geometry" />
        </mxCell>
        <mxCell id="sq1VFSYlMpC6KDFZsAfr-11" value="元空间" style="text;html=1;strokeColor=none;fillColor=none;align=center;verticalAlign=middle;whiteSpace=wrap;rounded=0;dashed=1;fontSize=24;" vertex="1" parent="Gw9YWnHoNEfaIMr4INsT-1">
          <mxGeometry x="490" y="1287" width="160" height="10" as="geometry" />
        </mxCell>
        <mxCell id="sq1VFSYlMpC6KDFZsAfr-12" value="" style="endArrow=classic;html=1;rounded=0;dashed=1;fontSize=24;strokeColor=default;entryX=-0.004;entryY=0.6;entryDx=0;entryDy=0;entryPerimeter=0;exitX=0.773;exitY=0.778;exitDx=0;exitDy=0;exitPerimeter=0;" edge="1" parent="Gw9YWnHoNEfaIMr4INsT-1" source="sq1VFSYlMpC6KDFZsAfr-5" target="sq1VFSYlMpC6KDFZsAfr-7">
          <mxGeometry width="50" height="50" relative="1" as="geometry">
            <mxPoint x="180" y="1187" as="sourcePoint" />
            <mxPoint x="230" y="1137" as="targetPoint" />
          </mxGeometry>
        </mxCell>
        <mxCell id="sq1VFSYlMpC6KDFZsAfr-13" value="" style="endArrow=classic;html=1;rounded=0;dashed=1;fontSize=24;strokeColor=default;entryX=0.289;entryY=1;entryDx=0;entryDy=0;entryPerimeter=0;" edge="1" parent="Gw9YWnHoNEfaIMr4INsT-1" source="sq1VFSYlMpC6KDFZsAfr-10" target="sq1VFSYlMpC6KDFZsAfr-9">
          <mxGeometry width="50" height="50" relative="1" as="geometry">
            <mxPoint x="270" y="1117" as="sourcePoint" />
            <mxPoint x="320" y="1067" as="targetPoint" />
          </mxGeometry>
        </mxCell>
        <mxCell id="OgdvYvhtUfmxc-MgIRlx-0" value="" style="shape=image;verticalLabelPosition=bottom;labelBackgroundColor=default;verticalAlign=top;aspect=fixed;imageAspect=0;image=data:image/png,iVBORw0KGgoAAAANSUhEUgAAA3AAAAGoCAYAAAAHGAe8AAAAAXNSR0IArs4c6QAAAARnQU1BAACxjwv8YQUAAAAJcEhZcwAADsMAAA7DAcdvqGQAAP+lSURBVHhe7P0HYFzXeSWOn+mD3kEABECCvXeKIlUoWc3qcl/bceKaeNM2xU68STabv7Npv42TXWdTHLfYsSVbtmxJVpeoQoq9N7ABRO+9D6b+v/Pd94AhTVq0REmkdM/MnXd7f2++827zpAR4DSRSccDjUX1Sf68OeKVkPmrOKaFrMOU5B7RidUhZ6YtlTYndOcEtLCzeEdDb/Rxl7nRP2rPBK8ov1h7jpM8G9e2YE2JMTnu3sLB4h0KEJUfz8zc8ZY10W4pVHscfQ/EZ4YS2sLCw+IXo7urG++693zFdHJRPXhNKZJzr1QDm1VUXhCuETT1xHb0GSHvSpmndq4WFxTsDvKepeOtTeeXXJ8over8IYCRuPlEquE0JbQzhwLGiTZqthYXFOwju/c2Xue5zwH3ZM+3mPh8ct2njtB81WVhYWFweXBKBu9qgz1lHTWHKUn70Scqr80idsnNAfw40iKMsLCzeWeB9zYdgQO5/KpI2rzwXSOa88lDQ+16fD+JAA6/ydR8IbnjHaGFh8Q4D721zf5uZOeb2N/ppuJTOuKWP4rvhp20sLCws3jguaQplPG0K5dUEfWi+ZukuDjt90sLinQ8+I17v080+IywsLPT58YseBPY5YWFhcYngFMoHLmEK5S+3Bu58n69X6rGwsLCwsHirYaVoizcDryUL2X5nYWFxieju7sb9l2sNnIWFhYWFhYWFhYWFhcXbj0ueQunuqHQOGNK1dqKxL5osLCwsLN5uTP9jie61RkgsLCwsLCyuAHAK5aWMwL0uAmd0HsRiMTQ0NKCjs8MQuKtwnZyFhYWFxTsQzn8S/5Uys7JQXV2N4qJieLxmk4npbScsLCwsLCyuDLypBM7FqVOn8OlPfQqRSAQ+v1//FBW82P9GC4tLw6W897D3k4XFLwUSNKVqcn8lEgmsWbsWf/M3f4PCwkLHh4WFhYWFxZWFt4TA7dq1C1/72tfw5S9/GTk5OWlyqGVwFhaXB28Xu5t6HfO6YHJknwEWbwfO7bmpVBJbtmzBt771bXz9G19HRUWF42JhYWFhYXFl4a0hcDt34tv/8R/4yt//PbKzsyU28cPY3ojkZ2HxboPcM7/olkl5zBH6Fz4Sw3POIbKXE28kVn2q2OeAxdsMdkF2xeeefQ5f/aev6gvHmTNnqpuFhYWFhcWVhkslcG9oF0qVJx3+d0HZ0sLC4jVBIfNiavrOOv8Oe/PvOKbwepWTeQuLtw/y36R90cU5BgsLCwsLi6sXb4jA/ZyMlv4H6UpyVlll1YXVLwEN4qFA6n5oZ66O4fKrN4ILxWeVVW+lsrCwsLCweIfispwDN/Vfmc7o3CEEq6yy6sLql4DZNc+DpIdTJr2i4OinPFx+db5AfKmKuFB8Vln1VirC7Y8WFhYWFhbvIFwWAuf+V1pYWBC/vNR4fgiPkDSuO9V7i9OURYkNfKJ409LFXN9EuILwL6ssLK4U2P5oYWFhYfEOxGUhcBYW7ywYJjK1DyPZlavSkW6f7sZhsZ+zu4BKQ7qcyZE2VxEkbu6HJpq9El6V2gnOi+8CFhYWFhYWFhYWFu8AWAJnYZEGQ5wM/dEVZhfjQWJv6JRRSqOm/NLkECviAn7P9W9gUgaSoosnJfWk6FKSI46+CSlMprxIir3G5/HLD8fjOBLn5Pq8+C5gYWFhYWFhYWFhcZXDEjgLC8LhOh4k4E+Nwz/ZBV+0V2xizlozsiZ6uhApMvaGlLn0LM3/Ofv/G7vp+HhEAM1C2uDTqy/Sh3jHCcRHBsTFJ3dpQLzE4BtvR6TjFOKj/Uj0NSPZe0ayNyJhuCZObmVJdpoYim5qgZyFhYWFhYWFhcU7BZbAWVgQut4sCW9qUkjRABJ1ezBxah9S0YjwIXMO2zQNIzEyY2lJdTUuxpZr1RxS5lyVRsnPlEm+xo1jbRJaiBzNHkTFYQyp3mMY2v8YxltPIpWIiTf6pf0BDB54HNH2U4h21GL48AuINB5DMjIu4ZgHURyx4yflrpYjpnNuYWFhYWFhYWFxdePqI3COnDqlLCwuA3R9WcohUfEhROv3YPDkXiQmI0qEOBJGakbohEUSMg/Jl3j3+JHw+CQScVE7oWMe0riAKJ8o8SvEyhy4LfEIuTJUj+N9jJfpT8KX7Ic30gjvZBMKJpuRG++FNzEiCQpBSwzBE+9BTrwb4XgfMipCyC2Kw9N9Ar7RLgk7KTF6JQtcH6c5lFgtLCwsLCwsLCzeabj6CBxl4HRlYXFZQeKTQCAVQ5bwLL8QM64/IynyJ6NClCKiJuAlYUoJgdKRM65VS8CTjAs5SyhhY+f0SThfkuvXxJ3kTuL1pCSOVETiikgcMTHTnnHEgIkeoOGgqGPA6CCi7WcQ4wjbUAcQG5Nsif/4JJKD7Ui0NksaQfi8XsTbGpAcHpSsOzeEEkUSSZMTe6NYWFhYWFhYWLxzcHUROJGtUxzJSFMqb9vBBos3CNOF2J+E9CQTqk8kEtrHfKkJ+BLd8IzVAt2vwiPK23cI3rE+sZ9EMNkB3+hZIVq9QrCSHAcTxbG3KLzRHnj664WQ9QqZG4Mnchroe1Xi2SpxHIF/uEfiIAGUW1GSTjHNSBSpaBzRpA8RyUpssAeTJw8gXncC44PD6GwdwuhYJsY8MzGWWY5RTwCTkq7mX7iamZKpGi2VhYWFhYWFhYXFOwdXLoFLJ2VT+hS8XKukIwwcaOBEMSO0nuPfga4FouYCboRxv8xC7kXSsriawD4hPcPLK1nVCDDWABx/DtEn/g1jj/8r+p74JvoO7EBiuFfcuzBxZhvad7yAWHc3vPGYkLVRCdqJRNM+9Ox4BpHOJiAxATTsQvSZf8OIxNHz+NfR+dKj4q1D3PxAdhk881bBU14thCwFf0ElsmctRrCwCIG8HPgK8+DLzEWgaC5y5m1AzsJNyFlyI/IWX4twUbncD0IbJcsJvthQGun2bdspLd6lsF3fwsLCwuIdiCuXwDmyp4rSJG38cJ2RXOPxOJKJhGZevfFPWqeo6biDwkxMk6u4OXzPGOhXRyZMaGesQt3cq4LhjI0TxmgviDS3qbQsrg6kt63pAPLllEdpffYTunnDmBwaRUvbGEbCVYhkFiOKOHqPv4qR4zuAWAyBoHhs3Y1k8yGJh31LCNxEPYZP7MN4/wiCeXlIjI+gu7kX/SjBROZMIVvS59q2omvfzxAf5RRJ6bGxMaQGuhAbH0LHqf0YbjoNTygH3qp58NTMQkZeEMXZHnj9EXhiveK3Dr31BzDU2aIjhoS+5EjvlBYW71bY57GFhYWFxTsQVy6Bc0A+lRSBWvf6S8WFvEXR3NSEU6fPIBKNCxdzaFzKK+5U5j9b1x2JQfcETFsbRILFjSZ09z/9mM0k6KAiLz040NG9dDmY+nTlwJXzqbhZRbqbxZUNbW1pM9Pqph/AK32KV21Y0Quv8mYVo+Cau1F43++h6K5Povy2u1BdEoS38zRS4yEEKpehpDSISOcxJV+YHAS6T2NgPIqM+dfAn10Ajz+ArJV3oOTu30Xpvb+JGXfchxk12ZjsqhWS1y0EbhIY7EJyfBT5pcWoLM2At78Rkb5e6FzK0RgmR0fRV38Qo0e3CXncKYTxOHyjEjYqxE/6PNfraf/T9W9UhNhZWFhYWFhYWFi8I3BFE7gUDy0WmCmTnD4pxCsRxdnjx/DyS6+gqXsQMSVgFLi56sghc8kEPLFxkWlHMTlpdgTk4AanlpG2cSMJb3IcExOjGBodw2RciKCm5NMlUDxAmenpCIzRcoBP9XQySuiduMcl4ng8KcRN4k+k4OPhykoqLa4GkLY7FF5NwrJEcaSXLwCkobljZCqOQI4f2TnST1r2YfClhzG45RFMdnNapPSoRBaQWYTgjFx09tSjq6MZKW460nhK+1tmVZVEK70znEJWrge+3tMY2vYIhl54GMmGWmR6o9Kvxf/YiBCyVvgyC4C8MgQr5yFVUIihzmYM1Z3CRHOfZKcEicxyhPJmIKO4GIHZ81E0dynyZ1Yh7vcjyi5LZTq0hcW7Gua+trCwsLCweGfhymQaInwmhSVFIhGMCgkbHx8TskXCFUF0MoaFc+fC7/XgTH0dhkfGMTo6KrLvGMbHxsT/OGKxuPiLYPf2bUL0tqG7a0jkbLMxxdTKoEQMp06ewvadezAemVQXwsvRFzFximZ7WzuOHDmKI4eP4OiRY6itrcWxY0dx6NAhHD16DIfFXt2P0u4wDh0+jIbmZsSEEBJWeLgaQKZDAicEK8kjBIZFcTTLj7gnII0YE/MIUse3Y/SFH8HTfhz5vjHkB+PwI6YvBlKeDOH+WfDMqEAwKHF0HAT6OzHWNYHM4tnILCyU/jaIZPshjLzyOOKn9yEvNYC8cALeYEDCS/qJSUQHRjAUCyI1Yw6GU1mYDJYhZ9ZKzJg7H3mVNciYtwa5FXMRCvjhn1EJT+ViDHQOoa2+BbFo3Iw6uyXSjUwsLN6FcDq+uaQ9he0D2cLCwsLiHYIri8BN/fGmMDw8jKNClvbu3YMD+/Zi/+69eHX7LuzZfxAtnZ0IhkNobWnE4YP7cfjQARw6uA+HDhzA/oOHceZsMxIiWefm5qGluUFI3Bb0dnVhXIheT3cv+rp70NvZjY72TnSLvlPcukRR398/oGuJJqNRIWdHsHPHDvT29gqJdAmkCOiCWCyKqPiJC1njlWQzFoshMjmp5JNlsQL0lQo2TnrrcJyMw6pCvFNj0rjDiE4IoQuF4fUNAENnMX54D+AvhWf5/cANHwA234lw6UwJQ6lQVEJUwSzMKC1CTvN2pE4dxHgsD4WzVsMXzpI4uxA98iK6+6NILnovsOnDwM0PALOrpd9In0nIzZhXgqwFa+DJLoE/JcQOmUC4BKn8eUDpQmBGNYLFmciZqIenYQ/697+K8eEe5BaG9EiCQIrHHZibmuPRPLbAwuJdB0vULCwsLCze4bjiRuBUHPZ4EAwGUVJSgsqZM1FVXoawmI+fasDgRAJls2pw/Q2bcP2GVaiqKEF52QxUzChCZXkhKkSfX1iIYFYBlq9Zj1tv2YyMoA9jI0NoaWzGvj17sH/XPhzYe0gIYIcStsOHj2LP3n3YI25HjhzGsPjl+icSs4yMDMyfP18I3SQKCvKxcuVKLFu2DKtWrRa1EivEnJOTo+dxzZkzBzU1NQgGArqE6lySYHGlgONtZu0km5nrIsUmPgiMNQEdJ5A4dgAdfVH4y+bCGxZ/8QF4xnrhmRxHKiYNOxFEtGUMPd0jSEm763Y53iCQMROZ5fMQjvSir6EBiaJFCJbMIj+UhOLwjA/BEx2DJyn0KpYLdEt8He2ICuFP+PPgK6hAsGy23AB+eBIJJOIxEy45LnFMiD3Z2STQfxKRU/tR4A+gfN4MBD3daDq8ExP9Q3r2HNfB8SAD2/ssLCwsLCwsLN55uLIInMjGKnTKD4nT7FmzsGD+PMyZNxvV1RUIZ+WgtLwKNXPnY97ceVg8b65ea+bMxxy5zhW/C+dWo6K0GMOjY+gdGMbMymrcfustqJldI3FUY9269Vi7fj3WrF0r8c9GSfEMLF+2Autpv24tli1fitycLBHqk/D5ffALGSM4Avf0M8+grq4OPp/Yi5vP59eRu61bt6KnpwdZmZnqJvKzKYeyOIsrCUrelNykrX5LCSmabEFs94/R9pPvouHAUaQqliA8fxMQKJPOWITwglmY6NyLtof/Am1P/RDjHUMI5RQjLn0gmYgaAhcuBaoWAVnZaBuWOEvnwpOdJ/1AbrNgOfwLr0Fesg0dT/wd6h75J/QKUUSWELmsYiS8folD/NGvqJgQN59HiFuiF6lIE1JdQiyP7EOqqRHe3AyMTIxK2iF4fRFE245grP0s4jFzMDhv6wQkX5wCqrBUzsLCwsLCwsLinQLfXwgc/UWR5HSsC5CR1tZWXQ92xx136IjZlJ/Xy1vS5EyOIfAcLi9HRxDH+OgITjd2Ir+gEJlBHyITEUyMTyIyNoGJiQnEOANOBFe/EChPMq4jadt37ITXH0ZhUSFCGSEEQkFkZGYgKyuErIwg2noGMR5NYemSRSgqzEd2ViYywkERikWen5zE2foGTWfBwgWoqqrUaZlHjh3T3BUUFmBgoB+vvPyykrYN125EYUGBrqFj8V9vFVi8SXD6lraL9imjlMDpbwTeeBSBzELkzFqNghU3w1dYIX0wLOQrA57CUmTm5SE7Px9ZlUuRuWgjwmVVCBVXwF9SjUQwR4i7ECoh/N5wAJnlS5E7bwP8WTnCpyQNkq2cImTmhpGVk4vMsjnInrcUvppl8BctkXjmI5Ah6aSEDA73YLizDRmlFUh6Uxg6fVzsRqT/+eGvmA3fwlWIJ4MYaDiDZHcLIl09yJu1Bvk1S+GRvsgXB0m9F3kXuTeV7ZEW7z64/0n19fXYvWc37r33XuTm5qqdhYWFhYXFlYaxsTH84KEfOKaL48oicAznRiFXQ4VEuPbEMDo8hCMnGtDX14/Bvm60t7ejta0dba3NaGw8i0Mn6jA0Hkf5jBkI+lLICngwMjKGXfsOi2Dtx4zyYoQDIYnLpwMd8CbQ1NqDodFJzJ9bg2whdD6PV924HioRTaClqVU3RZm3YK5On+R0Tq6N2/bqdsRjUbS1terI3ObNm9Ut4PMryWPeVXC+QJ1ZvH1ga0yPvZHuc26jmKR/eL1ZQtLmIFC9Bn4haN6sQiHy4tuTEN/Sb8KVQOkKeKqugbdiGZAv5K6gGr7iWUBISJr0HU5b9PhykCyYh1D5Yvgzcs16SPYHSSMVyBO3RUDlegSrVwGF8+DJFb9C3vyZOZovcN3a+BCiQwMIFlXAl1WCRCpLCOFC+GuWIyFhkF2JcEE2MmM96G5sAbJqULz8BiC3WApo+jBH4kwfdEtuYXEVgrfEG+i+lsBZWFhYWFxNuFQCRypzxcGdgkjRmWdbcYeHyPgoQhlZWLpyNVavWY1Vq1eqWrN6GZYsrMHA0AjqW3oR474NIkwXlJbhBiFWm2+8EcWFhRjqG8DpujqcOVuHs3W1OHv6BHr6ujA8Noy6+tPiRnUGp8+cQXdXl+5ayWMMOCMthQD8/gAyheRdK+mtW7YALzz3PI7V1mPZ6mtRXTULfhH2E6moCAzufpYWVx7YqygPUqijEjIvv1wzFvFkYsxfgFhQSJY/DPi9iKcS2gcTQvpjniDiQvLigVykgllIeUNI+MKIiUo45C0l8cUQFHshbv5MJDjyJvEkhVFNin0klYlkIB+pUAHi/izxk42oJxdRiSslfrkeD5IPFM1F4YZ7EKpaBn9BJfLmr4anqBoJSdvrY9pCNvPnInDNB1DzgT9E5W2f0PV6Sb5A4D0jH4/k3RBUC4urAHpr8idppgGbW1X/CywsLCwsLCzOxRXDNcxft1HUTykKtckkhoWg+YKZqKiajYqZM1FRUY7yijLMLOcmJgVC0gqQkZGt/vVPX4TmYCiIwvwcnXKJWAzDvX3o6ehCV2cP9u07hOO1JxDOCGAiMoqBfnHr6Rfy1ouRYUmL0zd9jItr2vxC5JiPOOKREXgT4yjIyUZCyGJb5wD6x6Ii7PMMOC8Ckq6SThIERwixuALgNIeh1yRb0qY87y0VgSfai8DkIPzJmHgTX0LChbbBwy0dOZJFUs4zCMUsTez0U8YmdjSJH21zUSRNEiuTM74cYVS6kvQNUkf6YV8xN59P4uU0YY76amySQDJcgGRepVwLhfyFxM6nJJA0keFJFpNeIYnBSqQK5gB5MyQyH08xlPhYUJZBS2JhceVDH9hU5s4ipif/pvViam2ntrCwsLCwUBnyisD5/8v8Azd/6/z1o69vFOFwBjIzOd2Nh2X7RPCV7FP4jUWEW0XhDwWQ8tGOMSQQjUzg2PHT2ClkLZydg1WrlmDD2sVYvGQFxuMhFJUU4Ybr1mH9+vVYv0bU2lVYv24V5s2dL4KwD4lYVGQL7u9OoSImxG4QW17ZhbqmHtx2y2asWz4Pxw/sxu5du9E3PIrxRApxSVzXH8mXYrkVOK4AkNAonEPWpX28orSbRHuQqHsJI4eeQmCkFT4hdIS6SeNxCpYRJc1RA9S5iqA/NrfRiFKHNF+OvU5p1HPaHHte5EftlPCLSfwpgSNh8wREcSMSh2hKSBOV/IpHjvbxxQL96o6aTj7pRxOcUhYWVyCm7knC1Zs+624uNN2fBfRiu7SFhYWFhYXiiiFw6XD/p43yYXQkiY6eURTl5yA35Ex7k4+rQ5ICcRIBjrRJIDMaEsf42DAGRsdQXD5TCFymEDwRdpMxHDh8HB39EWzasAFVJXk4cegonnruRQyNjSAUDuuRAB6JU4V8ng2WmERPTxeeeeElnO2WcHd8AOs2Xo+bNq/D2iXV2L3tRew/eAwj41FEmTaFcOadkj0LYfH2Q2VEHS8zTRIfA8bagIZXMPLS19D26iOIdDdJX+I5f+nS4rTefBwTrS+k6DiFNIMb0IWr1z4iSsKqFxI9MVCEZS8yOaYyHszorklM/TEsTWpv9BYWbyvYPX8R9D5x+qrqqUSjI3E+p7cb8jbVo13NOcTPwsLCwsLi3YkrjsBN/ZeLQMrMJWIJ1Dd1YnwyhaqKUgS4sYS4c41aMpXQP/TJyZie2ZYp5Is7V1I4SAnp6m1vwkQigpmzKxEKSGzxBOrqm1B7ug6r16/DwgWLEPQGUJ6fjaGuNtQ1tiIiUXIym0jG8Acy4JdcNJw5jR8/+gQ6hyK4/pabUDm7XM9t5pq8azeswarli7F3914cO1aLJEftJG9XXMW+m6EkiRppWe078hMfAUbrkTq1E8m+bhSUViKQXSr+uPW+enbg6s8THGl9IfV64YZ1rhRg01Oc3iBIrlN+2P1dX24EFhavB9qbjDYdF7Ca9ivqQu6v1RXF3UwtFuX45asRnVFBK9qJMuPVzpNU/Ko1/VhYWFhYWLzLcUX9Gzr/26p0vY8I2v19/Th0/CQKysqUwAW9/FsXgiQ559okHnocSfoRF21OZkgIl0DCxYX4dfYOwBcOoKgoF6loBGdOn8UrO49g1ty52LR2GTKDQYyNjEh8MfiDfmzfdRCNHb2IeZJIUSXiCAuRK8zMxpy5i3HbPQ9g2bwq5PqZQ5EpPEHkFpXi9ttvxXuu34iqGTPg94Xg8/q1DCqNWLz9cJtB+guFQ2+Ko6p9QPcB9J89hf5wJTIXXA9v4Sxp05C23bn0ycLiCgK7pts930g3TQ/L0S9VjtmFeZCdCx0pcxQv54c5J15HEWlXkjWSMRI5M5ZMa145OZinGNLM8wy9XAKdBjcSgZJAR5+OC9lZWFhYWFi8g3AFETjzF86vTlSTa3RyEseOHMbg6BBWrFmFDB5VIP/m8XgUkcgYxsdHMTIeQWffKKLRGEryMxH2y1++J4GJsUm0dfehonwGCnLCGBnsxZYtW1B/tlGJ2cm6Wuw9sAc79+zF0TNnkZ1XgCCSOLB7DwYGJySOkMQFDPR2o2+gH4UFeejr7pT8HMHRIwdx6NARHDp6DEeOHcbZs3XIyQhhfHQcZ+paMTYec14uU7qxeGvBfpQGbQdRjrU/OSr6XmCoFqmTL0ofiyB/6WbkzV0pjkHx7rYZA6QrC4srBNqhjfbnuuuFcDF7DSuOOrpldlIlhXJ3geTGTVMciT9qoEYC0k1902TCeMSOSqeeayDCGUsWd706YNI0cQ1nNCbP60gUCXm2c52puiTj8oyX53wsjngiIc/8uPqnMtmW9NJGo8/BhewsLCwsLCzeQbiCCBz/dc0fciqVwKQQtIP796O1vR2bNq5FZVmRHtIdj8XQ3NSEPXv3YK+o7bv24kR9E+bNn4eZZYXwc5qcCAL9QxOIp3yYXVGGgPztZ+cX4NpNm3D7rTcjW8jW8OAAYskE5ixajFXrN2DjdRtx1603whuNoL9nEIFAAAsXzsfS1SuQ8HkwGR1HZLgfowMDGO0fxrCogb5B9A+KfmQEE+MjGB4awvDoGGIicLjChsVbjXOltymTTr1i54oCo42IHdmKsdMnkShZiPDy98JTWKXnvlEoNO3GkOerKxNuXztfWbxD4TauNrRj+EXdk27pHUL1hlApqdKw7usmjVSMxpTQtZWEWZfJnU6NT95P5p7iTAjeNWpD8kZb52riNf5Vx+jFqPGm4vAnJlB38jieeOpZdPX2SXhxTkQwPtiJHz/yCLa8/CoOHtiPV15+Gd3yvI2nzMpQRqLFeE2k+bq0ABYWFhYWFlc8PKnpRTQXRVz+aKfW4KRh186d+Pa3v42vfOUryMrONn6cP+hfFkYE4F+8CAnyB95w5hT2HDyBBctWYdGieQgF/Mys+mjvbEdvb4/4TAlZ80jaOSgrL0dWZoaZHif2IyPjGBgaRmFxEbLCYREMkkiIU5xyg4gAXKfmEYGdh297uPU/10XJd0CInV/IW66Uh/4SQsaSdNP1GcaPCvnUqzRCxSKbbSfEEQE/dztUj8b5ddSHxetAylR0ymkXV2CkUKltI0KjJ94BtG3F0JPfEUI+hPzrfxWBVR+AN7tQQzAKtu3FmkyPtbiSYLrfxWH73jsDac8R9mtaKPmSDms2sKGDuFysfzrh9bEkWh3r4jRxHTHzwivPUT6zUh6OdPFe4WYi+oQFj0fx8p6QZybT4M6ocfUj95aXa5Vj+mxGks9Sk4jJkVmvzPspKYpHXPDIDLqRwPk9MUl3Aj/64dP47mOv4H/8yRexbmkVvIlB7Ny2Hb/7V1/H+z/0MSzM9+J7Dz6ID/76H+DO996CnKCZeqn5Zg65FprlZmLp5U8zP/fsc/jqV7+Kr/371zBz5ky1s7CwsLCwuNLQ3dWN+++93zFdHPIvfCWBf7YUADxCyGbgpttuxYIli+H3cysRTrcxqqS0FIuXLMXyZSuxcsVyzJ9bIyQtCG62nkzxQG0fsnJy5I+6AjkZmfJH71M7nqXlE9LmF4IVCAaFaHFszggYFAUGhwfVPSc7S/Pg8Yq/QAihUBhh8R8KiT4c0vPleFWzuFEFVR9AKMhjDiRSF0Z+sHjLQLJGRRgSxz7Bg609yXFh8N1IHXoC8d52xEpWIDB7LTwZOdKvHPKm4dhoDHnu54psTDdbF1MWVzdMhxQ4GnlWkbCRm/DFUlL0vKrrlN80iJ3pu6Ilc5JOnpCHKDfySYg5yeeiqoTEaaZ+J8UPR7lIBvniiy/FeP8IszJ+ONVR/CVEmXwI6UuIEvtknG5UKT0bM6E0UOLiumB5nvK5yjj8Xj5zuWNUHElfEP6MPKQCAbFJID46iF0vb0F+Tj7Wr16D9968GWuWLsarO3biTHMrBkfGdcq8lp10UOI0Zb9Ah1d7CwsLCwuLdxZ8fyFw9BcF/yQv9Ga3tbUVhw4dwh133IEg16e5fi7wP3opYDB9kyuaAElTOENHyHjosUoKcuX/sW7zT5WWJ33zK6C7u7W6OSfOvKGmEKPTe+gkP+5UH+oZT39/H1544QWcPnUKM8rKkJWVpfYGjoB0SaBPCTcV1uKtgzauEjG2g2kB0xYenu8W7wSadiC+5yn0RjOQseYDyFq4EclAlhA4fUWg/k0sRv0cLmhpYXEZkf6wYX9zzfpM4fPMGHt7e9HR3g6vz6fPX+95z0QDM1LFIGMjY2hpaUNHRxd65Xk3ODyM7u5BjI9HkJMZlGdgJ9raOzEwOCJqGJNCkviSys/7R8gZp4mfOnkKDU3t6Ojqx0Q0jqycMPp62nH6xAm0N3ego61Nj3MheTtx6jSamprR2dmN3r5RBMOZ8Iubn6N2ySgiY4NobjiDnQdqUdvQiYrKGcjN9KC17iy+9Y3voWtwDGGfF+2nj+FI7QkcEPu+gVE01TUiEZ9EUVGe83JPysxyn190wqmP+vp67N69G/feey9yc3PVzsLCwsLC4krD2NgYfvDQDxzTxXHFEDgztceVVMzuY4yPU250ihDjVj/UUsg2iRhrJ5zam6te+BGt+r+IMkiJgNGH7du343htrW6eMmPGDGRmZYofuotfxsxk3CAXxWt6sHiTwJpXJX1GW0yYHD9etltyFIg0IXbgeXQ0tyG06Gbkrb0f3rwyJHgwPP1JA5t++Ata0TavxZsB5xHG/uU+m9wXUXy+qZ06ykPb40NjYyO+8pW/x4MPPoTs7GzMmTNHydY0zMPKfcYlEwk0NjTikUd+hOdfeAbPbXkRTz2zBfsOHMPY6DgWzJmFQ/t34/Gf/ASPP/Y4Hn/iKdSeqceCxUtQWFCo98ZQTwce/sGD+OlTL+HI6SZ4/T4snDMTDacO4ccP/wSPPblVdwyeM7daSCXw6GOPYPvWbdi2bQeefe4VZGXli9tshLiLb2ICTaeP4qHvfwdPv7gDJ8+2oL+rAWN9rdjywk48v+0g1m/YhOuuXYPE6CC27tyF2ZxxsWYdioSAVc0sQ0lJoZmuLrljvVwQTvktgbOwsLCwuBpw1RE4DcPwojiC4hEhRQfVpsgbLR1/50GFm6m0zVXNrl9XOEqHOhs/dA6HwyoItbe34+zZBoQzwqiuqtL1cBTqzVtsM0KjIdz0LK4MsEnk4raK0cuH/ScZkTuiGah9BqOnDmAwUIqKGz6AYOVyJDxB9clty31pzXrR1r2og4XFG4DpsAYpEjYavfrs4TpcH18yyDMwHo+jubUZ/+sv/xL/+d3vob6uHvMXzMM1GzYgIyPDiSAd+pSDX56nWZlhzJ41A6tWLUQ4swBHj7fgv3zsV3DDDRtQXlqM0oICzKkqx9GDe5GXn4+BsTgCuRWYP6caQZ8XWbkZCCQT2HnoDBatvhb33HEryvIzUJoXkMdzENsONWPlNZtw880bMaMwW8hdtaQdQEtrDzIzMzE42K9EMz8/Dz5fAhkhHxbPm4uENxOjkyl8/lffj3xfDE8+sx39Yz7c+cB9+Oh/eT9mlxXh2ImTWLP5Vtx3751YtXg+KspLJQ6uNb7QqGMaHDdL4CwsLCwsrgZcKoFLX611ZUEEb5FdRMkfMDUX+49WT/LDazrON18A7sgdBYCQENDly5fj7rvvRk5Ojk6lbGtrQ0IEJi64N34lE8zHLxIYLN42sIWmm53juUK6lcCNAL2nkDq6RTcuyVp6G7wVK5D0h8jM9UXB9OivaWILi7cU2nndPmh6o67wEgbHdblc79XT140HH/o+fvd3fxcP//BHSkQ+9ZlP4dbbblOCdA5S8minYlwSL99/ZWRlYe7c2Vi5YiGWLFyKGWU1upZ4VnUZAoEU8ksKkQpkyLMwhA/ccR2uX78KW7buR2v/uE6J5HNvyZrVWLp0hfzBRFGUG9JNTMI5Yfi9ccxeMB833XEbiopLhEwGUVVVAY/EVzl/OT72kQ9ifKAdB48ewWgsiWjKj4zcIlQsWILZc+ajqKwSM6sXYWAgggVza7B8SQ2eeeFp/Mu//Ru++Y1v6ovCJ574Gf7fv3wd3/yPB3G89pSSWSVv07euhYWFhYXFuwJXJIHjjmfcA41IeczC94uCTnRP98I/dJqn5aHXhsTBowMWLVqEWbNn4dTp03j22WfR1NRkBCD14kRkBYYrD9o0DmkTHXeLNM0UAyY7kGw4hPGhKCZz5iBn7gZ4M4p00xsfNzcBj30Qks7hDguLtwpud+OV/ZfPFyVxohw3bgwyOTmJ5uZm/PM//wv+5E/+FE8/+TT8Pj9+/w9+H3/xF/8TGzdu1BkQUwRQ2Joekq3xyG/Kh3jCPMN0SE903LQkFk0gEU+IWYgQJhBLTGB/bT3iwRzMq6nGygWzMNLThvrTPDuTwXzIyCnEgvnz0Vx/Bm1dfYhK/iJD49i/9xAqywpRVZYP4ZviN4nR7g4lWlkFJVi9fDFK88OoPVOHnvEJyaLk1xMSf15EonFE4sDQhAebb7sPn/+1j6AiexJZISGH2VnIzStAZkYmcrLDQlpzRJ8naQS0uswMDblaWFhYWFi8i3DFjsA5oohgWnfJcP/Q0//YqU9XhBu1XLkLJScbURC6afNNWLp0Kc7U1eHVV1/F4OCgCEEklE4Ahn8d2bJ4KyAN47QvCVkyNQF0HkD87D50RYLIXXwjMkuqhLlx6iQh7eoIzT//Mc2criwsLj/Mmk3tYMJK+KLIkBNgIhLBY489js985jP4m7/9G4wMjWD5yuX4y7/+S3zyk7+G4uJiBAPO9HUN5CIJryeOZDIm5K8VjU2tmIxFz3n2eXwcffbCT30qhrGBDpyqa8SytTciu3oZquYtxdzqEuzc/go6B0eE5gWFOAWxflkNZoTGsHf3NsRiXhyr60Fj5yDmzZqJwqwMBEgg5XPy2GF0dXZi5YpFCGSFcOPmjWjtHcGZ1iFEhQzqQjnNj9ynyZSQtWzMW7YMM6qrEZK83bb5Rnzyox/Fr3ziV7Fy5Srcc8ut+M2PfwQf/9BdWLxgDvx+ZYpy+xpl7mMLCwsLC4t3Pq5IAmdGT4ykwQ2t3zS4woxcOV2JIjvXVVRVVeKa9dfotEqOwHH9BAWpc8QDN6zFFQSVRFWO8ySj8CdH4ZvoABr2YaK7DcEZ85A1awUCGZna1jqoIAIsBV/2N+13DE9lYjtH2Ta3uKyYev7wqAsSLul/PBJAOlssFkNXVycef/xx/N3f/R12vLodJUUl+Pivfhxf+7d/w6/92q+hoKAAXpIgQsIYEuMaeR5mFLHoOJ55+gX84KFH0d83rANWTCDp9SAqKiFpmhsGaGuox8mTtdi+7xC+/s0H8dBD30db/WGcOLoXHd09mOQRLfKXMbuqAEvn5GPXjq1o6hnGziONCOXMEFI1D9kBHjswhnEhmq/uPakzGbY8/Si++43/g+27d+PkibM4fboFPMPAbE6VgjeZQNAj+ngMo4ODmBwdk/vXi+effg5f+9q/41/++Z+wa9dO/OjRJ/D3//of+Nq3H8bh46cQT8gdzDVwUiStSpbFwsLCwsLiXYArdgTubfszFmHG5/OjpqYGa9aswYAIFC9u2aKbm3A9HGFEBosrD0aAFRFS5EIRCCc7gcadGD95GGP+fBSsvxf+mUuR0tG389pwykiNKOdyjrKwuNxwCBdH0KjlcSgkYgcOHMAf/dEf4U//5E9Re7wWm2++Cf/7K/8bf/TFP8KatWuRk52j5I3ET89l074vaqqv8pVUBPHkOHr7ezE+HhOCGBY/fiFKCYyNDKNvchIp9zy2SBSvvLoP/pAfi5YtQFF5CSpm5GHjkgokJ0dx6GQzhic51TgGX8iHZcsXY2J4ADtf3Y0DQuBKK+Zj9qxK+LwTkv4wTjW14aUDLViz/nrMr65AfuFMVFQuwvyyUpzZtxN9Q8P6AoV5zcgIY3hwGHv3HsTPHnsaDWcaJa9BZGcVoLpyNmaWz0BGZhA5hTkoryrDrFkzkZebqcfL6As+/ldY8mZhYWFh8S7ClUvgpvAW/DE7QhQFIB76zfOUiooKccutt2LdunXo6+/HkSNHMD4hwon4obg0laupsM7V4u0B618FOSDgYftEgKGTiBx+Hu1dYwgu3IzgrGVAOE+8cutxCUCB9+fAlnWVhcVlBLsb+1y6Eku3pyWTCXR2dOD7D34fX/jCF/DDHzyMnu4evOfW9+Cv//qv8cEPfFDIS7XuSEloOImDpE8/8txS6BRGTgoPwe/1o6wsD21tZ3Di5EkMDY6iq2cAL2/dhryCXBTlcx1aFHX1LTjd0ov777sPv/mrH8VnP/5x/Monfg2//YUv4fZbbtLnX193t8mzN4gVazdibnU1fvy976C7ox3Lli1BRphn0QkXHBvByTNNyK1Ygt//3d/Ep3/1E/jEr34Gn/y1T+EPP/cRxLpOo/bwIYwOjKDt5Gls3/qKxN2GQwf26Khadl6erq1bs24t7rr7Ltx66+2YNWcO1l+7Hg/c917cdssNqK6aqWfAaS1oPVpYWFhYWLx7cBUQuLcArgSlb8E5x0gqxudDQX4+rrnmGuTLdc/u3di5YwdGx8Yc704gXig/uHFYvD2Yag4RaHlsQHQIOLsP8bbTSBXOQbBmA7xZBYhzxEIbjJ5to1m8RXCeEWZ9GxW3vzeP36SQFaq6ujr8jz//c3zpj76EvXv2Yf7C+fjCH30Bf/VXf6Vrcv1+rhljDzcf9mSFy1+41aTuPEn4hddkIBDKxR3vvRHXXLsEP/zRQ/iHf/wX/MP//ndMRhP47U88gMq8IHqbG/Cd7/4nXtmxD89s2YUd+2sRi3NzkiG8+OiP8aqQvWefeQoPP/oYeofGJN2gbmaybuVyDLQ3YE51CVatmAe/L45UbAw7X3oZ3/uP7+D08SP46c9e0MPDOUpYf+wYtj7zJGoP7sbX/t8/4hv/+Z/4l4ceR7i4FL/33z6H3/z8r+D+D9yF0qpSROUzONKD3v4u9I2MY2wijpHBEQz29GGwb0D0ko+o1KNTXrsGzsLCwsLi3QSP/PG95r9ePOVs13wedu3ciW9/+9v4yle+gqzsbOOHsb1eufiNhL3MYDb4Hnt0fAw7tm/H1q1btXy33XabkrpA+rl3Fm8zTMfhZDBOHfPHuoHBE0i98C8YqjuJ2OpfRc6GDyFQMEOPDqAvjwShvGth8ZaC/U4+7HrcQIRHlExGJtHd040vf/nLePgHDyMajWLTdRvxx1/6ElYsX47CwkKEQmFdIzdF2gQkRfqU8kpsam2eWsbgTvTmGZ5RDI2O4MTJRnT2DgvHC2LR/LmoqSxFhmcSw70dOHTyLHrGUvCF8jF/bg0WVhUJGRvFySOH0Nw/iglPGAWFBVixdCHyM8PwJ+MY7+tGXX0DMkurMXNWOULeKHzJSdSfqkddywAiSYbJxeJ51SguKkBPS4uQ1DMYj4xjUsJnFhTBn5WHuTU1KMzK1D1NOKbWdPIYvvj7/w0HGzgF81r4IzE0NLfCX1iMGTMqkOULYuXSJfj4f/kQZpSXIOkx55ROvZhxwb825xn93LPP4atf/Sq+9u9fw8yZM9XOwsLCwsLiSkN3Vzfuv/d+x3RxXHkEbgrTf75vOZwyqIAkeeAulE8//TR27dqFlStX4P77H1ChilMtLd4muH1FmRibiYcBiBCXiiE4cRI49FP0vvgTpHKrENr828hedAM8wbCQNraZiHpT4Z2rhcXlhvMcmb4azRTZEPPAwCC++a1v4t+/9u9obWlFfkE+/vALf4gPf+jDSjTol0o3ONGo+GtgRp0kRhI4F/pWgn6cdMSPTwgOR57h8Qud84oSeic/PnWLive4GDIct5ROY+QGj74kNwkhQQxoGK4A1vjEj0+ejZqux4e46BPi6pNfunGKpYSWHJj4uFmJRMMcab4Il26JiyhujUIT16560NlYj6/98z/BX1SCm2+7XchdFgKhEGIpLyYmogh6/ciT/5uy0mL4Q0yRlaDRngvWDxMWWAJnYWFhYXE14FIJ3GVhIPzrvdD/56WDMfDPVv6KJSKj+ENr+aF6q5CWFNeU8C05Nwzg+XAV5RWoq6vHli1bMDw8rMKMm3WLtxjscFQi1OlZgdIGgeQYgvEuoOswcHo3JsKlyFj7AHLnrBTyliGe07efkQDTBou3Eu+Ge8YpH98v6DXtl8+NifEJbHv1VfyPP/8f+P/+7v/Tc95mVs7Us90+++nPoLqqGgGfX0mYIXwMRxo1Dcam/CS9LrmboyYq1EkPb2MYnzzHAnRVSuWX9P0SzisELCnkLOELSRRiQVImZM7nTejmKAm5r5KSAM+M40FwflEB8amvQOTZSCqXlLg4mZPPyZSkERcfCUlSN1fRcMwPdMOSmPjkNigSO3On4Zgez/0k2VOP8i2rrMYf/vc/wx/83h9i49r1WLx4CebNmYdFc+dgzbJFWLpkHqqqyoTUcZqoif+iSK8bCwsLCwuLdwguC4HT/0+VJN4I+IfOD3WMS8UE+X2L/4HdYpiM6E8g4MfK5Stw1113IScnRxf082iBJLexpqcLFf0tzva7DVPNw8oXxq9NkBgFRs8C+56XSz28Zcvgn3c9kFUo3vimnsKoeGfAN9xfLV43WPVvVfW/HfchO5hTPj1Q2yFeJG7cqCQWjeH555/Db/3Wb+Lb3/w2+vv6cc89d+Mf/vEf8JlPfxo5ebmSbdIbEiNG5DwZz++zNKtyzAoaHKX+OcJlqsGY5C7glEPa0JLKcSG8SvaczUG4OQpHrEXLqJgXjVJA4mbIG90Yp2pMWuqPgRjG/MXwl2NyTNc82Qn64YYshqCy3vTj9yOrqAjhjJA4sR5MXZhfc1VFopo++ujCRK7QfLi4gFcLCwsLC4urEebf9Q3jcv0zGkHced/s6MTmrf7jNZlQ5coCPr8PS5cuwaaNGzEZiWDfvn1oaWlFPE4Sd14WTdYt3gxI3bJ6jVAqOk+c/M3oU2NA51GMtDVjJKsK4Xkb4M2v0JEEfesvAh/92rZ5m8EGpCLc65uFt6OtSRpYLulviVRCt/snMWJWeK7kN775dfz5n/85GuoadaOSL/7RF/AP//APuPO970WhEBedmu1EQapyOarIVINL5Rincy+4CU25ORcTwNjID8mnUY6duCcZlCTK3IBiReJm/lLUnyiOxE1BLOhdI6C7XuTXJVl6odlcCOPC33N1U/e86zEdxuuFXCwsLCwsLN4RuEwE7o1CiJruJqYigE6p8Yrgwz/pBN9g8x/5bf43pmDCnSnnL1iAufPm4cSJE3j22WfQ3mHOh2P2HLnBwEoPbxpYtVRGuOW6mwg8SSFvw01IHn4Zw+OTiFWuRN7cZfAHM6Tt2IPi4p/KEG7bPm8DnIbjiJSOSlHCd+0vJ5x0CD5PdKrzWwVJStPjw0AeYO4nHo9hz969+OM//mN8+ct/idraE7jltlt0+uQf//GXUFVdrc+XKTCON5Jv92HERyfrWwnatCXvHDOh0RAsHU0TZ/okOHLm+jZkaXokjw4c2fLqfSV6IZx8PlLPUTodNdQwJmw6zrG7YPGcgIRcjZYaY3AuBqo5LwELCwsLC4t3Aa4IAueRf2VOcOPJRVxIb97IUrjgrxmPM//WU3/dF0Ca+y/y5uJS/LhQv5I/ydeM0lK85z3vQWlJKU6fOaNrV5JJEX6kDBSCCH3rzCL8MmlYXAAXrsBp+Y9HEPuF7E/AE+0CWo8j0d6CSLgYoQXXwldQIZ7NJgdGWDXxuVcLB6yON7NKpuI2LeGu69J1U1P3yuXOgCEXpBXuNL43FU7+WT6mxw+RSCbQ29eDLS+/iP/+J/8dT/zsSUQiEdx9z9344y/9EW688QY9pkSnJ071bEL0+hy8DJga9iKcOGk3pdLN087TcPKiyrFS0JMo50Kl4aiIc/wKaHbt0vXnw3VLd7+YnYWFhYWFxbsQVwCBo9gi//jxKPp7utHa1oGJaEzEbcoBZo8y8z99/r/3eVChwXF3vaULE+fjF0R1PswbaFHy4/cHMKemBsuWL9OpTjt37sSx48cQi3I3N+eN9JTgdbHELc7BRdvpAo3kWHGsIiCGAHXJODDWg1jdKYxMBpG7cCNy560V7pblyNXsYxTl3Y/FOdBOa7S/EOe1kRvMDXrRKM5zcJv7rSDSmoJ0gksZhUvvGW65pmzSg5+vd8zatxwixmcXyVt7Wxv+7M/+DL/xuV/Hjm07MGt2Nf727/5Wd0Rcu3YdQuGw8iKNYjr5ywsd8jo/ctfOtU/Tp1v/QjgeXf/pysLCwsLCwuJNw1tP4ERSOfftrpAeEa5i4+PYvWMXnn9xK/r0sFhmjYTImbijQoEjHVAYO18g07fsjuTguql36tP8OsY0m0uHk7zf78f69etVdXR0KInjUQOUxEgUpuHk592M86p/2oLtzubRH6Non2Z0rVy4Wk8qqedFebmDHcnbcBNSBx5BX0MthoqWoHDZjQjmFIp/rj2SNtDpuWZbcwntKAeaxnkJvRvh1kP6lXCvhFNtbu1NeTfGc7xeGNMEhx9tend0bOqlx+WCPDkkAd0NkaZLiD+dUFLnKkV68KkKEOXqJX43PDfaGBwcwo9//GN84QtfxPe/9yAmJ6P45Gc+ib/7u7/DR//LR1FRUYFgICjB3RkGginNZcblrloLCwsLCwuLtxXpbOPNhSOcGBGawrv+GtlCJHWfN4nY5ARGxyJIqJvZs0z3DhRBbEqoZwgKfRQEGadjp1MYaaSdIySaRB0lDvoxkahgf45cQ28XgwZxfIueI28zZszATZtvwuJFi9Fw9iyOHjuGyMSEOJsttTW+cxJ4l4J14NYD68QdDdCr46yNRnWu96TTznRis3mNFzFwXST7xCQw2QV01yJ6ZhcmREjOXXEbvKXz4fOFJR75aNw8ZsAPX8onyol9uvOYNKZSfZfArcupKpBf3jeq5O7glS4XqBY36OuuMpOUTiVsa2tFe1u7XNvQ3t5+mVQb2kQx3s7OTvQP9CMej7/u7F4ULAc/cnWnTPI5NCHPgW984xv4wh98AY/+5FH4fX586b9/CX/7N3+LO++8E9nZWTpl8vzpo+eQzMueWQsLCwsLC4t3CkS+daSHX4DXPsj7H5Cdk20sGVu6V0dApJTDq4dnAwkSIlBTlvZ64vAmJpEcH8YTT7+E+r443v+B+1Femi9id0L9MyQ3OWFO9fwhxiXCj08UD5NVe7Ezh9WKPsFzjrxCCnm4c1zdSRhJ8BIiuHPqnVfMCQ3PyXj0kJ7pnwddxZfj1Zii0Rh27tyBxx57DP5AAPfee6+OyoVCIZNnE+Jc0OoXJ/WOQXrplS8ppgvPGqIv52hhaSvTFjQnpI7Z8hSLeW6V8cvRDWlHD0fWxF98ABg6jdSOH2DoyCvoL16FGQ/8GTJLq00baRDGY+g6N8chgU962AfN1FzpReLNL3rzokADvdPbh8VkGVmvcp+wdrhbIkesWG88HsPnbqhBMw+0F/jk3lM/oif54oHPCic+hiVRqqurMyPSbjoO6M7HDeNJSJwHDx7UeycWixl3UQzyRpGWpL5sqZ41Cx/+0Id0rRnBTTd4SL9mT/JE/3l5eZg9u0aPDFF39gX9pvR+DgZ5OLUBQ2idSEB3fZ2emyb10VDfgJ8++hP801f/CaNjY5g1qxqf/vRn8OlPfQrZuTkSoVMp8k3xTAtqJQ8mMxqVxWUC21DXWcpHD/L+p6/ia1+zB3lbWFhYWFy5uNSDvN90AkfBnUa1SibkTzWhIyWRmAhQQp4yMkLI9CWQGO/Hz558CQ19CXxACNzM0lwRrZOIxyYRmYwhGqfg7UMwIxOBUAABEZj8SQp+ZuRtTATKSfEDXwCZGRnI0MEbblyRQJTpTcQRk/CeUBA5QRHIpDwU4bTwyi4uQXpSz4yXgmhShVke6P3SSy9h7969yMzMxCc/+UmdHqVbgRNu1OlJXCw5J/7XRHo8LtLjc+3Pt7tQmm8ifq44ZOzpmZB690o9UnFULU4CJ84+6W+GwJGo0ay0TYOQ3pGsk+R5Iq1A/dMYf+lRdI5MoviGTyBj/YfhD2WZ4jpdm5RDP2qZlH7A+Ejr2HcCovyaDl8KaK7f4np6w3ArOj3frh1B+3SzC8e/oTByL0h90VsyIbRWCBxJCd0GBgeUsJF4uWB/P9vQoERIN+/Rr7kfnnryKQwNDU3Fm5aQGvnSJZGIY3JyEom4aVcD+r0cMOkxPxTgJ6OTyM7K0vVmBPPl3PkKmguLCnH9DdejpKREy8660OzKddGixVi5coXZJZL5l/5HQsdnXiAg/UfqgMT1+eeew//5P/8XBw8cVPOvferX8OEPfxgb1l8Df5CvjUwFmG6pEelFYbJscRnBtrMEzsLCwsLiasIVQ+AITn3z8I13PIru7k7sO3QIvUMjQsgCqJ67GOuWL0S2ZxRPPPE8mvoT+OD77kF5SSZSQt6azp7FvqO1GIokIJI5yspnYs2q1SjOFRKGKJL0I4LkodrT6JuICcErwNo1azC3qhghbxwTInwePHQYdc2dmEAIJZWzcN01ayV8pmTTEdgvkOeLwvFL767gyqMEHnroIR11WLd2Ha67/joUFxdfsM7ejWCVnQvWixGQSd5IpoiEHiBs7DgqpmSNH09cbI2gT+qmhC4xDgzWAju+gbbDRzG+4A5UXv9B+MuXIOVlPJyEy7hEbNY1cBKDJKgjcPIx+53yhQJHgr1K9ijW69rLd0OzsbzSP9mFdddU5zEwNj6u0xD5WKBin37hhRfQ2Ng4JQxHhXgdEJLCKYo6iuRCqi4jIwN5ubnOWWZpRIkXp15zc3Jx2223obKqUomQW91pMV0WGAHegwbJOwX4oeEh48Cu5DQzi01ixToYGhrExFhEvaSjenY1Vq5aqXkluSUBrampwR23346CgkJEo1Ecrz2uZ7t1dXShfGY57r/vPnz+858XslCJgN9vyLA+D1jnmug5dWJx+WHa3xI4CwsLC4urB1cUgVNjPIamU6fx7IsvYkQEwJAIelFK1OF83HrDNVhWlYcnn9oiBC6FD7/vbswoDGG0vxtbXnoFrT39iHl9iMYTGBmPYdmK9bhz8zXIy4yi8cRJvLB1D4YmJuEJZUpiOSJczcZ7N69AIjKCHVt3ofZEHSRBJIPiHsrG5uuuwfKFc6RMRsAzUtzPl+8cuOUSv+7GCxQMOAFtfGJMSOIhvPLKKyrw8piBzZs3O1Mp04OasCrUXkqavwzcRIh0vYsL2b0VYFGddKeEeQdmgiTtSJ4o7BsbEuskiZfUjycVE3NMvEyTOCQnhWl0IHXqZaR2/BB9nnxk3fE7yJy7WgJniHBuiKApMGkcR/Y4IdeR2p2cMD1CU2bbqB0tnAxfbWDmnaxPlSXNzgVHjHgYPY+/IKlxpzxy6uTuPXuwe/duJHhAvdTJ0PAwztafVeLigu0ys3omKikIs41EkbAFAwFd47V06VL4hLRMPTOmMkJ4kJWVqWcpcsT6XLfLCKYt+WcZOSrY0tqCsdFROkhq0tZu3hywfEePHcVzzz2HcSGx+lhknxB/Z07Xoaenx2TTCcaNjDg9Mjc/T808TqSzrRMVlULeHngAd999N1avXIUMKSPTI7FlHWm6bjxp8Zm05NnAdIlzs2fxOsC6tATOwsLCwuJqwhVB4FwZhQJjR0sLnn76GcQRwPU33IjSkgK1HxgbR1G2H6WZKfzs6W04O+DFBx+4GxWFYYxHJtApBaHwEwp5lJA9/+o+1PfE8fH73oMFpcCzL+zEybYRbNx0DaoqyhAT2T4Zj0v4FDq6OvHDR19B9ax52LRhHYLhoMQZQUbQi9LiIhH0RbBPmxZ2yTi/jGKOTEZQW1uLJ594Erl5uboejm/pXbh1QYHCjHhA39xPSjgdyVM/51WcC8daIX7pP0sEw1CIU8LoMW2kw0F6EINzIz3XtwMT1WWFoUUmhzS53c1Ha+4gSfNU32K9CHEQYm02eBABLOEQNyHJ6kaVGAJ6jyH26uOIdDYjvOpW+Ne9X7ibtCmn0SoN9CLBKbPBILyhoJBIkji/xMtalvQkTbXTMgsNFzczDkiYPBo3o73ioFmUHymHWcPmjPC49lpG0ck9pvUrRKaru1unLXZ1deHVV7dhZGQU9fX1OHzosOmH4qejs0MIVpZZAyfRhDPCWLdunb4U4f3KvscXE9esX4/58+fr2k/XL5OZWTETvoB/eg3d+RB/Xq94fAuhfY7t7fS9C0LKPiHPm46OTu179Ov6PnrkCPbvP6DHAjDnrOe6M3U4fPgIxsalXwo4EjkyMqJ6TqHmeruly5di4cKFanfzzTdjRukMqbsgioqKdOolCRvXzXFEj3Hyc859TK1bVel6i0sC29ASOAsLCwuLqwlvE4FzopKLjlLJlTaxWBS79hzAnr0HsPnGzVi2bAlCwekDlgPJCaTGe/HY09tR1+/Dh953F6pLMiXdlBCuSQz296H2yH6MdDWhfXASA/4SfPCuW7B8dg4O7D+Ol3Yfk/g8WL1qORYvXYusjBDC3nH0dHXgsWdfFYG1D/PnzsKGa69FQWERsoXIeUge/AHKbcysZvvnoG5Gez7S5SqFaMYnxvG9730Px48fx8IFC3Hf/fepsMAq5hoi7lLprqNJijBYV1ePhoazKjjzo6OBF4E2k7jzSuF48eLFmFVdrenzzT5HTzIySXTDKmjTjoI93TV2CTfVho6ebgpqLp70LwmJzHwlTjNRkVHrmjWSDHGhG48AkEYXMiaKaxk5zzYu7HtchOCUmD1CPOgzIXbd7Yg21cEbG9fQ/uQIPCP1SHU2CXHJgL9qMeK5ZRK/kAmHwKWEkE0IWQvMKEegZoEwEfbPgMQbFOcMSEVJ+5NkiPJlylXqzROQ2DlKJzlmNFonJIM0UL1N0KTlJ71/OEbTLUytkkS4WafgGpX7jmSNo20tLS14+OGH0S0krrGxSUfVSB7i8Tgys/gyIOQcj7EOd99zj5rZp/KEiKxYsQK5ublT6904JVCnPrKPSToMR3BdG89JZF7MLotimZblKxqSVxI0997h1WTdrNfj/etWOIs1ODCI2hO1GBgYUF8kZM8//zxeefllHb3kBiajQpBpz/gWLFyAipkVKJD6fOCBB5TY8cVUaWkpAqxLiVvbUR9I0o4SRhNKrz/T2I7B4rXAZ54lcBYWFhYWVxPevhE4Sh0SpZkORGGY22pH8OJWIWd1zbj/njtRXV3hCCYUl4WQpCaQHBMC99Q21AuB++gH7kRFoR+dba3YvmsfxriJiZAjRMfROxrDUKAYH37gHqycXYLk5ARqa4/h0JHDGJmMIhbIxdr1G7FucY1ujtLb14kdO7ajXSpkNOpHUdls3HrT9Sgvzpc/d82twfnCkov02nHdz/PLN+ckZBRuKSj/7PHH0dLaqkLazTfdpIRr165dOg2LU8tcMtXX14fhoeFpmewShDN9Sy/hCwrykZOTM50VCVtVWYWVK1ciGDICYV5uHkLhkElPvCh5vBi0nPJzCXk4H9PVIemoQSOjhjZiTfLGCYwkbRxFo5v8RIeQHO5GKjombTEKT+thxE/uhSdKoit9h8KsN4nE2CAiQ30SnpvSeMQqibBPxDK/lM0XVhLCKbqceskUSRy5u2g0IWQjIwf+3EKJR4iF2EeErMWyK5CzeC1SBUKufXnwhgvgzcyRcEJEvFwTR0IiMYl/sVA9vy5MmRxDmv3bAicfZtRIrlJnXT1d6OrsxP79+/GDH/5Q+x2nSHZ3disp473K9WdhIRDLly/HRz/6UV2zSaJRXFQkpGKG9lmOFPt0l1a+cCChJqT0rBeWm2nr1UxVZPi3vT5eD1hv8mEZtdy8SllYn/rcc9xdMsB73edM09XdO5266e3tVcJMf319vfjBD36AgwcP6Uj72bNnMT42rvGVlpXK/VsgZK4AH/vYR7Fy1Sp9GcMNVFi3HKGcquPzwUwpxPFqrOu3EHzuWQJnYWFhYXE14a0ncNkOgVPhXQQaIW/xOIU9CZ+IYdfu3Tiw/5AQmvdgyZIlQjIMkdE3+ogiMdqDR5/ZjrMDPnz8fbeiLDOCZ5/fgc6BCdz8nhtEsBQhOz6JLdt3Y+fJDjxw951YO1/+iBOTkga39J9Ad28Xnn7lEPqGI/jY++9AdZmEEbdEPIqRsSEcPd6Il3ecwLLli/CemzciW8iN7jx4QUHJCG0kTK7zdEVRR6pATyndTp1T03iWFUlZS3Mzjh49qkItRyf8fp9um+5OZ6PAxzfz1SK0lZeXq9kQM1dIvgDc+pf0mLquuREh3bWjuxnBE8WL2C1ctFBJHQXrqqoqPbuOdU4hlUTSBe1MOUlapks5hQtYueDIGj2QivPcNkNuJCaJ08vdHj1ReBKjwGS/ELZBUQNA61kgMgKM9WPszElMjo0i4EvCmxAiJ32FhM8cFOBBTMoUEEE3VF4JhLKkbEIoPBxJCyDmzRD3EPypKIKxYclHVPMiBWbWpONFgOEBRNtbEBeiL9lSUqYjbRJPXNKI+0LIKq5AdtUcpMK5SOZVwDdzASRRUULqvGFRQaGOZrMTQkmiKhes8DcJTEai1z4idTF1H4o99XoPiRt3fdy5ayeOSb/buXMX9u3dh9HREUSkX7L92fbcZTFXSD9H1O58750IBkM6RTIrO0tH1SSqqbRoIOFnnyBhoZMSNNeTW2Qx+rTdeden9V9aXFVwMsz6ndKaQup9wQ/L7hTdrNaUuqc964sQ/yQM9M/RPK6lGx8bw5ionz35hE5XHRwYwD4h1jw7MhaLIyszS0czN163EZs2bcLCBQtw/fU36DRsPjtcAuKCaWs+VDd9US+u3kLBerIEzsLCwsLiasLbMwKnI25cSZQUIjOIgweOoaSkEEuXLkJ7W5OuD/N4wrj11ttRIuQqLoJPT/cQ8jIDmFEQwk+f3obG/hQ+9sCtKAmM4KEfP4fxVEj8C4EryER7Uz1e2X0IbaN+fOju27G8Kh8nzzYglJuPwuyAbj//yr467BGi+Csfuh152WGMDCdQUVaMRGwEw+NJfO9Hz6JsZgXuu+8Occ/UHQ8N6fzF0KlNUgWsBfrm9DOSNgpnJ2prhby1o/5svY58UPDKEkLL3fgmJ6PIECF51erVetaUIWsUhn2YPXuWTlEjVEi8BALH5qKO65k6OjqMMEc7Ea67u7p0HR5HpEiMuase3/ozvwvmz9dzrtiOc+fOwZy5c3WaHAUcUyJDDjR+vbJeJCVxMrTlQmBeTHtz1Iq0i8TNw+mRsXFx4/ogjpzKtfU0kmf2wDvRhmj9IcSGeiW0FwEhTf7sYox7s+GrWoRwpZCnUK5ETbIgMftDQN4M+GfMRtSXBb/UGyeHKtzG0Cs1xpBgmaSefSkSuA4kO4UwTgphpL2QRE+kG7H6I/AMtcMr/SI1LHnh6K3EHyuZB+/sNUDJfGTWrIKvQIhjkCROBEGv5EUII48xIDRJp440D28SSAnYnvywbUxfMdNyu7u7cKauTqfubtu2TTfS4IiPx+dBYWEhNm7aiI0bN2LevHnYfP1mhDKCStwCuq29gSmH0StoJsTOpGasNH1HT0zpNQJBel2416sBphCq1TLwor+8CuF37kvHSYur94gb5rXKKu7xeExUQtts7949OHz4MHbv2o3DR49gMjKpo6McdS4pLcHtd9yOD37wg1i8aBGKS0qU4AV8zqiw5IWkUVvFTfO10n+XgveIJXAWFhYWFlcT3lYCl0rGcOzYSTz88GOomTMLH/nw+5GV6RGh5SC2PL8dkckkcgqy5Q/Wi4zMYly/YR0WzCnFz555CS39cXz4vttQkevBS6/uxks79yIkAkxJQS6ywz70jU5iGFm4/9YbsbA8Cy+8vBUnG1oQ9HPdisjrUb8Iq/Nx182r0d3Wgpde2oW4CLRebwrDki7JwQ3XXY/lyxYiFOBoDotPAc2Rgox0xuIZwVmFJfKBpI6icV0LNyvoH+hXssQpU02NjRgZHcXcOXNRVFykxGhOTQ3KyssRk7Q5VY079um6IREoGJ+mKsJYOoEy10uD+nTz6gQbGR1Bp5C6mBA4xntWCCVHBUnoOiWfJHxhyRsFez3batVKPR+rsKgImRmZwm/cuEgURPCR/Clh0C7C/F0IJG/G3cu1a1TxUSDSDww2AWNtSJw+gHh9LYa7WsR3DLnFM5BRWI64kDYUV8E/a6FOZfQUz0OqUIQrvxAmjuJJs/CsQI66ccSM6+l4LABFMubRKfYUjEjNiZZcXynRSFqeVFS8OtM2GY9ugiLksvsMMNos/LINqDskV44ORjDW04O+oSGEMnOQO2MWPIWVCMy7Bt7qtfDklEs+M7ngCTyTkCmYenH6j6ZxsXr6JSF1bqJjeQ1hZX/hyA7XtDU2NekUvX379ukW/41nG/XFQWV1pU7P406oq1et0oPlq6tmSUTsx0aYZUb1tnfzqgmZ6xQxcexIFKYeEelFc8Ok40J2Vyuc+nGLozWQXj7XIq29qZu6VdL9Ej9nTumGKQcOHtCXQNu2bsPOnTtQX3dWCfiMslKsWLES11xzDd5753vlfl2EzFCmjoJy2ibjsiTuF8MSOAsLCwuLqw1v0xRKChSUuuPo7R0QEleH/PwcLFmyQEgYp1RGhOy04aiQu0g0Bn8gA1VVC7Bs8RyEgwkcEvu+EWDD6iXIz/JgaKQbp+rOCBHpht8TxLJFc5EMhNHQM4zVS+ahojCA3vY2HDxyAr0jEaTErbyyCquWLEFBpk/k8QmcPHoEdfVNSHgD8IYzsWLNalSUlCCTZEoIi75dVwIicIQ2VxgiafN7/Ygn4hgdG0WTCM3cfe6M5Ilv0ifGJ3QkY8GCBSo0z507V3ef43S07JwcJXLTIqDAjV8ScN/sa3JOepcMxz/jNvE7YrlExI8KLckURsdHdQSO+e8VYtLU3KybLnDbeBJLbuPOw425bm72rFmYWVmph6BzdNA0t4mb3/TsMR3X3WRF+kdqTCpMVCwCtNcCTTsRaziAJEfapK6iyQBCNUuRKJoLb7H0h8rlSAoZSoaz4cnKlUj8Qs5IvqReREglzfVJOhx5Yj1x2icraro+mfKFIHmS8nPAlOfFKdljECFcHCvUULQSO9JzJIbhGWwz58qN9iLewpG5Rng6TiLaLf0mGUckNAPBqrUIzNkI/+zV8OYVSl/KlnQyJIagRCQRSt6msvYmgO3JzYCOHD2KJ372M7z44ks4cuSwHoTNkdxNztmDN1x/PWbNnq1TZ/WelDyxNk0PMUjXT4FWrzf/bnSvFf6NpPF24VLLlo4LldOJhy9FSMJ4/7uIxWPo6e3B6dOn8cwzz+hGM3t279FnDV/6rFm7BjfffJOenbdmzVqzxlXCaZSvJ3/vElgCZ2FhYWFxteFtGoETS909MCkCpwfRKAV9j5A3ngnFEEkkEyKIcoofjSJUe0XpZoASLibCaCLlQzBA+4RkLq4CaiIhAo/8EQfFY0zSiIgwG/IDIU9UBPAU4kxLhP+4+PF76SbhJQGuf0smJoXAkASYHQZDoQALrelxKtxU6VUiYn7NiJhai5nr2E6dPoXDhw4JkWxAT083wkJ6qoXwcFpihQgDXF/EkS2SIW5+wMhMec+tM03CxCx6I8BJClN25/tPR3ozmaiNXxKa6TgZn3MV/9RzXZySICGjnPLJzSxI4rh+juv02tvahBjEUF5RgXlCQJcsWSqEYLaujSKUMJFopsWueZF4WY/cLARc4xZrBXqOAKd2IXXmIAbb6nWNmrd4PooWrgOKKuEpnwvkVgDBQqSCBRKbEC2JMcnRIYnSxxFciT/BkUBxJQFjn9HdKyUdJksK55RQlPtrbDRv1LFuxMHExjhYF2Zq5ZR/R0N3njWnSSYmpHMNAdEeoPcMMNgMtJ3G5NmjmOjvgCeUjewF12Jy9iaEl94Eb3aZxJchkZgRPzPtlDqTm4uCBdF8GuOFQMKmwr4QV66x6unt1U1J/v7v/x57d+/FxMQE5s6fi/e97306SrNmzRoUFxUrAXd3hzTl1tgkKdY164LJpid8sfwyfXHTfnYJZboUONFcpth+OTBRwk34tTLxy/q/FEh98l5k27jPU/5qK8mXo6ujo2N6NAHXMj751FM67bylqUVfFK2/Zj1+97/9Lm65+T3IkuetIYLT979e3mge30Fg/7UEzsLCwsLiasLbQ+AUjE4Ud4xwRGiaKWiYGIy4QaGdV+4eTwcjWho7/prQQsQkHmOiN7qqSC/5ofjPqXHGVjic2NMn7ZkWWaGYOd1IXYytR0hCypsQG6bIeDmyIzrRcookCQ/LyvUqPOS4QUjb1m1bcerkKS3j/HnzsHTpMh11MyNYZvt1hnFzeS5M2U3uTSmp52eqtKZYBvRKs3slRO82k4ldfo1G4HiUL/OgcdKry1AcuLljGZngRCSC4aEhHdHhsQechucXslAqZHTJ4sXYuGkTSrgzIYVNDSm1yLBOOTmlkUcxeJIDQnTqgI4jSB1/GeO1uxBLJJAqXYTgwpsQWPAe+EqFuGVkC88R8qzVLvkUxVyZFmM7sb1N3DpSJhYkbqQd6SSM7UhbDf5zEEtOvdQwJk61kgvDJrV+6G7Sma4ialg2CtjGjUcb+DgVdFiIaede4MTzSDUdxkhvN0aLlyFrxXuRvWgTvCUL4AkXCznk+jjmUwvIGEy0jvaCYJteuCAKdREvrUKy//Iv/xJbXtyC9tZ2nQJ71z134Z577sENN9ygu43SL3eMnO7XBuZFAevOfIzLxdNMB/07GhPkYuVx7OnE2nNCOZgOpPGlx+F6TI/TdXfdiHT/6X4vhPQ6/UXxv8lgEnrLiuace9fJmzst1tSxcXezxjqMxmI6tfLV7a/isccew5bnpe2lH1RUVghpfz8+9+ufw5yaOfAH5NnDwIzXjcBCYQmchYWFhcXVhkslcL6/EDj6i4JC4YUIXGtrKw4dOoQ77rhDp/VMQ0QQ8a9BHOVqCV7J79RuykDCRRmE4jtFeQom8ufLeNTFgHp3t0WuoVN3CvsaxvxZ86M+KIyLu460MQkqCrhyNSKTCFF0EBg3A45ItbW34/nnnsOuXTsxKESH565xM4gbb7xRNwPhFMlgSMibj6MdzKNLDtLhmiRHIkxMpzEtqjGMqQtjdi8ELy4FNoFNeVz7KY80idaUKS0PqknPlRmZ4Sghp2aRgFaUl6sgyKmfJHcdUm6u6xsX4ZFnVIVDYejBy5Ku5lUSMX0hIeR6UgjOCSR3/xCR7T/GeGcTvDMWI3Pt+5C19gPwL70VvqIaJMOZQprZOmwj7mxoqJohcW4ZTT5pQ1LPtqOLth0/Qo6U9NMsZZgurehMBRoztdSLog/Ns6ZAq2mT8eIEUpg0PKrEH0dSfULKwkKO8quA8sXwlM1GMCOM8GAbko2HMNDZCm+G9IPCmdJ9SeAYD39M3hROGaftJF7NrxZSzI690w8Z3NSDaMTuzJk6/Nmf/ike/P5DOh12xcoV+PJffhmf/OQnsWrVKjPllSRbg7tpsJyMh/eDE6+AZgPjz20H6tyQ077T8+XYTuVXYpXLVP3pRX40CFvrPDhOVMynvrShieFooQ7Gytirg1GuPbVsF2rT6soJpHbqph6nrB07J4I0S7de9FedHTfjeA7UT7r7OTD26qxBmQP5qDVfGpjRWZMGvya81tJUVEZjWkNyK05+nx8Z4QwdFb/22mt1vSrPeWw424hXXnkZHZ2dumMlj3xgfekz0Y3PScuCVWMqgjuA7t6zG/fee6+eaWhhYWFhYXElgi9vf/DQDxzTxXH5CZwr8Kl3ShJGGSHKXFU3FZ3YSdwUwFRIZ1oiyvhSIvg40VBwM/E4Zo3DjMsYSUnCONPvzIYadFVRWaGpir07MqN2SgKYAIUfQ/yoH5+YwNatW7Fjxw7UnTmDEiExt992mxK3BfMXICcnV8kPRztIOXWESMIxZsZHIYy2TC0uinRU88f6kzzyamqAV+PPFeqMm8BkxfHBqxHQ1BeJoGNHv1ROSbS+aMOpo3RlHDQ7NaVhTA4dUVHc/cGAnifHc8Hmz5+PoqJiJXA87Jk7akajk5gxoww+7oLHPEhdkc95ucPjZBew+yGkDjyOSe6wV7oUuTd/Cv5V9yBVsgjxgJAfX1Drl2OgzKlbQ5pzHbGiljaiNMOsK2pdX1ISkfhNWWlnCCDDMF6NRqzprvVlGKa680M9R96o5fiUXNQv7U0vcpW0FDfgkfAJrWNpXb5UoPJnw5NZBhTWwFO9HD5PFIG+JgSGOzDa34lUTjmC+SJI61lz3CWT6Zs0nNTSruKq2aFZPRmlF/kRK+1PQqabW5rxl3/1v/CTR36CzLxc/OEX/xBf+OIXsXHjdfoCge3Oe4YvPaaomvZ/Y2LvoZ32D2d6p1tmwu2zpBi0MzE48cgv63nq3jBWUyAZVzj3G5UZG6U3xmH6iq5HFFvmUMsuXtmCwpClrk0cmh/NCq+Mi0iL30lXp+zKlfey+2zgr94lYnBLrc8AR5n80DPzw8CMn/5NaLe/0deUb/UuJo3D2dVU3AxJnK4fguWjjjvgckQ6Ls+thPQB82yISX+McQYyotzwRvsG0zNlmo7H1FciIW5eU9/8aN2LM0n6gnkLcOMNm5FfmI89+/bi0P5DGBwexIoVy/U8OfaZqSK5VwutF8ISOAsLCwuLqwFvH4FT0K+oqSDGzA+vFKFMdNRROV7lx/gwApbaibuGMA7nwjGbi2swAtb5du6FcRuBT5SY6UJhyeTOo+Tt6SefQl9/n+4ceeedd2LFypU6WsWNNKbrgSJsEomxAdTXncHp1g509fboQd7NzV2iHwZCYfjDQfglCAU6FQIlPEkCR5JIX6bEQcbr5Ie5ZJ58Wgcmh0aAlLZIJDSfDMVpo9P1JL5Ew1iZL3pm3CqSSjgSQJ7nFU9K6Tm6RP/arnKV/PBcuuxsIXKVlcjIyERrWys62lvQ0tosgX2YWTETAS5WTHGX0Ql4B48Ce76N/n0vYNRfgNwNH0H2LZ+Dt2Ip4v4cyZtfN0NhAmaVn/mQtNFGS88dKwUeEWxZKv2yPMwT7ZlNnkEmaZozyIRsiCXFYArFWqYpYmIoAoV8HeljPIycKWlEtNdYtd7MiCjbQsLRXZSO6DJ2bnij2eEP3dh6fiRJ5IIiLJfNh6dqPgLxQcSbatEn90EwswD+fCF5gQxNw01/uv0M3FzxrmJJlE+IVSLBnUNN3+BIaGNTI/78z/8HfvTwjxDIzMCf/q8v43d/87dQUTZT8id1K4F8Es6MWEv/0oOl5U5lubSkLA9zPZ2eRC9wzcyZUjSpM7YH68PkVXMrP1yHR9Ji+o74kUqhq4nB/E73uageHdHbeFZHiVrbe9HW1oXmtm609Y4gKXUaDgUQlHZk3WoicjX1bCY/80tyZ3Y/ZQmZtqSobczymvTNyK24OS9tWAOsbx4JohsTyYcJ0JVty3hMW4udXsVB7Jh3vQfUZOJSCJEy9UVXftj+zIvEp/G6dUB7xs96iuL0kUP46rd/DK/0hfLifAS8MXgSg/jWNx/EM7vqUDOnBnlZPMOQvV0zITD5Yh55rArLr13OOIliosZ3UJ4lixYu0mnb+/ftx8EDB9HT3a2jsrl5ec494oSzULDdCUvgLCwsLCyuBlwBBM69pOnTlQga6VFSb95wU8MvBSsKNq6g44BhVBk3ap0AoiTMVByunXpwtOeKX/SjH7lSSOzo6tQ1J/39/XrINsu1YOFCZ2MSejfhjLAnEKFtvKcZjzz2BL78j/+Ow0dPoEsIT93xw9i/81XUC6krKq9EUU4OApJfIyI65REpLS55pahoomWFJEkTkNJz3EgkmDvxwSBChhKUOFWKpF9HQNX8i04iMWKnuKnAa4TOFIkBXcRPEgEdHeCIFMP6JD3JhQTl2JSQFgnrF3E4v7AYmbnFGOjrxaAQ2Za2TlRUVaGksFDCTMLLTT7ObDHTJoMzELrmYwhz1C1nlkSaoW3gp7DMvIgwTMHSCOUUeY1gzCJ7dKMaMYsfH/NAZmUc5IeFFnKV4CgGw0j+SFxYtiTtTNuxIDriIvbaugwmgjA3n1FyJ2m7G9OYlhd/Yu8TPxTmmQyDsA40RgrTJCuSF/OJA/EEeaToJR4SpUAOPNlFQEEWgtEhJOsPIDoygHD5InEqFo9S1xK12WWUcTIB/hBu2QytVRJAP1pmkgQvGhoa8b/+6n/h4R/8CIUlxfijv/j/4dd/7ZPI9Qd1oxfm1MtD8iW4VxKiYjxKYVlHEgengvrY7DFx4/nmSXETpaNiUnckbt6ExBEX+wTrR+zFq9qLnSr1LzVGZybBupMr0zX9WNyYd7FHUuppfBivPP0k/vc/fwNPbdur5OL0yeM4dHCPrrPMyChAaUkRgswYYpIPklauH+XolFd5U8oTV2LKnCQlTr508PqCej+odUIaQsggezU/2lYebkJj6oOtzJ4gtvRNH3rV/qF+SNilb7CNxJVHTmipWSccRaM/id+Mlpv4WLcsLU16bzF2Ca/p07+YI2Pj+MY3vo2mvhHceustmFGYrQfMIzWJseE4vvvDp1BeXY5ZNZXwSyWSbuvUX8mffiRPevC93iu8F+gk+dX6Zb+gHw9C8pxdumSJnjN54sQJ7N69W59XPJw9P8+cKTkFw1Q13LsVbtktgbOwsLCwuBrw9hI4I5f8Yqg7RZPp33MvjuE1VTrEfCFr1yK9DK5WrtQODw/jxS1bcODgQZSUlOrIG9e9cYMSIxBTkJsGBUS+dQ9mJDGjsgbH6vtw51334zMf/wBuvH41blizEM++uAf1zUPYsHIhMignioDIjQiaW1rR0d2HsUgcRXnZWrfMA8cSJkeH0HS2Ab2DYwiHMxAO+dHcUI8zjS06ihHKzBJCScEugURkAs31jWgQt3YRlj0Bn06JpEjJA68Rj6lYPzoyjNN1jWjq7EGnCJj+UCaywtyNUwhUfBxNjc3oGhhDXlYmYqODaGjrQlgIXGVFGbo62tHd1y/tm4GKsjJk+ibgGTyD+NFXMdLVi0jFNSjY8H74CyqkBD709w5iZGAQWZLv6NgoOts70NXTq6MLnApG4ZWCL4VT1mJ0bAQDXV0YGhjFyHgcmZlh+HxG7NYRkOgEBqVsvZK/lCeIcNCD0YFedLS060YzgbCQGvUvoriYByRP3Iad5/RFhbwGwyGJxycEWupYyAHJH3d1HBY/3R1d6B8a1vpiXSvBE4I6OtiLns4BBALSp6V+WAeDAyMI+MOSHs+AY6eRNDPzpc4DCDQfRGKoD8nCGgTLagC/64ftakYNDe1S6uUo6k3fIlTUFoE7MhnBT3/6KL75jW8KaUziC3/0RXzuk59GATeBEXNM8jHcPciQOiIcHx7DSP8QhM/BnxGSqxm5ZQraZ4cmkeoZQHI0gvEJId+sX76QkDpISdnj0s+iQ1FMTEThDfslV0JWBicQ7xvCxNAoxuJRpMSeLxNIrNhshgibsTjdzIapkchI/ysqK8TZgShKF63Fb37uE7h18zXYvGkZju3bj72HG4V8LEVhrvj3xtHX046muiZ0dQ1gcCSC7Lw8KZNWh+Y/Oin9u1n6bXsXUr4wMoMhDPX1oLbuLEbl3snmJkLccVbaNSn5bG3twJmGZrR2dutGOmF5JjGXPAqExJz9LR6N4OzZM2hu60Cr3IMpfwhZGWElVF65H/q629HW2iVkM0ePCWloMPkLBsJ6CDrXchqiK/UrUXIHU0g/e3XnUXzn4Sdx/wN3YuP6ZZIvUj96DCIvrxCHXn0Fx04dx5pNG5EjfS3A/qM1yfYXPcuAiK6/7eoaQWQiAs5a9kv5zLNXSsKXCxKOU7gXLlrE2HFg3wGcOXNGN1VauHABAjweRfsdIb/8avh3J9yyWwJnYWFhYXE14G0kcJRqeL0EoYEylfpz/LpB1F5wCVFcOtLSSI9X0orGovo2e+/efSguKcY9d9+NxSIgUYCnsM+jDrQONKAZN6Hi6IzXE5NfP3YePIX58xdg7bJ5Qo48yCrMRVtXFHWtfbj52qXwC/F57pkX8J3vPagk8dDB/di/ZwfGo0kUl1ciJMQrICSks7keP3n4h3j0sWdE4I6ip7sDD/34x9i2cxeOnazH7DkLUJongnpkCFte2o6fPPOStMFBnKg9hp27duH4idMoLa9CSV4OfKlxDAwO4yePP4unnn0BR44cw+FD+9DS0ozSilnIzc4Q0jOCJx5/Eg//+Gm0iADMuF7e8hx2vfoSJhMBLFq+HsNCyNqaGkVgDqFqphCmpm0YOrwb/Z5cFK+/B+GqlUJkMoQvRlG7awd2PPssxiTdluZWHD56FK1NDWhrPKuEpLC4FH4PR2wm0d/ajqeffE4PfW9saEDDmZMY6B9EXmGR1gdHRGKjAzi6fze2vbINvd29UkdJHD1wEEcPHhZBvBEZObkoKsiCNzGOzsZW7N19BGdOnUZrcxPqTp/GmdP18Ek7FuRLfYiQnJA8Nhw/iVe3bxehrg6NdWfQ1d6GsAjsuTk5Smjb6k/hhSefQZfkr7OzC8cOH8YZKUdjSxvySioRyAoLmSYFExIcCsCX6EGiownjMT8yyqvhzSmQziEkWvrIUH+/tPM+HDi0HydOHcPJUydx8uQJnDp9HHUiVJ461aAjiwUF+XL1ol3I4ne+8x/SPw5hw6YN+IP/9vuorpgp0QlFHRzCLiEJT3/zR+g5JSSmvRPPPvRjbH3iBZw42STkqRr5BTnS16SfRmIYqW3Elm/9EE//4KfY9eI27H15H8a6IygskfrNzUDrC7vw+L89iBee2on9h05iRvUMFOXl4shPn8bj33oEO7bsw/G6BlTOq0ZeLuuPfd7t/RxB5KgdGZdDGLmpjSeCw6daEciZgc3rVyA/MyD3QxLjw6M41jSMZUuXoLTQj8N7t+Nb//F96bP7cejAEezevUuIdxcK5P7j4fKcdjzSJ+V7/GE89tPH0S4kanR0FD976km8sHUH9h08grLSEpTPKBKOPYjDB/bj0aeexx4hNEePHcXOPfuxa98RFEh5KkoLleSNjY3ihRdexCOPP4W9++X+O3QYp4UM5ucVo1TqP+CLYd+Ol/H97/8Ep+rapY1OY9vLL2P7iy/jbP1ZlM2qRq7E5xPmRtplJm9OIBYZxn8+8gLaRoBP/cqHMbOkQNLjKJ88NzxBSBdBrL8Fz7zwCuauuh7lUv8ZUpl6NIbEovUp+YvJvbhn9z783d/+M7Zt24rqWTMxo3SGtj1fAWiNy3OY02R5lAnPnjx0+JD047PMjG6yxB1KCX0xwPZ6F5M3whI4CwsLC4urCW8jgVOpwdG/BtK9XUh/idG8MaT0jK2dO3ago7NDD8tduWqVjrwRZsqZzmdSM6EznwTcpIBC3HgkhRe370NpSQnyRVob6e9Gk5CRJ17Zi+q5Ndi0ei7OHNqNJ1/ej2VrN+Hmm6/HmhWLUFOWh60iZPZO+DF3dhWyRWoN+hKYUVSIU2da8OyWrRienMQ1127EhvVrJcEAyoWcleZl4ey+7fjqN76LigVLsXzJAlRVzBDC1C4Erg7XrN8oQmsBJgfb8b0fPoLm4Tiuv+FGbFyzHEtmF4kwehpbD55FedUclBZlIjczCwf2HsGTz7+CZevW486bVmNuaRiPv3IAxbOXoaa0CI1CPoqLCzG33AP/oUcx3t2DZM1GFK+5Fd7cUqc+ksj1RHFWBOit+46jTMjm0pXLsWCuEICgRwhMA6LeLBQL4UoOdWHX9gO6pmyFpFkzdxYqSrIw2N2J+uY+EVzLkREWWuCNCQHwIjoRESK0H71C8GZWVWPZilXIFEE/lJWNQqmP8aFePPXoz6Q1MrBowXzMkLwGEh4hcfVCbMpQWVECXzKCE/tEcD/egJk1c7B46QLMqSqHNzqJQ0dOwxfKQVFhNrLDQcnfkKR3AKH8cqxbsxI11YU4fbYFrYMxSb8SGUIwU5yuGPDBkysSen8vhjo6kJVXAn/FAs7clC6TQGRoGAeEwDUJae7p70Nvbx/6+npV9fYOYqBvXI9umFk+Q0fGmoV4fv/7D6JT6uFzn/sc3nPzzQgHQ3ITiqgfSyLe1IP65/fg1KFaTIogXyykOjflw96dp9HXO4n5S2ZJffkxuqcOT//Td9HXPYyZFeUoys5GiScPZ8X+bGsTZtdUI9gfwalnd+LI4SZUz16AnFAYsbYOZIxM4Nj24zh+vAs1K5di8drFIvRmCilgK5O8EaRyJCA6zqTTUj2pCGLRYew5VIfBcQ9mSx+MDA+iU8r0jPRlf24RNl+3GrHBFjz6kydQUrUQt91+O1avXomF86tQe/QQmrsGMWfeImRnBOReiKG8ICxErh8/e/pFtEmdVS+cj+uvvwmF+fnIzslAdXkZBprP4mv/8m+IeEPYsGGd9NES9I1M4pX9tViyYA4WzilHYnIMzz31DF49eAarNm7GxmvXY8Wi+UhMDAuZ3438ojKUFUvbB5OorevAg488g6qqMtx+00asXjBbCOMBtMt9vmDhPOT45Vmnw28s8wQ62xrxnz96FjPnL8e9t29CFvuG1IlZ5yr3i9wTUSF5Tz27HSWzlmLdinnSf9hBWJvOw0TiisUnsG//YTz88OMYkGfIOrnna2pm60irjnfqc1WIn16FxGVk6HmAO3buEFLpxa3y7CqTvu6O6lpIbTn/RZbAWVhYWFhcDXjrCVyQQo3j8PNeLw76vZD/XyaON4BoNIrjtbW66+ScOXPAc7WyhNAwAyqE6bQlJzPn5NW8E6evyGQCTz3/Ivbs2oVTtUexRwT/XfuOoWr+InzgvveiLDeFH/zHf6BrPIC1mzYj6InBL2SiKCeEus4hPLVtP265fp2YwwiERCifUYjjJzsxMBrDpz7zSVx/3bWYK4LcogULUFiYh7AnLkJhCl3DEzoVrLu1Ubf/D2YX4K57H8C61csRFjJ4dN8uPPPCNnz0Vz+N9WtXoVoE+eqZRagWAvLMtmNCdrxYuUCIo5CguvpWZBcU47O/8SksmFOKmvmVOFjXg57RJG6XvPV1NGNkfBRL8iIIdezG4EAUOWseQHj2Snj8PPRb6ikRQyjgwdm6s4hkFuPWB96HmlkzUVCQK2UqRizmFVJQj1nlheg/cxRHjpzAvGWrkZedJeRqEvlhj5CVTDzz4j6UiGBeXl4Mrwi6mdkZGJ/w4ExDD9Zu3IS1125AsRCy4ooy5BYXwS9pcnRoMpYQEjMgpKhHiEs3JkYjWLp8NRavXCbCrh8TfZ3YtW0X5ixdjzUb1usOowWF+ZgheWvv6EVDUytmz61ATkEBYqMJjEYSuO6WWzBrXgUKS7MxJvHV13UKIZ0tQmCWCug6CpscRqKxFiOdLciZOQfeymVSJ+woE1IuruOCTg8sFqI2Y0apHvxOVVY2C6XFs3W9ZUG+9Dlp0+6ebjz15JMYHh7Bpz79KSxdvFQP85ZOKHEGUFg9C57GPrQMD+POX/8kNnz4Diy+/lr4e0I4teMUlq2fjYIMH3b866N48bGX4M/JlLSz4UtJTx2P4fTxU3jpyEHkSb2tuHMjAuMJ9HQM4P13fQBNu45h2w8ewebbb0H30CiipSX4yG9/DCXV+UreXF5A0uFJ+dXCTBV1CBwiiMdGsGNXLZ5+YSeaz54WErxbCMZB5ApBuv9992BeZTG2Pf2YEObjWL/xemRlZSKRiCqh4TTm57YfRPW8JaiSNgkK6c8Vst/VOYxjZ/tw7wc/hPvvuRMLpf6XLpgn/aPMHPov/a5/cAgd/QNSlhZ0NTcgihBuvONe3CqEMU/479HaOnz/0eex+ZZb8d7bbsZsuQdqKkuwdFE1Duw7grq2YaxYOg95uT40to9gNB7EZz77CaxeNRc1swvQ0taKw43DWLtqudynmVoPeuREKopmIQc/eGQLFq+4Bjdes9Rs9sPmF8Vnpy8Vw8RQP7bLM6Fg5lysX7MUGQHzgoiYer54g8jNK0CVlGuD9M9169fp8R7sZSRlZjMX45X9ISOYIf2lB088+QSKCotw7333oKy0jE70oN7e7bAEzsLCwsLiasKlErjL96r2apQXhKHxQOvODiFLAwMoE6E6NyvHcRTwJTsFADI5ls8wOlEUqSjEUlAza1N83gCWLV2EG2+6Hptuvg0f+Pjn8ImPfQw1FSVIDQ+gqb4Re/fsw7e+8XV89zvfxX9+70H869e/g4P7D0C4hU6XTHHDDCqRlrk/4+p167Bs4Vx9o+/3CpEJBYSYSfoi0OdWzsMnPv4J3P2em7HpmmuxYsUqROMJ7Nu/D71CXuLRGM429yAnOx8lQpBCXp+O8HiFBJQWFyM/I4C+rjZExB+3TvH6/Fg8rxqluQFdY6crdFJxTEaGUVSaj5yyYrT192FyaEQFTfgCCIbCTv0kzaik7lLJ7PlRWTMLOfk5kp7pYt5wpk7vGh/oR3xyEj3dPbq+ae/OV/Dy809i+8sv4dlnX8bL2/fCz/Vzkr7QHzYAhNVK2TwoLhOhe94CBDLCSElZfKGQZCOAhJTNn5GDDUK+r9m4FvMXzcOcBfOFNBSgvbtThPthiS2AkYEhTMbjyMnN0103uTaOm8MEMsPIE5IzONSHkZEhLUsklkJBSSmyijKFOEmb+FIIBf1IxaIAN1aRgvpT3AJDWorroESYT0r5E37xI+UnnWG99A304tktz+KRR3+Kn/70MVWPPvqoXnk8wGOPP4qGhgbzokBi1YPWpcxj42M6jXJwuF/cOFUvgSSvXHMmpMVXWgTf3DL484X05/iRK2Xwj04iFZH8jYyhd2AYuULAIpLXE2fqcbD2BI611CF/dj423XA9MgtK4MkKIHNBPqLeEdTu3o5IWzc8o8DxV/bhuOQpf345cssypDxsX6kDKY95ZSH1po8ONjrzzRuDo9Q0Sk1Lnc6fO1faYhPW3bAZt7/vI/j05z6PVQtqIFWI06fqcbruNL7//W/j29/6Fh6Ue+E7ck+8uG0rJqWIkXgSCakDPWYgyX4QxMxFa7F02SrkZ7Ive3UENBz0iZ8kMoqr8MFf+wzuvedubFi/HmvlvskOB3D6yAF0d7QqyWzpHUPEkyUkukIIlt/ZGTaBDG8SxQX5uiaVI+ncd9Lj80j/rcaMilL46dFDgim+I0npP+YuZam50Qn3+Ywn/UJCOdLGKaV0Y12oD+cBy/qRe0riklZUQs8NTJJinZR+k0qyH0n/kgA1lbPxMbmvP/bxX0F1ZbXci2b0TT/aRxiribJX+lZtba3co5y6Kl8ybE3fwZTGwsLCwsLC4p0EI1+8YYikcFUKC0YgIkdwjwiIJbgDpCOMUlZKLxfN4sd8CEpiMfEiFCgjDxuu34z3P3A/Hrj/Lmy+YT1KCnNEMIvDlxHC4iWLsHbjRnzqN34Dn/v1X8dnPvtZ/MbnP48/+e//HX/153+KOTPLdOdD3fJPBFgv14CJEGoOrqaI7BFhTvLpSSA6PoTdr76I2roGIYu34P4PfAAf+ciH8F/uvxt1J45iy6tbERVhn9MDxyYi6Bt3BTzm16sbgkSEyHDqnk+ImArdQjpYB7rBCAV07sIn+dCjDEQlxS3pFXLiF9ImiuusRjvOIDU2oGtyKJQacHOVcXQ1NWF8aFTsuWsgy5TA2OiEkLpC+MMZKJxRjpmz5mPttTfi9nvvweY7bsXNd70Xd73vPnz6s7+KpUvnS3klUkacSHG1GXKDQQQlXY4GOXsxkj/Dl0jq9vUnjhxHec1irL7uRqzbfCM233aT+Ihj7/7DGJ2IIyuvQMs7MDKOqMRphpVSSEQndX1UjgjyPErBI3llXVMYFx6ndc9+oFvqS1koKLO4cRGuuZMoYqMiXEcx7g1hwpvh7FjJERYhrUIuPvKRX8Hv/PZ/w+/8zu+o+u3fFvVbvP4mfvO3Po3lyxfonUghnRvoLFm2VIxePPr4YzhTXydVwN0MuRbT1GMkMqbrCX3kdUlpPyEWqclhye+oEMAEUqFMIaQZyAp48eH3fxh//g//iL/46v/Dn/7D/8Fvffq/YuPy1Zg7a44QCp+Q82LMLyrBvm0vIZqfwrrbN6N2/2kM9Y2ioqYSwbCQRUlXpxJrqaW8onhbcE0WPwTbgn2G56LxJcGKVWtwj/THBx64D3fefiPKSvLMtGTp4yuXLMf8hSvxoU/+V3z2v/42Pvu5z+Kzv/5JfOlLX8Rf/eVfYPWqRUqieK85O3nIPRQ2/YjdQcpt0p4UQjWKA4f3YefuA1ixfB3uf98HcP+H34+PffS/ID4ygeeeeg6joxGUF+ShMCx9v69PN3phaaQjS30FMSzEd2Z1BTIymCT7vChJISDJm6MKpI5ZPunbTFVvU764YRzSLjk5mcgvLsaQ3GsJYWU+6Ve6w6nWFcmuEPKJUXR2dcMXDHEmtNQTSbFTd7wmJex4Jw7ufRVf+dcH8cQLO4XET7BTODXO+5C5Ni9XeKzD6dOn8dOf/ATxaBzLli/TNXH6QkVh4rawsLCwsLB454FSyRsGRQUVZq46iLAjX77ZjsdIxETcEqH8nDUkRnpKg4jzInAZEVZUJCrC7gB6RLW0tKOtox093V0iZE8oP9Dt/IXc3Xzn3ZLOJI4fPoAiEfYqKqpQUTVbwvbjuZ/9TDcK4T7qqbEJjPQNiqDZib7+bhU4e3p6MTwyokIrqcPE6BB+8J/fwe/9wR/iyS3bcLa9Ex0dHWiuOwOvSLdlFTPhD/qxfPUSEZTn4eGfPYnTZxvQ19OFlqYWfPc/fyDCYwLr161ARiiA8dFh9Pf3YXBoCDFuZ0gJdSyKYcnb6NAgRkRA5HRLHjSc9GXAO2sxMgKTSNQ+CXQfgzc2roKv9gEJmiHEoenUcWx/eQva21sxMTKMtrp6HDt2DItWLFVht3r5SlTPX4z6s01ICFvKLy1BkZAXjozt2b8bbc318CeFeE5GkBwbx/jwsORlACODAxgeHBKhfAwpIZgBCuPxSbQcPYLv/Ns38MrLu6SckmeuM+tql3obQn5hkRC3ILKLK7B4xUocOXIAJ06exuDgICLi7+TevbpGbeXa1cjj9CrpCwMDfUJ0+4TYTUip/EhOxHQEb0TqY0jSTiRiCCZG4Y/2Ae0nMNzaBH/RLGRULBACQAk9JOGyEcoo0jVdS5ctw7IptVwE7uVCUsV+6Rwpd57WG0dnSkpKsPmmm/Rw9dMnTuHhH/0IQ8Mj0pGEuYyM4dQTT2Hryy/h9Clx+95PMX62HSeefAbbtj+N5tEm/Oy5pzEghHTtfe9BRkkGHvrJj/Cvf/+P+Pb/+Sd87+//D74pRO6h730HR47uEV6cQM6MQhRUlqBuuAXJudmYf/NqjExG4Qv4UF1TroRVjypwCIn5iE76jzmDTsca1Y0qIW3V09uF7p4OdHX1o0/68qTcI+6RDVSrr70WuYWl2HWgFoGMHLkXKjCzslrT2vbSi2hraJZ+LH1uchSj0i87u7qkPbp1g5v+vmG5DmFCyJLuopqM4eVXXsbv/94X8aOHH8fZhla0dMp92N6ma+fKZ85GUJjZyqWzcfOqedi9bSsOHzmpRxx0tXTipz9+Du3d/bhx4yrkZUn+hTT19fVIOj0YGR6XrkC2mMKQpEm78fFJHTnTomiRU3I/F6KktFA3QhoakT6rdURKK2RO+qfcVOhqbtFD8WfPminPGEOGdTROfOtbCEQx2NuKf/l//4p/+Lt/wZETTZiUcPTBKDRGpuekPTI6gkceeQQnT54S4pmB2269DaVyD7mgHwsLCwsLC4t3Ji7rGrgpPz/v9QpFSmSrODo7O9HY2IiS4hIsXLBQysLxHimESE78aLkoEWm5SN5oVkqDkd4efPehH2H7/sPobm/GkQMHUN/UjKq585AvZIAHKXOqHklESWEudgipefaZ5/HSS1vx8ouv4PDxWhHul2D18gXiM4ZXXnwR//r1b4n9CYmvFYf37cHLW19BW1cv5tXM1qlhXLfXK2SCoxOnz5zCrl27sW3HbjR3DuCuu+/De268HhlC4PzhbMyqmYMD+3biiZ89iq3btmPL9r3CJwvxqV/9GBbProAvOo7//M/v4oVtr6KhvQv+jEzMr5iB5598Gi+9ul9I5DCGx4aFsIjALumuWbIIuXPnwN9ej1DfWUxEA/DNWARvZjaSFPZF+K8/fRpZZeXIyA7j4K6dOHTgKE7Xt6B6znysWrsKISmDV4jaDBE4uzuasXvXqzhy+AiOHjyOI8dPITO/BIsWzBUSE0CPEKstzz6P40dPivAcQVNzIw4fO4KTZ+tRWFSA/OxsqbcUIiLQphAUkjeGE8cO4vjxozjT2K4k8ZoN65GTFQLP2JpRVobY+LDk61WcOHwIhw4eRe/gBK657mY98y8kxOTMscN48WWp854+xKTtambORF9LK3a8uhv9oxFMCsmfNasCWZ4ReIZOI3X4CfQ0tyK47D7kL70F3lCOTvFkv+EOghTQmbZYyNeMZqmbo/gCgWSA0wHZzYqKikR4j+LIocPYs3s3YskJrFm1GhkeP47t2ivlkrRKxY/EvXLhHNQfOYgzTQ0Il+QjkhXE4rUrMfPaxZi3agl6+7txXNx7etrRNdAJFGfg7k9+CNfdeSMyCzKkC0l/6h1D/9gQlt6xScKuUKKfUVWAdXdsRE5ephAr3gOGoJOWKN/wcAMfoR8sA58PSe4YOoRHf/IoXt6+B63tHag9dlzUCZRJX5hRUmReaEhcoewsVFZVSb4O4alHfyL3wkvY8uJW7D1wDEWlFbhmjdm9svbQHvzTv3wDO/cdRnt7O05Lu+zZ8aqQtEbMXzBfyHaWjjh2CwHzy73Q0dmGHdwFdecuIVNnsOGaa3D3PXcqGQ4E/Jg1uxJdbe14Wu4F3mfPv7QNXSMRvO9DH8K6lUt0bekrz7+Anzz5vNxLnULeIlgwuxon9u7Go088i7a+UV2PuGLJPITleadja1IZYen74xMJ7NixHbOqZwpJq0SAR1sIueQmJ0NCYr/14E8xmgrgk5/5JEpzM4UECn2TsKRynHALae/j+w/gX7/1Iyy6/g785uc/iYribD12gx9++ZOIJ9De0Ya//pu/wTf+/RtilcJvfP7X8b4H3oeCwkI2x7k43/wugz67BXYNnIWFhYXF1YBLXQPnEeHxNV/WxnnA7c9JBsCunTvx7W9/G3//la8gm4I0/UwRnasAkldORWpta8XPfvYz9PX24YMf/AB4xhLfkuuUJbd6WCZ9FU4h1imihI1FxnCmoQVDkQTiJDnxGMI5uaiePQcFOZk6kY7TsfRAaCF8HW0daGrpkbhF/EuK8JeXjZp5c5DN+Voi8LW1tqGtvVOnoTH9aMyMfuXkF2ChCJOZQa+kE8ewEBaueesQYjcipEICIK+wGHOqq5DFnRFZOBGWeVhyjwjkZxubORAgmQmiRgjYjMJ8+IWseBNRnDpzBgNjMUwmhOCUlKKmogh9Igz3DkxwAiiOnjqN3UIkN61ejffdeTOyciSiAw8ituWbGM6ci+ybPoPQ/FVAKBep0Uk8+chjCJZVYN3GTejp7NJ6DoYyUTKjDJlZZt2cThtLRTExOozOjg4hiEL+PNzZMYiimZXIyvAigEkhZmN6Xls8LuZgWIlNjFNcgz7dxCIvgxvOCBGfiCAp9UGS1z/QK31W/PizUF5ZiWySNyEg5pD3FBITY5JmG8bHxqVuA8grKNYNRnw8uysVEYG7G4ND44gmDQmeWVqMhJC+vv4hEbqlRUNBlBaHEZ6oQ/LQzzC0+0lM5Faj4L1fRHj2OiGy5iw+9hKf5IMrn8yOhBeGoUAkSebG4ZTUgb5+/PO//gv++Z/+HyYmRvHZT/8q/vh3v4h8qePJ0RiS0j8QCqEwNwPRYekDQlzjTDcjiIIZRciUK+sl2jOM8YFh7atxIQ0IBpAvZMqfGUaCZ4xJH+S5b/2Snj8/W+oiD5H2fiGuKWTOyIcvQOLJ4zLY/Zk/nqkmFw9PB9fJw6LngexCSKSDNZ1txOBYROrOh4lYQto9AzWzqlEk8fq9Zmoi7yP2y6GhQdQJsY9xOquUnWsqZ8+dJ/dNBrxJIZW9PXJvtSORkr7hC0gf4Bl+CXnW5GOe+MvMlv4i98zw0AgmJ2MYkOvggLSR+snRTYkyM83umXzZwunOI8PDOFN3FuPin+cKlklfq6yq0NmZgWQUHc0NaOkZ1KnCGRmZmFM1E5GBLnR1D+havAx5zs2ePVMIHA++l2yTdEvZB3q68Zdf/mt4ckrw+3/we3qUgF/IG5KjOHjoDP7s776G973vXnz4/XchQ9qNfSEhFckVbgGJY3J4CN8RQvbY81vxX//kL3DjpvXIlKpV0iv1pQd8S1s1NzfL8/bv8d3/+K7uQHnfA/fhK3//FVTLfc/+o48obSxmTtS7GHx26+Yv8nnu2efw1X/6Kr72ta9h5syZjg8LCwsLC4srC91d3bj/3vsd08VxWQjcV4TAZV1NBE7lRTPyQUxGJ3UXyq2vvCJ/7pW48647UVFOoY6bSgjJESHACcQK0zDUU3AzoxAiluqufPRFAZUVIO70L2aug+MufaRyaq8fim4SvxOGQpxX4mYYjYi2kq4hAiQW3OhAdExOBGaRvCUsxWGfuNGPyIoSjCSF+5wwhaQIzCYm5tnkW3mTpstwFL+5XYoIkxSSxU7rRfKrG2YIgWlp7sDjTz2B06fP4LZbbscdt90kwusk0LkT2P4fGD59CvGShch7zyfgq9mE0fYh/OThn8Cfm4frb3kP8orzRdDOlrr0S31xKh6FaZMRoRSizKiOrmmTvHFiXlw0HulzZpdPQ4G1IOLGUtCfTzUss9ix/NpGGto4sH51kxlTcm0H0TAltntS6jABTu0LSnxsO3EUAV8os9QB4xSCJG5JrVvW96TEKP6EmCAxIp2mDdj/IEb3PofOWA5KrvswctfcA09mkcQjqXF9FcmOlsGMrJmcEFqYKbC7uC6EdgGxrK09jj/+0pfw8osvCV/14Tc+/Sn83u/8Pipm10gM4kmyFpcPpzL6k16pAm5fT7LIvsZaNeCsWE4QpllKJeTI9MWE5pEkgeSW/dbUFwmnVICEIKnkr/RCJQUcfWMMEqHH9BvGyum4ZjplQN0pMtMlLkFYevphkTidUKcU0pX1r3EzjJSGfVrbTlqI0Wu5JH8kzExf+gPbSEvB9uJV7Eke9cpK1NLxOg2aVOmNwzj4QoQt6pcYJK9y0/AeTLAOxJaxeqUezARIlkIDa56o2N+0f4o1V4zyCcC4/ULUXnz2Sfzoub34yCc+iw0rFiHslb4UH8K/ffuHONwyjN/93KewsLJEqplpGmLBX97bickojh2sxUQ8jqVrlwsBz9S1hzyHkoQ+LvbtbW3493//uh7yPjIygoWLF+LP/uzP8MB99+sB/grNsODcanhXwhI4CwsLC4urDZdK4N6lUyhFyknLIzdXyAiF0dHZiTqORg0M6FokTr3iSJz6dcqmgjOVE15FORESaK8ujrOCTupDxDy1IwWjhlIWRUX1IF9DYVTkFrORwYw7w03TOCMMm8hEMOEoHn1RYKeVCLEmJ6o15IbuSnDokxfGIr+MQ5S6k8yxDGKlaYjgE43F0NLSgqeefkLq5DQWLlyEa6+9FgVFRcJXRegOZUIqCcGRNsTrdiHa2yYyfQx1R4+ipbUbw1HgdEsnvBnZKK8o05JzOhjzYbJi0mcOKC4bO+bX5I2bYbCM0yVyQpmL+lGRW53c0ISpNyr3hQI3i1A3MWtcepWU5OrVOqMV65CkmEFI6IQMkdCQdHgi4m8MUkgg0gx07EPq0BOI7X0CkwkfMq/7FPLWvU/XOjL/GqEDLY9cmaNpnGsiQUgHR17phS9FVq9ahVBmJo4dPoode/fixe2vomd4ALlF+Toa5ONUPZbH2a2Qwr5O0dSPyQiJPfuDVr+blvgxvYr2JGBSfjIUzZtTAIeoaFza10wfoaVOqNR0aC/hGC8v4od9VGKjN02Tbx1MMDdf6jLVxgpayY9SGrXnKKZP8m5CTuWbHtXd2BszL25cNBDGv0mLGtOvmC9TKlMe9c+2V1pH32IvVkyXvkxoo2PuTV1qLqkxblwUJ3VYXlGO2fOXoXxmFXKzQvLsEOtkAuHcIqzbtBmzK8sQFH8MpXmQYMwBa9MbCKFsZjWqZ1XrdE+NWfIwPj6OhrNn8eD3v4//KY/qLS9sQTwWx+d/8/P40h9/Cdddfx0ywuZYA4WTJQsD9z/JTqG0sLCwsLga8LacAzfl54oXICSDaXlkvjPCGbp1e1NTM/r7+zE4ODRF4owoR8F4OpwrHpJ8uJauzpXrHHHUkc9paQRG6gyMR8e7/JhYiaRDzrjVuRHyHKiwaYRkXpUeqB3jMPHzS/Jm7Nz0pn/VRspCH0rcHDsKlZxmNxmNor6uAS+9/JK0cQsyM7Nw8y03Y+GiuUoYOOLo9WcJYSmBJ78Qvsgw4o0HEW/aj3BiGMtWLcPidddi9uIVqBSBNMPvFRJEwdWtQyqm7pSdoyPipgRE88XROE4/FFqrrENzOuWfPzr6KH6NWG0og6lt48+td42fUwDZhx03Js8ra5gxqD+1ZA7oh6NAdOHUwYhU77jcUT1C3E4AJ15GYv8TGDuzH/2+MoTXfxS5a+9BKrtU2p2tRbouZEqiMzVMZaDJXgjnOZjseRAMBHT92NrVa1FQWoSR0VEc2X8Qu3fvwh4RRgeHB5Gfn6ejNcFQSNKUEmp78sNyaETOVfJBcic6QxDNuCCJEUeVldooiRU3HYFSn/JhLRmyM11HKWcEiWkYvyZVgm0otS3K1CRpmIlBU1dPvFLjmF07UfSj/vTKfuy60dbYKzS8apzLeWZC+42JjU8xmo0pLbdyMSNvbDUxpPySJumskCopA32ZnMgvnWnDOhMbLZc4kfzz+AdPOAvFRaXIyRTyRr8M5vehsKQUBTnZCHs5kihEkXXs1JtG5FzZftxYhlajI6M4cfIEHnrwIfzjP/6j7jbZ3NiC4uJi/Nbv/BZ+53d/Bwvnm/W6zJWmRWh8Fi5Mn7UEzsLCwsLi6oAlcK8F5lGUm2evSFxZWdlo72jHkJC3nt4eDAwO6nQbru8Tjyr2qZzkhDunThyhjkKZEfQcKiEBjLho7I0IaMLpNuIqzKlJlCFiLgmhLzOWQTjhNahxMWAc9OPa8WqEVSe3ctVAimk78S0/rovmT8JFY1E0NjTiqaefRnt7G/z+AJYsWYqNmzYiFGIbS4pCrHT0xRuAJ6MI3tJZCOblIDDehXj7CaQGGhCKDaAwIyV1J8KsLybhIhKQwmtQhXKTY35MXDqaKJEzdyy/umj9mvyaWpRfkVRZShIIY6YobMrq0ggGM2Zep/WqU43EoZ6c9ETLKXQmba7yokA/Bk98AJ6oELfuY8Dhp4EDTyNy8GVMDA8hULMGudd9AqEV74VXyBunTPL4CTN6qFRAomc6moz5uYjiRzRTH4LkwVCglO4yuGrlSly3cROGhLQdPngQjWcbsHv7Lhw9dhQjQ0OomjVL1wdSoNf1m048bv2ZX8LUhiEnJClyb7vSP/sjK4P5v1Ae5cuWoxe2ApVT4/IxeaUyLx/EjuVnarTWsKa+0ywca+aIOpM383EgGtfFwHVzzelwQ/Eq7kpIXRtzH5nRPcZhwpucuPlkvtkXjdt5ORGIXvPKlwEmnNHL3c4pwp6A9isNIVceVzD1kiHJvuDmx4Q2H6Zl0iN4fmNrSysefPD7+Ju/+Vs8/tjjOHv2rLikcPOt78Ef/MHv48Mf/rC+XGIbsR35rDGQq9hZTMN9RlsCZ2FhYWFxNcASuF8EN3+Ue0TvilGZWZmorKxEV3eXVmBXV5dOYcrKytLy+fxmapMRklRsM3GJoihHeydKpy5cIc2A/o0tIaKfaNSsAuNUSFEqRqoycERGdeKVGieMa2c0U9CRFXE/x1mV/Dj51BRpFkEznohhYmIcjU0Nuitgd3e3bum/bOky3Hb77cjPzXeERULidUijx5sJZJXBU7ECnsIa+OMRZEz0Al2nkOg4gfGuRgTD5mBrJXyaB5IlZ9qemM1+huogHyffJBZc38RyaCBTJxwtYfru1Edjp9E45M4Rxqfs+WvWG1LrCtxc78aRuXiCZ+RJXnT9m6jkpMQTFUl6HOivB448jtT+R5Gq34Xx0QlEixcjufReZN30afhq1iIZylNSwPKQrDFPOjLjpO1SHBac5bhUxWms2l9ET1IQEiJdXFSM667biMVLF2MiMoGevl6crj2J3bt344UXnsf2ba8qeeMulhnhMEvJlPXHcDTGKxdRXN+pHhxPJGUm1yyB68A2dvSmCGoyLx0kXyaQQu0ZP8Ortal/nbbIcBomHSaEIUQm5LmK7T9tzxom3HQ4QiuXn1fpoHkqj+aq9auxMF7aTlNQ14/XyZOazdeB2LNfunkRB+YsKQ1P0kd/6lfTMDEHWG4dYRayLHWuIcWdV7pz51Gus9WdcBsa8fIrr+B//s//iYfk4d3W0obs3Czc9J6b8ad/9mf47d/6bWzYcK0+j1gOJqY7l0qj6sYltNAMWLjQehJYAmdhYWFhcTXgUgncu3MTk/MheXazTnR2dGLv3r2oP1uv25dzGuXSpUuxeMlizKqapVPWKK1ztzsV/FR4Oq/Ybj04kRqtISwUPinuuULfNMTEvKjOzY3RqelczwLHjyvMuk055Y9mE9v5cEVWrnUjSW1saMDJUydw4kStHiA8a/Zs1MyuwTXrr0FJcamSCBJ587bfSYciqG7yIeVgH+EaseGTQOMuUQcQa61DVEgPMvMRzyhC5qyl8FUthLdyPhDKAfwiSAXkqhtVBJHycnc+IREsh5NlQ2MIY0GSRpj6U+0UpDppq3oSB2OarkmG4q6QPKgZSR6SzFFBIWsJUTEhbBAyN9QK9DQgNdyHyJkj0hnq9aiJcHG15Hsl/EtvAUqWI5VTLtGz7GxTyaOTL5Ml6qlzSYtSsZ/L7zmYzqTB+WUTpaRO/HE3Ri5yffGlF/HUU0/hxRdfQl9fn7SRFzNmzMD1N1yvirswrluzRgTWPH35wLWeJidu5NP5NtBU9F4g6NNoxI9YTj8D5HrBwhg7PaSa9UK9Y8dftyUuFFLBZMxlypMZHTQhTZsaGJ2Jb8qzmkXvXBRuPtk5CHXjjyh1SyOWU/ZqcII6taV14LhPgfkyyjUR6ove5Wpil9oQC5pZ/1zDRk8TkQj2yXOmpbUZzzz7DA4dOKI7cw4MDKK4pBjXbrwW73/f+3HjjTeioqIcfh83qXHq1WkTi4uDdeSOUNpNTCwsLCwsrgbYXSh/WTj55ltxrmehkHWm7gyeeeZp3dxkbHQUZWVlWLlyFZYsWYLKypnwBwIqFJ87jUngxPXzgrIxazU53hnOVK3jJvZuqPPBIJqOBGB859S3c9W3+qIlppr2vAhpZBkjExGcOXNaiNspHDt6VA/y5tv9mpoa3HXnXVJebq3vNxu5CDQ+k1kajF4JHIV7WlIwjcMbHwBGziLVuAc4tROpltNITYxieDKORE4hipZsQDKzDOPZVciavRTeDCFxIpwiEDZXjUvqVAmSKI3cpDNVFi2aW9LzQU90E2FXRz+m/XlSMbEWwjYp5I3ucSFyw52InT2JwEQX0HsC4/VHEE1I/WYUIJFbhcDsDciYtxH+yoVAVqFkRcimlFvleckbR0HcfLF9lJiLG8dgXNDrLyRw50OzzEhMW/s93OlUI5Uv+2hcdybk4dZPPfMUmpua8ZIQugP7D+jB2cFQUMnc5ptu1BGHqqoqvPfOO5GTnYPsnGzkCalz4zdp/SKwr7Ed9KtNbww0OVA7/kh+lcBdGAyRFurKgJNZcy9eIHdSYNq7ZaIPvQ9ZVtVfCKYPMGwymcLI6LA8Q8YwKs+RF198Ec0tLRgcGMCLW15Ed3ePHgnAGQArli/H5ptvwrLly7Dp2o0olTbkWsjptKdTV0w7WJwH3jeWwFlYWFhYXE2wBO6XAauAApr+4fNKowjJiTg6Ojpw/PhxnDh5UndljIigRWF46dJlmDdvHgoLC5GXn4cAp1dOrT0yAi916UK3CxUU082OH9YdL9Mu6TChmE+utaJgciEYMjEdu3nzb8rGEUO+9ScZ7entRe2JWpw4Xou29nYtR83s2eAZeIsWLkJJaQn8PiENQvQkW1ofrBi9Uhlb6UCMWxRHJNWGezhyO/gYPLE+oO8M0N8oPbJJCN1RRMd6MNjTrwcf+zKzUVopBEmuKU8mPBUL4auaB2HGGhOSInwFc+DJKTJ2HDlzwTq7GJRskJxx58gRjkdLdpgnCZOaFPI2jGT9UaSGuzWeycFBDHZ1ID4+irycMMJ5kl7hbITmrQOKaoCKZUhml0to1jnr02lnMjKtE255zw+nINJa0ibBox9jIx+Ba7wUaAD5kbpm2/mEwGkaSkiNs7ar2mnPwIkTJ3D4yBEd1Xn11VfR2dmF3p5efRmRkZmBdevXIS8vFzVz5uD2226XezZLSV5VZaVJQ9rbjNIxWbatakxqNIvO3eWSViYPBtTrtveq5ziR2dXxfNDm520vEYyceM0I0nNGnG92oNbGTQm35F+Pz3CdVGdAs5IBqX/WjakH92ru9VgipmSN95lPPjxwm8+P4eFhPPP0M7oh0ODAIA4dPqzrbFnfvM/YJu+55RasX78ei+T+Wy4kLhQKSS8z5IP3u9Y+E5H0FNouFr8I7NOWwFlYWFhYXE2wBO71QKpCsy/lYBH4SwGNb8fb2tvQ0tyio3Ic7eA0tty8POTl5uomH9wNsFKIXS53rZTwoSAPj3YFQonNERQJnu1kDuZNwuc1m1+ok3gx6V4IJm8qqsvXbbZzBDtJl/a0Yx4SiYTwlpja9Qpha2tr0yvXg3AkgFMn6W/hggU66jZ37lwUFRcLGTWjYDw4WOMmnPQIbWcqsSKtIJHhaJnun6f+zTohpzbFGIN/clCIXANSkTZEGmrhifQjMNGDRNNxpMaGhfJ54Atmw5edL3ExtA+JVBCx3Epk1qyAP1dIFeuT0YurmVo3nacpMDndRINno40i2dOIePMJ+CZGxY51ExVuN4b48ABEzkbSl4lkXjkClfMRCxbAVzQP4aoVSGWXIZGRq9u7pzykpBTSmSsnTZaZicmvVw+1FrN7PpkSOLppZThw2vh1wm3X14xDstfX36frN0+fPo2dO3Zq392+fTv6e/ukT5gaNNvVBzBbSPvmzTfqNGGSN44um4PsebSEtInPj2A4aF4YSNpuPlj97N/aDzVb7HN0Z0kvXlZaX8TpzQebLj3xNDP7OkeadSMaYzUFvQ/ElnWhZimk3luxGKJyf5HQs64OHzuiU5DpNjI8gm3btukRANHJqD47mBbrtai4CMuWLcOcuXNw3XXXYU7NHMyS9sjLz1dS59a1xeuE065sJ0vgLCwsLCyuJlgC90agQqlTCKc8sWhUydxAf79Oqezp7saBgwd1hIPg7n8LFi7UDSQoCM8TMlRWXq5VEc7IUFJkCI0LIwibN/g0yg+/TNp4OA8MLYKz4+j6caubzcj6j0QimJycVIJYX1eHxqYmcfego6MdDY2NUg4ROL0elEve1q5Zo4I7yVuekFHuOGnilFiZD/FnhFdj66aq+XXqR7dFF5iDq82+ie5xYownIfmiSEzq5Y1Pws/DlCMD4mEEGO3SNWaIDouxB5N1RzEx0CdCbADkGTz825OMC/+LwJvgJiOGnJnoSUSoTD7SQfqo9iq8eeAPBOER4dtQFxMqVDwT4XkrJJEMoEgEurIaka7zxKEEqUCu1rPbXqRtzhiIgKUheTN5MClQkdSYEThtxCkCR0XfkqqJ4PVDs2Py5Na/xi5WNLIvUWDlJyH3bFyIhJm2N4I9e/cqgecZhz955CdolL7A8rE/+KWeucEG+8/ceXN0pM6rRMKjZOOO2+8QgjFL06O9TsPM4trF6QIxLu2D8uEUUrb6hQpMm5+3fZvBKmWm3Ip0zFoW+fCg/JHxER25JgHmfdHQ0IBnn30W3T09Wu/ciISj2SdrTyART6g/TnP165luHiVoD7zvfSiW50NFRQVWrV6tzwpOWQ7xJQE/Orrq1E56JaXni0h3s7gofo7AfVUI3L9bAmdhYWFhceXCErjXCzf/aTITjRTSCJaRpIZEqbOzA8eOHUP92bPo7+vTNWRRIXp8i85paVy/Qv3ixYt1qtqUgCsf2hfk5+sW8ZoQwTSN7gIwOWFYXvkZGOzX3Wpce47oMS8ULpkWN7bgluScCspdNDm6VlRUiLlz52GJ5KmktBThcFjjcgUdE7+k5ubVESpp71SLCvaaU80sd5MkPTE7GPJcLJ/WlSgK8hJvTPTcUt0vflScVYJjzoVDnJuITMp1COgVMjchVyFcUuEaN4YakDy1C6mBLvAIOjPmxxEKEkf6OQ8mWcmPHxFfNvxl8xGcuxLI5M5zjMAvSQuZyyqBr6gKMa6580venQ1U6IP5IjkzV6MjVTPjf9xv0tBHn47LMQ8S3lkLOJUBWmtsBA20N6bXBdap208uACflqSS4xtEdySGh8EsZSeg4mnzkyBHtG8Spk6fwxJNPYHRkRNu8vbUdQ0PDEpd8xExit3zFcp3qx2J5pBE41e+GGzbriwqF2HPkyi8keemSJQhncAfMC5TXKQP7D0f/LvRMebPAqcDxeFzLdA5MlgQeDA0Poa6uTv3R3s0/R9Sef/55HJd7PRaLwyd12dXZieNHa3WE261nHjdSOatK08rNy8Wd771T7zNORS4qKsaSJYv1Ocl7n1GbqagkGXxBYO6jc+BavHXV9M6A23ZSt1rHYkEC93/tCJyFhYWFxRUOS+DeKNJqxS36ORUl1UZSNy4EilMRudalrr5ehTcKfFwv197WphudZPMtu0OU+GWVc80c19BxYxSvVwiAY39uIgaavAY14TkKwhHB2toTel6dCWcE7nER0MfHuKNiSg935rTIrMwsFaqZXmlJCbJzcpS4ERQ+XQGWF8YxnYV0/TTO7QvulDMKo2aaoVFuaB6HTV8e+CQcxSklbsyz9hfqhYxx2mEiJnq5avx0k1BC7Dyj3UhGJ5QMqr0qk+oFwTglJR5bgHCes/GIGV008YpinXudKXFOekoMFZJ/zZ9Jw5TGgDqSN8Kd0EndOdlxvV/I7s2G035aIikX9ST2tDFbzdPCuBGjY6M6vY/HEiSl3x45elTu611KTDiSe+jAIT0PkP3axCr9KhjSEVyO8hJu0bjhzaZNG3Uk2hz4Li7aFrxoouqXo76bNm7SdZe0cMMTxvfrgxsP46DeHZFkqk1NjThw8ICUidNd3TqaDsHynThxEjvlmcapkemgG+/npE4/NTkkMWAdrFi1ApmZmfqCZMXKldhwzTVKejmyRvfcnFyta3NfkVA4aTqZdPNgcmRxWeHcC6z7558TAvd/v4qvf+PrlsBZWFhYWFyxsATurYRUIYU8bslPgYz67u4u3RyEZO6kCIYkeK6QRncKlhy1MG/73Sa4SMWlWTMs1+roW3y50uyCIyBz583V6Zt0o785oucoHzfB8AV8Klxqk4vS9kpv19fbdpp9I4pqGZX4nBsRCZHjzf0xZtG7BMkd4UoPO02eHN3PR/26YWKUfLMuNGKTIzdfU+kYCwPaidm5TPtR0Cbdwg14jqe3Hudni3Ds2GpsGbdPcIRJyZz0K74k0B1Kjx3TfqxEROxfeeUVbN26Na3vSSycbisEZ1LC6BrKXwC+PLh207WoEIJDknWhZ8sbAeNz42T5eI/V1h5H7XEzvZFgmenmguXnIfbBEPNuXJweqy9Mbr31VmzcuFHNjNsdWeeGI8FAUO+rQDCgRE7TZwzpxbpgG7DsZuSbejE4DhaXBVKnbFeq5557XqdQfv3r/46ZlZWOBwsLCwsLiysLlsC9iXCLN1VxbpmdK6uU08QonFLPdUf9/f0q5BG8cqplbW0tGs42KJH7RfWWbs21NQzPXeo2bNig62hUYKQn+SkqLNIRDjcQ0zftIgmoJ7U8Z/Tk58rxeuBGcqHw6sb01WTAUTA1mymK1JqJieeCYvb5ul8W2sXTyqz5kcgYo0lZcuDkUS+aUFpqailwrVwzkebtisH5+Utv+3SIPb2mk42puhL/nNpHcHdFU09m846m5ma0tbbqlEyFBPEKgaPb9773Pezdt0/154NxMEWOcHV1dOk9wEHVVMLk4vLCaUtBOBxCcWmJjnoTvH+UOKrJ/LLcPHftIx/+sI5cp4NkbcH8+TolWssg9ytHzYNCVBMcJZYomJaZWkyYcqplWrFcrZuvKbgWaX4tLgPYv1VBCJxZA2cJnIWFhYXFlQxL4N4suOVLL2eanSs2KqmSj5IzAavZtXOFu5HREZ3umB7mNfH/Z+8sAOs4rvX/XRYzg9mSzMwU5oapkHLKL3ltk7RNGf7v9RWSctI2SZM0ScMMduI44MTMtgyyLWZm6fL/nLN3pWuZKZHs85PO3dnZ2dnZ2dnd+XZmZ0Pb4PePEnjgEX6XyPA2prwdqqCa2wtFLQuNrRte5jb7CJ/lQB8FZqIHC+Hp+Tjy46OA9qu/mLGDSoLsa9gC9pCyyvT/cjAerIMFkLnUhOd9JPSqa2pkBEaOg8MPDMe0tbfihRdfRGlJqdFyJy155hZOAVLujbi4lXAMia8rLr8CiYmJfenpaz0MbZbPlYTEeBl4yHzQIlA8LGR5b0S4hdwMxyGbIje3qBth+veBo5b34wjD11yTYIeRlAPdyqmDy2DItAVOURRFGQqogPs4oSzlvOA/ftIv+XGIfDmGrD8iBxyTUPwcZ98gI+JNC2QzZgJCU2Px2YG5/4cow2c14eXCzBopk8a84WUuMDBFy3HlZShKY3vciuxDV3d337tm5nlwHDEeEXNznEaOm7s48nfweDAR45whO9TG+lY8GI7HjPMAJOmGMDvUNdLITxNafpj4ldMA5T0fNzYVcIqiKMpQ4FgFXNijZuWUYNTkZNIn3sTLePZvyDrDW9zsfyImMZjxkNGPMTW2zVVKo1rJnmx9AYzp2YS538qBhJeHUFEJLx9cfM1y1FeWGAojQcK8mNBqB2Mu4CmZfIogNhZJiUkykAl3A2ZLOkXWFxfFz+7YOOMbd9KF9kjl/3D+BJ9Xsm44vP/sxflhLmO/cDPXE6N5RVEURVGUk0QF3KkmvJIW5jarwP1T4mQqdKF1zbj64jwc5sIjBlLOWg5VFtkvrNxwyRWdwq0ahq+xPGR9fkfBePxgiJ7T+hcev7iPAu+DqNbQnvDENGbg/OHyLNyYgespHy/hx+NwpiiKoiiDGBVwp5PBVBEwK5PmVFGOBS4vXI77yg852Ey/cDtGjIcYH/EfiTJzUKHDGv0Z6QsxcN8Gzh8rJ7qeclowi/CRjOEyQT9qampqamofnfXXQo6ICrjTSagioChDGi7HA68pQ7FsU/r7WuOOYsd4/VSGClJeDaHOI6QezfibiBw2EDiM8TI1NTU1NbVTbXSPORZ0EBNFUc4ujnbF0+vXmQHd2vj2xvbmW2/hj3/4A+677z5kHeOHvI8k5M3b4bHdZhVFURTl2Giob8B111wXmjs82gKnKMpHC9d6Py5juPJ9JFPOUOjgkvIyW1mPZlJewstFmIUXJ0VRFEU5VZivcxwNFXCKony0HKJC/JGZcnZyImpLy4uiKIoySFEBpyiKoiiKoiiKMkRQAacoiqIoiqIoijJEUAGnKIqiKIqiKIoyRFABpyiKoiiKoiiKMkRQAacoiqIoiqIoijJEUAGnKIqiKIqiKIoyRFABpyiKoiiKoiiKMkRQAacoiqIoiqIoijJEUAGnKIqiKIqiDCr4W/qmKYpyICrgFEVRFEVRlEFFMMwURTkQFXCKoiiKoijKoMJiscAaMm2FU5QDUQGnKIqiKIqifOyYQo0lWzAYRIAtEDigFU7FnKKogFMURVEURVEGASzaDIFmTkmwWa3SGmf8KYrCqIBTFEVRFEVRDoDF0rF0XzwZUcXrsklrm98vU1JrsNqoeirdJ62wkoCzkUmNlfw4iKKc7ZwCAXcyp66iKIqinGb0NqUox43oJBJM3I2xp7sbHrcbwYChnoz304yWsWPVU3waiiA0zfCWFrYNGzbgnnvuwd59+yTeHTsK8egjj2LLls14/fXXsX79evi8PlqHBVxAulUqytnMSQm4g05a04OnampqZ7cpyqBCC6WiHA8sspjy8nLce++9ePzxx9HW3iYizHg/LWC0mA2A1zItHA4ZIAHIIrB/PQsJQw+qqqqwfccOVFdXo6OjAytWrMA7776DxqYmrF27FkuXLkNpWSk6OzsN8cjdKkMxKMrZyClogQs7ec2zKfzsVVNTOztNUQYLcpvSQqkoJ0JHewfWrV+PHYWFcPe6SUAZ3RpFRFmN88psVQvNSDfHsNqh0fJGUw7P3SPN9X1eL1599VU8+uijKCkuxuOPPYbHn3gcq1atQk1NDZ579jns378f27Ztxb333IsXXnwBXR1dRpdKRTmLOSVnAJ+kfbdGvUcqimLCFwc1tY/aBLoZcaWRK3pSczR8FUU5TujcsdvssNvtIsC45a29vR3lZWUkukrQ1NiEYCAgrWPFJMJYePkDfjnlmpuasH/fXrS0tMBDYq2hvgHF+4tRRut2dHTC5/NLq57P55VWufKKCjzxxBMSx8IFCzFj5gx4PV7Excdj1qxZGDlyJOxOhySr71RXlLMQC50wRz0HfEFf/5OVMLhP8g++/31ccumliIqMOmQYRVHOUujS4pf3FPQ2q3zEsHAj43dpuBa5s7AQxSUluP/++5GRkREKpCjK4eAWM5Nt27bjF7/4BUaPGY1vf/vbcLvd+Pejj2LNmjXizsvPx2c/81kkJSfhnnvvQVpaGr76la8iISEBDz74IFatXoWvffWr6O7pwbPPPIuS0hI4HQ6cd955uOHGG5GVkYW3lr+Jl15+GaNHj5Z4WfDdfPPNGEWC7cUXX0J8fBwuvvhiEXDZ2dkiJvXOopyJ1NfX4/prrg/NHZ6TEnD1dXX429/+hsbGRrlhMvyrJ5WinN3IdYAuBIGAX68HykcPFbog/UkXL7o3cXer6TNm4JprrkFUVFQokKIoh0MEHBtdyLdtJwH3819g1KiR+M53voMeEmKbN28Rgdba1oqnnnoKw4cPx39987/w8CMPY/v2bbjrru8hKSkJv/zVL+Wc++/bb5dWtVqqNyYmJmL1qlV4//338bWvfQ3XXXu9vO/2/AvPIy8vD21tbdKFkkUaC73m5mbYbDbExMbi2muvxfXXXYdIivMYqq+KMuQ4/QKO15JzOyjL+I+b1RVFUQ4QcHqTVT4mePQ84/5koCVRUY4NGaiEpnzubNu2DT//+c8xeswYfPc730VkZASJtO3YvXsPGhobsGb1aqSkpuInP/4xNm3ahL/+9a/4yle+goSkRPzxD380RNf114sQ205xVVZWYteuXdi6dRs++9lb8LnPfk7EHAu4z33u84iLj8Mf7r0XV111NSZPnoQ//ulPSCSx+NWvfA2JFKdZHR34gW9FORM4VgF34u/AhU4gU9jx0065UaqpqZ31Rj991wh2801WTe2jMoanUhbZTUJOnyMoyjFA5wmfNyyOfD6fdINvbWtDb28voqOj5aHca6+9hn/9619U0ayT1jWHw9HX5TK/oACpJOZY4G3auEm6U/K7a/zu23333YdXaV2/PyDvtDmdjtC5adQfeVslJSWorqpGd3c3lr+9HI899pgMbsIDqDz08EPSHdPj8YbuMeZNRlHOPnQYH0VRTivaAqd81BxU4qSyF3KfBFpdVM5kpHzLqcIuC1a+vxJ//OMf5T229o4OjB83HpGRUdKlsra2lkOjq7MTLa2t4mbRl5uTi8lTpsgnAdatW4f8/Hx5Z62pqRHbtm6Vd+Z4gBPuJtkr7gAam5uwY2chdu7cifvvvw+rV6+G1+vrO5FZSPI34Lxer5jf70OAROAhznRFOWs4dQJOzyNFUQ6BVnqVj5NTVf6kSkv3uf72ZMa8heoNUBn6mKWYe1TxH3937ZlnnkFVZZV0c7zgggsQFxuHxYsXw+F04uFHHsGGjRsRFRmJiIgIMV4+e/ZsabFrI2HHrW9JCYkYOXIUzj3vPOwtKsJLL76IThKEkbQei77nn39eBjeZOGECvvjFL2HevLnSVfL888/HTTfejLy8fMyYMQOfuvlTmD51Omx2u5yQ/E05SbSa2lC2E+SkBjFRFEU5HHxpCfj98h6Sogx1TAHHP8Yfizf+mLCfprIgZP1oyVeGGlyC+drtp2t3c0sLqquq4CJhNooEGAs1fuuMBzHhj3vzNCM9Q7o7+vw+DB82DE6XS8RZSWmpfLB72PBhMtgJw58U4PffoqKjkUiirqGhHrGxsaitq0VrSxvGTxgvI1KWlpbgF7/6pXzQmwc8aaivl26aCbQOC7kbb7gBiclJxrgLepIpZwDGncMozPX1DbjudI9CqSiKcjhUwClnGuZN1miFIwHHEwt35QrQPdJKFVaeN1rleJGWfOVMQeqAVKBlQtf04ynb5rr8c6j1OD750LfVSlOrjFb52uuvITMzC6NHjYTVagutF5RWu+SkZDhC788pylCHzw++t/B9hU+V+joScNfdaCw8AirgFEU5LfClRQWccqYhN1kq03xHDAR50J4AVTC5jFMlMxhqleP6KhuvoChnEnw9P0x90DgnjAFJ2N1X/uUeQD6HXi0EnVkB8702Enq0jtPulE3JcxGJ1wp/MCCDoPTHfsRIFWXwIyeLUb65XNfV1+G6q6+TRUdCBZyiKKcFFXDKmYiFW9voJstVVAsJtkDQi5a2FrS3ddF90i4huNZ5fG0UijKYOLi+x+XZkGUHunnuyHA4Iwz/HjKOA6LiiqzxEX673cankrzrJueT/NN9hfRbUD9bpZwx8P3CKP7BoAXNzU24/ZvfkCVHQgWcoiinBRVwypkICzhuE7DSn42s19OL15a+itdeX47W1i74fLScbpda6hXlGKHzRcQc/1Ndk1vY+J03/ng3jzjJsKAz4YFP9AxThj6sq7gc83e02WUIOb/Pi+aaCg5wRFTAKYpyWlABp5yZcHkOwkYTG90XezxuPPTIw/j7Q48hd3g+omPj5V0eLvdS8rX4K2cSZp3zcBxq+dHWEfoDcH1T5vjewXVPvYcoZwFmKff7PKgt2haaOzwq4BRFOS2YAo6nevtVzixIwIlZ4PZ68I9//QtPvvAGvvmdu5GXPxH+oIXumwGtdyqKoihHhG8ThsKie4oV6GhpwE+++XnxORIq4BRFOS2YAk5b4JQzERsb3RfdHjf+/uBDeOrlN3H7936OcROnwg873TeDYQJOzwFFOTbM5jqtcypnE/zuJ3fN96OjqRbf++LRR6Hs71SsKIpyKqF7sGo35UzEfFeBXUH+LhzVNbms+wN++Pw8ZQ+6vfYZyT01NbVjMPN8CT9/1NTOTOOBsHjKg5fwjYS/nSgvxB0DtKaiKMophK49xjNU409RziSMEs2/4WXbnDdaDeTBhZqampqa2lHMwma2OPMk5DwaKuAURTm10MWHr0uKcqYiD0tDbiZ0H5YfFm/a8qwoiqIcjb5bhdw3+OfY7x8q4BRFOX3whegYL0aKMtQ5xgeniqIoiiIMrCYd631EBZyiKIqinAL0WYWiKIryUaACTlEURVEURVEUZYigAk5RFEVRFEVRFGWIoAJOURRFURRFURRliKACTlEURVEURVEUZYigAk5RFEVRFEVRFGWIoAJOURRFURRFURRliKACTlEURVEURVEUZYigAk5RFEVRFEVRFGWIoAJOURRFURRFURRliKACTlEURVEURVEUZYigAk5RFEVRFEVRFGWIoAJOURRFURRFURRliKACTlEURVEURVEUZYigAk5RFEVRFEVRFGWIoAJOURRFURRFURRliKACTlEURVEURVEUZYigAk5RFEVRFEVRFGWIoAJOURRFURRFURRliKACTlEURVEURVEUZYigAk5RFEVRFEVRFGWIoAJOURRFURRFURRliKACTlEURVEURVEUZYigAk5RFEVRFEVRFGWIoAJOURRFURRFURRliKACTlEURVEURVEUZYigAk5RFEVRFEVRFGWIoAJOURRFURRFURRliKACTlEURVEURVEUZYigAk5RFEVRFEVRFGWIoAJOURRFURRFURRliKACTlEURVGUIY0lZIfksAtMgiE7M7AcZn8P7X1m7buinC2ogFMURVEUZchiirfD6rQj6BND7BgiJhgMyJT92KxsVEsyzTLAji4MjwyvPtBMZPu0jcOZmcZ++ncyEOh3BykMm7iNSRjGfiuKMvSgy4CiKIqiKMrgoV9aGC5LyEiekHLxi1lgGMhIfsnSgZhCp99YoJkiLXwrRtxBiisQ9JGY42mALNhvtNRwB+AP8DIyC6fHjDMUhwjBIxvvi5XCs5n71rd/ZBxHgLcRZsE+o7AUtM9oDQupNK7Qsdtq450zc84wTmfQQvt1gLEfLadI+s1Mn2HG2gfGpSjKx48KOEVRFEVRBg39ooIFBkmGMIHBhCYkSkLGbrKDxEVIxLDo8pPxnygc0xjyt5BZSTCxGLSSeLPT1GkNIMIWhMvqE3PylESPy8bzflrmQ6Tdjygynkbaed5H8zz1IMLqoakXUQ4OQ/48dYSH8VIchvXP0zq8ntUrFiHmI6PtkfF2XSRcnWR2MhsbpdVG+2UIQGN/WOAJ5GGIQmPeCCGeZEZ+GEs5VNg8Le9bi9ycx9KKZ5qiKB87dN2is/0o+OiCZuHHVYqiKMcIPzH2+/jpOKGXD+UMwazg2ujW6aD7Yq/XjfsffAhPvfgmbrvzZ8ifMJ2q1A5p4Tn63VU5FCLc6I9btIw8NOWJlfKdfslYVPjIeMpdHcWfVByHYng1U/TxuuxvLJMIKW6rPMEW440EuFWPrll+P/zeXorcK8eYl/HWraED6vP76Nrmg8/ng8fjgZfM53HD29tLq7jJj9y0Li/3erzweE03haO4HQ4HXC4XHHa7uNns7Od0kRnzDocTDpp3ikXAarXDYrPLjrI246uqh1vlbDZYKLzN7iRzIWi10T70P5c3Wg0pL6nAGvkXng8E77c5w05al3NHqoVmAeaJEULynf1ZQJt+iqKcPMb1zkfXIx86m2rxvS/fFFpyeFTAKYpyWlABNzQIq78pxwDnkwq404vZjc8QHYzRjsTygySKtJhxCH9Iq3AoFnB8TPgI8XKRLCR4uDehHDXy85OQ6u3tQY+bhFZIgHV1dpN1oqOzHe1dHejqJndbGzppno2Pr5vCe0WIkbgjAcfGVSfeWoCEn5+7W9KUxaKZYlnG6aTrIG9b/EP1KK5PGU5DDLHbSm4rp5f92E2eVoud/GSPYSHBZyXBxsLO4XKKuIuOiER8XAJiY+PEIiOjERsTiziej45EhCuCxCKJw4gI2EngOchstCWOh/ZAWiV545JW2ganQsSeiF72JYyEyj6wF6dN/IxV+xYpinLiqIBTFGXQcKoEHF+irPJkWGsJpwOukGneHjucUyrgTg/mZYLz11Q2xvte7OYFJDNYtPH7YWQseBhuzbJxixoF83t89MPmhbu7A21NDWhpakRrczMaG+pRV1+P6vpa1JB/J7eg0XY8FLabrlddvL7VjsiYaNiiohCZkABrhAt2EkLcyiXiye4gMcRG2+RWNKcTQacdiKRwFNZJ89yKxiLJ7nACtI6fwvttdtkv2RcSj1avB6QMYfF4QepQxKSPpn42drvJfJQ+CuOjsHwt5fffeN7t6YW3uxv+9g4Eurrg7uxAkNaJoNLpJMEXQduKtFoRSXmSlpqC5OQUpKemIy0pHakpqUgii0tNQ2RcPInBCAQ4bXYrCToLXbf52s2Ck67ffGXgVk2p/1klzw0BZ7Re8slgHAFxKopygqiAUxRl0HBKBBxfnbi+wG6uzGmN+JRiVMboWPm5YkxzmsdHhXPHEHAkHGiqAu4Uw/lmTikD+d00khYk0FjI0ZSUg42Ump/yPUDXl14SNJ3dXWhra0V9QyMqa+pQUlaOuroatHe0yzIO4+VWMxIpzpgoRMfHIyIuBlFJCXDGxyI2MR6uhCREJKXBERsHW0QkwBZJkoiEGykxOubcPdFGx5Xbyiwi4ljQeEgw+h12eBw2+CnNfNz9fqqO0U7Y+ZyiXQnS+UWeUiC47LA8knJE83bauwgSgD4SdQGfUWB4nUjy48dWARKX3Abn7u0RTWtj0Urr0daBzk7YenoQdPfAR/vqoTzobWtHR0sTetra0E2itYv8utvb0dPaAW9nD6Jd3DLHrXguxMXHITM9E7mZOcjNzkZGWgYS4xMQHx9jdPMkC5K481Gief/9JOx4V4LcThjKB0F20nAqinL8qIBTFGXQcCoEnNnyJhU5Fhchf+Holy7lsPRXvDhv+cm+1Wq8/6IcGc4jNh44QlvgjpdQhoTqE9LIFnJwXhm+5GaxxqqF/LgLpC3oRW9XJ9pImLQ11ZPVoqG6CvXVtaiqI3d7C9o8PWgngeGJJAEWl0RCLRrOxCS4klMRk5aOuJQUuBLj4Hc64IqOQlR0DKwkvKjgS2sZSKgEaKP8Hhl3LfRx05MkgR9qmFNKDCeS0s/XI74i8TtpQXLzIhPzuMvU9A/5MRIFx0h+HAtnB/txl0sOxvGxTpNVyYPdsozcvFy2TX4y8Aqdu06acbCg4m6cbPweX8AHr9cDT3c3giz+unvgJSHX0dSC7pZGdDXUorupEd6ODgRaWmDv6kAcxRFPoi0+KlrEXEZ2DpIyshCXmoGEFMrDxGRExcTBYnVKWrheKOkWUWcYp4sxl4s/uw1vRVEOAZ/5KuAURRkUnKoulHztaaUKxqbNm9HU2ChdjbgyI9ckuXxx5OZUOTJGBZHzjsWx1WZFUlISZs2ciUSaspCzsJA7+m3hrIVzho31xdneAnfoM87Yaf4NUCaYIs3UPjzQCAsSnuFyxvlkCLgAbFT+2Jy2IPz+XrTQeV9dXYPiilJs37MLe0uLUdPchE5ueSKhkZCcjNgUsvQUpA3PRXxOLpwpGUBsEvwRkQhGREn3xQCJMhZmAbsVXtoOCyT+4+1LN0xOLKfDnIbBx9BcZB5PI82GmxH/0PxAt8yGhTXhLoimtyzngGQ8KAtPeRK+mizmH4YWcLLZuGGP1+dlkq+EbJfcLC4ttL/8oIGkqpTZIF2TLX4v7DxoS28n0NUFV08HfI0kjKuq0VRViaaKShLJjWhvboG3uxfRzkikxidh5LDhmJBXgLxRo5GdlYNkEseuyGgSvFb00MZ8tAF+O5GTwWJX/jghcvANkSv7ETKGw0q3UoHnFOXsQwWcoiiDhlMh4Hg1vkDt27cPP/7Rj1G0twhRUVHSWmTjJ+VcCVGOC76WS8WZ/tweN8aMGYOf/OQnyMvLk2Om1/ojY1Y+7ZRNXCk+2wXcwaXFyCFuvxIBxyEoI3iew9qpFu+gqc3O3fGMd9lY1fX29qK9oRnNJCBKiguxv2Q3SssrUEEiopmjTExAbHYWEkeNReLwPCSTWItNSyaxFgtPRATFYZf341gksHCRljFa7VgI3wd2m+v1HcM+D2PSd1xp3lyXvQ7lZgbOH8QhApjb6PMOW24GDy9jPM/O0OwJwfFZKeMiPb2wdbSht7EB7ro6dJaWooGuvc10PHpJ6EX63EhPSkJWRg5GjsjDiDEFSB8+CgkZaYjgdwHtNonHSsKOlDOCpEq5yyWL0wCJdX7Xjq/cnGYWstL2LzvCc4eGj+uR4AcFijJUUQGnKMqg4VS1wDH79u7FD3/0I6Snp+P6669HdFQ0+RqtSXIJ05v3MUCZRNdxG4lfrjjz9JVXXsX+4v34EeVtfn6+CrhjQMoc2dku4LiUSEk51D7SAh5Dkj8eLZ3oQmG465+D3A6uU/i60NzSgPKKSuwuKcWu/SUoq65GY0crLFFORCTFIY7O98RhIxCbOxyRmVlwJSYBkTEIOKPgtVmoqsPD6nPkbLTRUKL4ymC0A4URKtdc0Q8l56gcfAyPdc3Tj3maHr2MUUAzKyTs4VfgYEZQFl9BOGkmkqceN2zdHfC1NKOztlqsuaoKjVXkbmhEsKsXMXYnhtPxGj9yGPJGjcQwEnSJqZmwuWLowLuoLNgpVuNPjhsZ/4lkoyTxdo+0K2br3aGQdB9pZUUZ5PB5oQJOUZRBwakScHyJ4ha4u+++GxMnTsQdd9whw2RzK1woxBFv/MqBlSMeeoC/R8Wtbw8//DBWrlyJH979QxSMK1ABdwxwPrKpgAtNQ/soxYaMW75kXqroXFU3rgEWuxUBXwDV5eUo3rsLuwrXo4impdW16LK5EJUzHCnjxiGlIB/RuSMQlZUFSzQJNSt/68xJFXiu7NMGKDru9sibkVa9sG3yxGiFo2sCZb7Z6nemIvtrOI8bc13jfOdWeTpeoXyUOCn/jHfteGRKXsYDyRj+krF0/XB6euCtr0ZvRTna9+5D865d6CjZC3R1IDEpHSPGjMPYgikoGD8Fw0eORoTLKccnIC1w3N+Sr+HSRisbNaOW+QGogFPOZFTAKYoyaDgtAm7CBNx5512Ii4sNCTi9Lh0/Rtc1d68b/3r4X4aA+yEJuAIVcMcC3zDZVMCZU6548PnuN6a0zyywHOzv8yDQ24kmquQX7t2N1Vs3YeOevahpb4c1LgoJw7IwbNIkZOWNR/KwsXAkpaDb6oDHRtUYMqm092UixUfVG2lxow3xtjgNbNwL03DQ9qUmH3qow37KMdMn4MyX6ULK2Mhyw8/IWXKTp438XDSN8PkQTcfa0d2BlrJSVBftQUlhIWr2FAEtrUiLisL40WMwc/JUTGCRnjMCtuhEWJwRFA/FRduRssMxkyN0iKlMySb7jqWRmoOhRSrglCGNCjhFUQYNp1rAscjgFrg7uQUuPl6W8bPbUFVt6MLJD8+fgfOniYDfj/v//vdQC9zdKKCKlQq4o8OHh+2sF3BcTFg50U5abVxkeXB5Lj9B+Vh2Y20dSvbuw+5d21C4ZztKWxoQTElB0riJSMwfj0Sq0EdkZCAQGytD9bM8kwEvCHlXirfRZ7yU893Sv4zylgflMCvuclw4UB9ncOafdsy846lxBELtZOLDx8AMYaODwY/SzBYyDuXyB2RUy0BNFdzlpWgp2onq7VvhaWhEgisKI0fn0XkyFfkFJN4zsxAj7zXbqK5JAp23xHFRZOHnjxn/oeAywNtVlKHKiQg4Pu8URVEGP3Q373ve1Dchh3lXN6enilMdr9RIBrhlf0L7ZS5jR8h9QKWkb/kpIHxzihIGl4twIWSIJ6O0yDJx0TTk4Mo2d7WzUeXD09GE7WvexaN/+y1+8vM78dO//Q7PFm5G5/hxmH3bd3DB3T/DzC9/HcMvuRzOcRPgT0qFxRYRGuzC2C5/S00EAnsZ3mRGh0x+HGQKO6688Hta5scvAuTB6/IcLzckh/6d2B93VjXN+GOMY2FgHgM//XjZyMMUdl67FZ74eATG5iH6nAuQ94WvYsmPfo6Fd9yNuMXnYW19Lf708H34+Y/+G/+655fYtPxVdNfXIOjzSnkKN7MxsG/DA+CPt5tBFOVsgs8/RVGUIYFxo+Y7uzgO5HTdxU9RvPLhW66RcIWD3H4ff6eJ3xGiyzD58Yia/IkEbtTgljD24zqLbF7WYcdJwJHxJFTz7n+HUFHCMMtZqOCJiJJiy13muNIQgN3ihxMeuIJuwNOO2qoSvLrsDfzgN/+DO+/5NZ5a9T46cjIx/Wtfxvk/+SmmfON2RJ5zEbpH5aMzIQkdNjt6KVJTkEk5l9q6uS3Dk4uq2eIm4chN/1JpZ/HGgQL0F7TIb5+AUDtV1i/f2RjOfzHykNZPMj425vWJu7j6ydNHx9JttaHD4UR9VCyaskfCN2s+xn7uS7j0Rz/GpXd8B6lzp+G9oh34xV/+iLt+/hM8/cx/UFFSBH9XGxxBL5U3iomPLZl8G5C3w0Y/POVyoChnK7afESH3YeFLo3arURTleGChEOwf0eCkaG5uxoq330ZqWhoWLJgPFw8bHg7Hf7I387A4WED5fF7eCfD30k4F4ddQv9+H91a+j8qKCmRkZMi2y0pL8eayZXC6XCguLkZXVxdiY0Pv+tFyc/cOuBYf6z6HrSJOjoP2bcOGDagoL8eiRYuQkpoqx0yv9ccGtwxwyfCR8N6weTMKd+/HnAXnICUtkw6LTbJ4aMCFqL+qzhVlnheBRDvhD/VPY/HG3xSzkTmtdH50t6GKKt8rlr6Mx59+HC9++B4ao6OQc9GlmPipz2LMZVchccp0BJPT4HFFwEvnkSnCOF6zXYfzqU948Q97DkC8Qv59i3kdWlmMZ+TfbCtSThsDMpgPGSPFJrSML5l8TIzjzcfIGFDGTyeNx26FLzYOEcNGImPaLGTNnIuo7NGorqvB1vUrsO3Dt9FYUQ4bxRHBH2OPdIUipxhC1yf+s5EXb8GImdEjrwxtLDJqbwCenk4sf/nZkO/hOTU1E0VRlMEA38NP1Biaekm4baYK+eNPPIHikhKqM1AFYWDYoxkzcJ6Q1q/Q/OpVq7BmzVp43R7xr66pwbPPPYe9e4uwksTdX//2V5TK9o1KCwvJg8RV+DaOZCbiNjyk4iU/ytmKUTxM2WOYiCExK/3RHJc/HoEw6EOkLQBXoBe7d2zCn//+J3zvN7/CQyuWoSUtCQu/9lVccNfdmHDzZxBFFXNveia6HSTcrHb4KT5pSSMzy51UPqhizgJRWt1Cm+UJv9vWb1z+ja6S7DbW4/Ah8cbnBJ8f5CnvxIXikUq/2gmamYeHMJPQPAt7fheU856PDV+juAxRLH1Trpby8fVZg3BToG5SZ20OJ9oTkmAdNxHDrv4ELvz+Hbjo9m8gelIe3ty2Dr+899f4A9mGD1Yg0N0KJ1Vu5V1LWt+I27D+JPGcopw9yLVQURRFMfD5fCKgfv2//4tt27bJkPsHEV5XMN0szvr8D6xMhAuvxsZGLF22DHuKirBr106s27geLS0tcLvdsu2tW7fyCqiprsGTTz1F4ZuoTsUVoVCcB0Z9/ISSImnqT5ZylsGHvt+MSrefyoTxDJh8qZxxuePKuZ18fD0dqNi9BY/94w/46a9/guc2rYd39nxMv+tnWHj3L5F9yZWwDx8FT0QkvLSu1xcA/OTgEQbp3ODubtxqIt0fZZtGK58hygy3aYZo7LeBfhJuwHoHLGMzl6sdn0n+hY7TMVi43hM/iqPvWITiNGScYfIhbzIfCTI/mYdW6oiwoSszE67Fl2D6t3+CJT/5FUZccgl2VZTgb7//Xzz4u/+H7WtXoqujhS6zPKheSPRT7CwdpRu6pEBRzh5UwCmKohwC8501bofgiiwPu9/Q0ICW5mbpYsmjONbX1aGmpkbeXWO49a66qhp15C/vs1Elpr2tDQ2NDejs6qS6bABVVVV46KGHsGvnThQWFuL5557Dfffdh7/f/3c0NTVh+dtvY9OmTRg+Yjiys7Jgs3EVlytBIbSeopxiqJgaFXGuY0tp49cmArAFPLB3t6F011Y88PDfccevf4lHNq6Hfe58nP/9H2Hu176F+Fnz0BGTiC6LAz5anyvxDorFSQXVbEWzk5+d9Fy/BUNGbj+bOX8oC1+PLeTP6xxpPYlX7bitL49N93GYHOcBx4HMYU7peDkpnGk2Lnh0TbTSMo/FjiZHJGqiExAcNwUTb/k8Lv/xjzHqE5/A6vJy/Op3v8Xf/3QPCte8B2tXM1zwwypi0BCCel1Uzjb0HThFUU4LLF5O9TtwafIO3IJDvwMXPj0JuBVs86bN2LFjO84791wU5Bdg9drVuOeee3H//fdjzeo1SEhIQGZmJp599hm8+uoryM3NRWpKGvbu24s//PEPqKquRk5ODl55+WX8329+g/888QSqyS+X/EaNHIXhw0eQeNuJKVOm4Fvf+pa86xYdE42KigpcSRWWr3/965g2bRqysrKRmJgg78WdkmvwgCj4HbhyfQfuhDhT3oHjM5STKkYzFitVqPmeTxXr1vpaLH/lOdz3r/uwcv8uOGfNxvjPfBnDL7oMkaPHwB8ZiaDNKhVxrqC7aJ0om0XEm5PiEqN4WdAdaFSZFzvUMrWP3/g7fofyP4rR8TaMjm2f2zAuB2K0LIKEXASVFyeLOjby50dUPjqpxCxW9Loi4EtNQ9K4ScjIn0DLA9ix7gNsWbkCbQ0NSEjORGRcHClGOg9pHe5Cy6OhSoGWnyFyAipKiON9B85CN2wp7kdCvwOnKMrxcsq/A3f33ZgwcSLuuvPOvu/ACea9+hTds3t6evDAPx/Av/71L/zkJz8mQXUV/vHPf2Drtq2wWW0oKSkWQfV///t/2FG4A3/729/wuc9/DjdedyNeff1V/O53vxMBNmnyJDz66KPo7e1Fd1cXioqKcO555+GO79yB1WtW4//+79ck5IbjtttvR052NvmtwSMPP0K7EUR0VJR0q4wnofjd734XM2bMkJa4k2JA/nC+csvfBytXykfS9TtwxwZnI9tQ+g6ceUQHJqdvngLwseeBI1xUiXB3taNw+1Y88fzT2FxShISJ4zDu0kuQOW0O3HFJ3PaBIFWa+Z02LpVOWtfR0YnOkhK4mxsRDLili1vAwq3Hhzot2de0g5cenb6UnwAnsr2zBfN4nFjnLOOIBkKucIw85xElja6z5ENmdIOkH4sd7pgEROTlwUHXPBstMFuEuZU1wudBkqcT3UU7sHvZMuz7cA3SXYm49vobMWvJYsQlpVHsNirD0mNXUYYc0stGP+StKMpgYKgJODMKFnD//Oc/8eADD+AXv/gFPnHFlSgu2Y+ysjJ0dHSI0Nq4cSPuIGE1liocv/rlL5FNAuz2224XocfdIn/6058hOysbO3bukHfeuEvliy++iOTkZHzzG9/Ec889hzVr18DhcGDhwoUy0uT69eslXFJSEsaMHo3KykrMnz8fn/70p6W1z3Kyw/4PyB8VcCcGZyPbUBJwXHLMdIfDFWhG3oCzkCyje31DeRmWvf4qln74DtxZmci97DLkzJgNF5VLv8MJb9BKZdFYkePjUSlj/F5EVlVj5wMPoWnzJkQE+XteVvitdo5Zwh6ImRq2Qy1XPl74mJzYcWGRdji4kkp3BnFzixnP8jfkmsmvLXcYxt/6dWRMmkLnlk2W8fnDRY1TYqOKbaTfg4i2DrTS9bfktVfQVlKKyVNm4pIrrsKI0XlwRUSTgKMIQ9ewwXL+KcrRUAGnKMqg4XQIuIkk4O4MCTiO8qTvz2ERBAKcVgt6envw9/vvl1Eof/7zn2P6tOn4G48ISQKOu0Xye3CVFZX4xje+jiVLzsFf//pXbNy0kea/IV0l8/Lz8fWvfh3r1q3Fvx9/TFrOuMsld1ccMWIELr7oYqylZfyZgBQSdBddfDFiomPk/TkWjg67A3kkDLmV7gtf+AIuoeXc4idpDc/HgfNHY0B4FXAnBmcjmwzuQVk1WATcITdFaeBWDFP686DrZiGQ9NEfD1rhoBRbeluwaeMaPPrCS1hXXIKRF56HSZ+4EhGjxsJDwi1otfULPoqGywq3wjkoVhZw8eUVKLr3bxjZ0I3Lpy9GfFQchScBd4iESUWe0yZpOUSAo3ECqzCc/tAunBDmuie4+eMiPGd4eiLpPvH0Ht/WDtgO/RitcAfHwQOYcBizPLK7Fd14pvAdvNLdhHG3fRcZU2fAFibguJWXo+KHDNztlt+di6ZrtKWqGCXvvoPNry5FIvl/8tprsfDcixGdmImAlULyuhRWUtGXFN7iQA5Op6J81KiAUxRl0HC6BNwdJODi40jA0TVJLl8cN1/Fjmcbsp6xAv/6Ka0d7e3YUViIxoZGPPrvR+Fxe/Czn/8MFVQx/eWvfolrqYJw+eWX47VXX8WaNWvwxS9+EVdc/gm889478m5cTnYOWltb8dnPfRazZ87G//z6f7B27VrpAul0OkWcRUdH47O33CIjW65ZvVpa1W775m2Ii4tDW3sb/vLXP+Opp5+W8FdfdRU+/enPyPt13FIn+2tWQMyr9nHtM1lYeBVwJwZnIwsBfu/LQXk1WAScVHSJ8KMnh5x+uMLM/lyxNkbuo/STB39K2xoMoLm+Fm++8h88/foL6MwehjHX3oSchefAmpBolAf6N/aFfui/ryySvy3oR1TAh7jSCpTd81fMcifhq5d9EwnRSbRtXlE2ZybAgN1sJwrHEx7X0ThV21WOjnlsOJ/Dp4yZ/6F5LkNNaMEfVt6Pf1RtRsF/3YGMaTP7BBwjlyNy88iT4gw9RbBSuYvtakfXpg3Y/NQjaCsqxPxZ5+CaG78krXFWFnFcTqng8jrG+RhSdGZ6BPYw4lSUj4sTEXDmgxBFUZQhxgF34eNDagUGfIPnCimPAPnggw/iN7/5P7S1teFTn/4UxuePw9ixYzFp0iS89tpr+OUvfoGNmzbB6/MhMjJS3okbNXKkdHFc/vZyJCUnIT8vX5bxACVRUVG455578M9//BNNjU0I+APIJqE3d85cRETw+la0dbThjWWv4/f3/A4ffPAB+UfgqiuvwmUkFp977lnsKdojo1f2iTdmYJ3jJLJCOQEkvwdnpY+TZpoJD+XOgpNbvKTo052fX5i3w4uGyv14/IkH8MA7b8N57kVY9N27MOaCC2GPj6e1WKgRfZHRylwpJpfpZU4N4R96d8nwUpRjRwrSwFJFmOWJpvwQgZdw+x6/X9kZFQvr3LmYR2V20vU3Y9PuHXj6wT+jaMt6eDzdFMpP4Y2PfcvDPiY0UZShjo5CqSjKaUGefJpvlJ/k5SN8FMr5CxYgwhXRf00y4z6ebcjNnFaQdSzyzoXd4UBObg5mzZ6NG2+4AQsXLEJUdDSSSZRx69SUyVNwzjnn4LJLLxVBN578uOUsJi6WRFsepk+bhgsvuEC6STqcDmk5G0dh2P/KKz+Bc887F1NJ1I0ZM1pa4t5//33eOJJTkvGPf/wD7e0duPqaa2QAE/6Q+KpVq1BcXIwli5eIQOQPeZuYorOvMnKs+z4gnI5CeYJQFokoorwaLKNQhhomDoK9rdISRkaJYvllt/jgDHqwd9c2/PNff8fbVPHNue5m5N/8WUQOGyHvuoEHzWE1RmsMjJrnZQlHSS5nMICItna0rl6PbH8kZoydjQhn5IFrhkfC7vD5k+F44jmV21WOjJnP4fl9iPzvQS/WlG/Axo5apMyZj5jMLGM0yVBA08UtzNwFU/xoObuCVit8djtcccnIHTMemSlJ2P7hO9i1bSsS6NqcmZUtvRcYHqlSYuLJAYT8FeVj5nhHodQWOEVRhiimejlGzOAkUqwk2PiW7ff5pHXLx93AoqOkZeyKy67ApImT4XAZN36HzSGtapdferkMOJKfn4+LL7hYWtKsNquIyYKCcbjqyqtJ1E2AzW6TCjN/GmDB/AXSzXLihEmYPWM2Fi9agpiYWGm54/fiOAx/VuD22/8bv/3tb/HZWz6Lb3/nO5g0ebK0Al53/fUYN2F8qPLB1QyquAQCIub4T3aCTJ8uK4eDi4SfioqPjD+gHAy6qdbcis3r3sM9f/kdVpbsR/6nP4fJV1yNqMQkCmOjijLLU2nnCMVw7AzaIqh19EEPlx2j/PS7GC6Ffjp+PhJuXMXlyx0/G+QQVtjQbXOijcpu0oWXYebX/wvNQQ8e/vNv8dYrL8iDMR5QR2LjayWt2NebQYSiogxNVMApinLmw/dr814tT29Dt3ByGy1ZoZYn+g+QmOOpGZzD8UAk/qBP3FZyBywkokhUsZAy4uLqbn83R7PXAr9zwfHJqH1WCkNuXo/fubvxxhtw8ydvlhY4Hm2SW9l4/fS0dHz/+9/HP/7xT1x99dVwOV2UFuOP4XgHdqmUtAvk1++tnEVI40TIzG6MoQYL8Ae22cnvq1n9vVi/ZiX++PAD2EuBZn/zNoy66DIgMQFeKps8iB+H5bLL34JjQtGcOgZGKIk9hB2O8PUlsUexgXEN3M7A5eEcadmJYqbrSBxquZmW8HSbZhLuDo/DdJvbHhj/ofyOhcPFxxwqXQeFM1Y2d8MIxlXT/pUPDBGapyAi4sh8NN9hsaHGFQXHvHMw92vfgHPUMDzy2MNY9uLz6O5ok1Y9XpsfupnXUllZUYYoKuAURTnzMesCofs1CyCu3dpJjEm1gIQYiyAWZOyWqbVfnElrF4ekG77dapd5vvf7WexxnKF4WahJV0epLBhPisXoj0VbgGdomcNuR3pqOlJTU6WLj9/P72qEqii0PC42DsNHDJdWOpqVQU/8Ab8MMsLYaBvi5ugkXeItcUskylkHH3YupaGS2ifi+NkBD1hiJQ9bwIddhdvwz2eeQEVsPCZ96w6knXMhglTevFw2+woSw194Y+NYTiFmdOGbCneHc7hNs//xmMnAeWbgbh8qzPFixjkwbmbg/OEw0zAwPYdKG8d5qDCH8zPN5GhpOpY0h8cXzsC0HQAvDBmVP77iGuLqwBV4zkaXOzaptMqTCbpi0gLuWslTHi6rm67ZTZHR8M5ZhILv/ADZc2Zg5YrX8OHKleh298qWOC6jiybPKcrQRc4FRVGUM5JQ3eAAqKKwbes2vL38bbS2tRmiiisDNGWR1NPTjQ9XfSjvqHV3d8Pn88Eb8MqHtd9+ewX27N0Dt8ctA5Dwu3MsuKQFLLQdDrdlyxY0NDZInFxV4EoJf+uN4dEtW5pb0NzajNaWVrS3tqGnqwedHZ1oaWuVkSw7OtolLMPp43V5E5y+DRs3Ytlbb6K5pVniN1vj+t43ZAbus3LWIXVUnlIZ4ZY3Z7AXFUVb8a8nHkEJ+U371KeROnkqfBEu6ZpmfGeQyxG3HrOLW6pPYxWByih/M6zH3oVWZyuanXRO2FvQam9Dp70DPbYueKy98Nnd6HZ0oMnTgG5PJ1XY6Xx0dJN1wk/rwuqmneTqO1fofei1daPZ24DO3mYEAh7y9yNgc1Ocraj2l6PCU4pmaz06bC1op+112zoQgFeSxASsfnRaOtBtoW1ZfeixdKHeW4NufzvF74eH/HvQJm5OS6+9E+2ONnSQtTuNqYfSF7B5ECTF4bO40eJuQIevGX5y+8nfbe1Cm6cFbn8v/LQ9n81L6WlDo7cOvf5uyRs2n8WDRl8t7U8dfNZueCitXfYm2kYjbbMJbTTton3wU3x0ZaG88NJvJ8VTi64ApZH7AtA+uCnN3d42+AKhvOJvtZF5aE+avJQXaKX96kVbbwt6fJ1yXILWIOW9F17eDxJMAVqvzdpK6amHJ9jDOSWJDFo5nm609NSi09tE4UJ5GdoHuQCa7kMREmNsPGopf+Q7HHOWSyI/TjDC8z74KWrjuMu65M+tctxduNfhQMzwEVjwqZsRNWoYnnvuCWx4/1146NrO11NZi67dRuJCJ4qiDDF0EBNFUU4LLC5O7yAmoYUD78G0XfEI+XlIbDU0NqK5qRkdnR1oIYH05FNPYsWKdzB69CgSRzZ5T6KdRJPX65Ub/L8eegjr1q/DvHnzsHvXLtTU1MgHvv/y17/Qtl3yThuLqV63Wz7uzaKrs7NT3lv74IOV+J//+R8E/H5pYeMwXd1UYaNlTqcD+/buxa9/83/Yum0b6uvrsXvPHuwu2k1Tst278Oabb2L16tXIzyuQVrZ33n1Hvhu3Y8cObCZh+PTTT8uImN1dXdhfXIwd27djD8XBFfDkpCTjWm3UwA/MF2bAvA5icoJQFkmFkvJqsAxiMhCjGHAlm8SbHaitLsO/Hv0HNjbUIf8zX0b6rHkIRkbBys1zlGI5bagCzS3Q4fDSgbtirBHaBrkGDmIy83CDmAyIyGfzobi9FKv3rEFR9X7sry3B3op9KK4sQV1jrdQ9eoNu1Pka8OzS59BQ24C4pFh0Bkk0eVrR0duG3q4eqvRbYXNZ4bV70BZox9J3lmL7ps3IycpERIwLbnsvdtcX4ek3n8E761aguasZNY01KK4qRn1zHaIjIhHliqTrlYUEiw8b9m/E1sJtiKH8afY04bm3n4Of0hGfEI0NuzdgT/FupCYkwRv0YOP+LdhRVoiiyr3YV7UfpbVlaGptogISRK+PxBuJoueXPo/qpmrEJcSjuKkExe4yvPLOq2ina0aAwnUHelHSXIYXlr0Al92JNDoXWa20ksh76b2XsKdkJ9LTU7G/ai827d2IPRW7aXtF2F+9D2UVJWitb5LBj+wxdpQ1lVFePQufx4Os9CwSk70orNqJt95/W97PTaD8s9iDtJ9elNaX4vm3XoQnwkcirhvPvfyCXHPSMtJIaJIwIwFX2VCNztYuituBDaUb8f6695Eal4L4+HhY7VYSfl3YUbUdjz3/CFraWjAsYzjtQyQd3dDBNo956FZwQBkg0dVDf2vK1mNTex1S5y5ATGY2lSsKxN15ecLBaMpuXpfLmzHlnhL8a4ThuPhRFgs4DsKfEEBsAiITk1G1dQOKt2xERu4IpGZkSzd4iYPCmPEeq3G0YjRrtGwbZvpLGEoDO42dPpQxRghFMTneQUxUwCmKclr4SAVcGKZ+4/ski6w9RUX41S9/iX8/9hjeXPYm3iKBtJdEVAvFuW7dOrz2+ut48aUX8dqrr8nokaNHj5bh/Lu7uuUj3o8++iiKi0swfPhwrFu7DikpJMo8vSLwuMvkU08+KcLuueeew7Jly7B58xYRVrt375bvxT373LN46aWX8P5770nc3B2S5/mampycLJ8W8Pm80tLHlafS0lJUVVdj8aLFUuFaT9upq6sTodjc0oKSkhJ0UcUvMTGRxKlH/Nk4Lh5YxW6zG1WEUB4ckD8D8koF3AlCWcT1xMEk4Hhz4cbVWYvFD4fVD3dTLR77z6NYtmMb8m68GcPPuwiB6FgEqAbK6eQexXLeEEb3sn7M+MIx4qcpOY5LwDGh7TABawA7SVw88uIjeGv1Mqxc8x5279yJol17UFdbTwKtE5v3bkYgIYitu7Yi2h6F1tZGPP7yY1ixdgVWbVmFjYVbRGzEZ8ej09mNKn8d3t22EuU1FRhTMBr2CBt2Ve7CiytfRllzOYJRFlQ0V2DTns1YuvINlJKIy83MQSIJMrvTBrfTjXJvOT4gocIPXfwJwPs7VyI9g84PEsMvvf8yEGVFwYg8uINevFv4AV599w3sL9uP8qZKfLh5FdyebvS6e7Bl51YRPpt2rQNlEjJzsvHO+nfRGKjHrvJdsEbZUFVDAqm3C/va9uH9He9j9KiRSEhMIDnlRn2gCcu2v4malmoMyxqGd1e/i7Xb16GzuwNNLU0iQrft2YE9e/YiZ8QwRKZEYh2JrDc2LUdqejpy07PRae/Em9vfwvKNbyEhMx6pqcnwkPDsJOG1r6UYy7cuR3RmFKUPWLtpDaLiIxEdF4V9pUVYse4dEsNvorO9E8nDk/HK+lexfNVyBHr96Khthc1Dxz3JhZKmYklbTHQ0xo+eiCgniUTzgJvH/ZBTQ8CtZQHXUYv0OQsRk5FFi7hUmQG5ZY5+Q+FlCV+naM5Cwt3YjiHjxJf9uAs8nYN+mxNxyUlITozHdhJw1RWVGDd2LBLiEyUO/og9fwfRmB6bybbZ+Pwi4wckhnTkVkp2cToY+pUKOUO/kuCQ9TsUpQ8VcIqiDAo+LgEn8A2f/nhRO4mb/fv2kThzylPjru5uNDY2orOzC64IlwwewmKIW68mjJ8AO4mm995/X9ZjAbdz5y6qyLWSvx3bpbVrN5YuXYatW7Zg1qxZJKa60N3TQ8IuRdapravFzBkzZOCT9vZ2EX4cd2xcHMaPHy8Cq4YEWkpyinyGQF6qD3Wv5PS63W4ZnbJgXAHSaX+HDRsm4mr0qNEYNXoUysrK0EECjj9nMG3aNBGF06ZOpbRPNCrU/DiYYwpNDmDAvAq4E4SyaDAJON7UwUapsJLk8PXi7TdexL9eewXJl1+NsVdeB2s8qRJpJaAKqJyjvEZovVDCzXgOBfvLWuQ4bgHHGMVd1o+JjkJqRhLaepoxflQePnflLZg/YS7mzZqHdms7NpRsREp2OhqrGpARk4LUlCQ09jQgGGNBh7Ubpc3VaPK1Y30xCZc1S/H+xg9RXluFjq5udPm6UN1Zg1feewWl1eV0/chAQkwinC4XYKcEBP10XsagpKEK+ytLkZmegYbWWtS769HW24ryhgpKQyeKavbBb/Wgoq4czR2tyB8zDpHWSETGRCJ1RAYJgyosmDYfc+bNRlltOS688EL4PX5s2boFKRkpqKgto+1EIZ32o3B/IZq7GtHY1oD2nnb0UDqTUhJRVFWEXRW7SASWYv2u9dhXU4KtpTuwrXQbGpuawL1BOzp6MHXidHzyqk/hvHnnY87MOXRtSUVFeQ2Sh6ViQ8VGvPzB62joaEFTcxPKakqlO+q6PWtR0VSO2uZabCvchhLyL24pwdsb3kZ5Y7mEZZFU31hL6arDnuKdKNy7HS09LUhITsCYvFGSH+u2r5H84hamdhJ10VFxSMhJQB3l8bbdW5GemoEJYyYh2hkl4qrvoPOEW4N5IweUiSB6g91YW74BW1urkTNzHpLpGDioTNmpTPGjKEcgQOXLT26aJz8nnW8untK1isudg6J0kNtB0Yub16UyzVP+9iG/kxyTkYnIqEjs/uBdBFpbkJc/DtH8HU/a/smY1cojAodMdpdKvJg45SQ59PVUMsRwKkoIFXCKogwKPlIBF1YvkBsoTdmLu0eyaFu0cCGuuPwKLFmyWLpT7ty5U95jy8vLw90/+AE+edMncSkJIh7S/7U3XpdWutaWFrBYqq2tQXlFhXSlbCUhN2HCBPlIdxOl6bJLL8PlFG9mRoaIMa4k9HT34Pvf/4EIPubcc8/FOBJut3zmFhJJKdLClpiYJB/75sFL+tJL+cXwwCXDcnOlC2YiCT8WjR9+8AGK9u6VdO8t2otOEorcWlddXUP+RfKuHgvF6OgYzoDD5/cAfxVwJwhlEdfXBpuAk0LPUOWSW98sFh/2FRfhkf/8G/5hwzHppk/DwV3U7EYl08r39qDR2iEtb6FEm/EZcwfD/nLKkeO4BJyZvhD8/lSHuxPvrnkPRaV7MXL4CNj8FuzYtgPOaCe66a+6uQbZuTmoq6hDSkQi8sfnozfKg6mLZiJ39AiUlFViWM5wRPH2WCM4LNJC7fDZMSJ3GBJzklBUvh/DR4xEAZ2HkSQYd+wpRI+nB4up3OfnF6CmtQkVlVXIzx2Fzds24tX3X0NZYxmqWiuxZf82tLhbUVpXgsr6Svi9AZTtLUNDZSN64Ma7he9Jl8rWxhaUVJSiuq4aPW298HaR4nLakD0sG6VlpfKR/+i4aOyv3Y+t+7agpb2V8igC8amJ8MCL8n1lSIpJgDPWjoqqciQ7U5AYHY/axhoSLjaMyhyBXrq2FNM1aV/JPqzfvB5rNqzDrp27EejyUr6Mwa6aIlSWV2Jy9gR4u92obChHW0c72mrbMTJtJFISUlHXXIcubxcyUtPhbu9FZ3MHkqNSkJmUhfqaBkTHRGHStCmYPncW5i1eCC9dh6ooznISpnur96JgUgEmTpqAYWNGICotBrvqdmF7VSF2lO5BwEWlgcpWb083EqJj4bA5qYyEykCQx4rkqTFhuMLqtvZgXdl67CYhOX7yZAxLTEC8txtxdHzi3d1I5KmnW9wJbOJmv16a9oqfTCmcrGNOJUwPYnxuRFD5HJ0Qj5imWhRtXI+UzCxk0L3EQeeI1e+B5YTMS5VjN0ipGxbwIsh+frcs5wcjFivfA8LOgT7Y71D+ytmMCjhFUQYFH3kLnDmVTXIFNVRJpR8ZQIQqqm8sXYqV778v70BwqxsP2MDvoXFrV2xsHGw2q7SccbdLl9Mp33zjd9TGjBmDa66+BlVVVbjkkkuQN5b9d2Pe3Ll4e8UK3Hf/fYggQcbr8OAlLAYrSfQ1kVjMyc7Gs88+i7Vr15JgzCfh5ce7776DOBKWHD+/O8ddOnNycjBm7FgSjLUk0oowd948EXhdXV1U+RxBom6YtMBVULxtra244MILMYEqpLk5ufJhcB7UhLtROl1OyQapPEstW2YNwt2ECrgThMsVTQadgDMR8eaHp7cTz7z+CpbvLkLBdTcibcJkwOWi40wVbemTRlNJ6PEllkNL0SLHEQWc0e/NIHwToQh4wJBmTyuKqvfB6rLDR+WvpaMN7b2tqG+rg9fiQXNHM3Kp7DdVNSMzKgOx8XF44rWnUVlbja6mLvQ29GJq7hSMjh+Ni+degOlTJ6OlthEpwUR84twrkBCXgO3bChHgl6Nou3VNNWhraYM9YEewx4+e9h50NHciMhiBeZPnyrWlubtVWsp9Xp90U+YOcragFbHOGAxPGY7pBTOwcMZCJKUnYUvpZtQ31GLejHmIS4ongVSPmeNnSUuUM5riaidxWFKB1OQ0JCQlYH9NCdo97fDStqMRh8SkFBJpdajbV4Wrzrkc8+bPQwcJrgWj5uDc889DZV0lkkjUXLLofFRWViA6ORrj501AZXs1iblSLJmzGBcvPBcp6SnYVlyIKFskvnbdrSQG41FKQnDC8Am4YPL5uG7RjVg8/Rx00LYbmxpx8fSLMDYjD3XV9bjkvMswd9p8qjh60d7VRvtMoq2qDjt2FGL//hKkJaYhOSURHT66Vu3fhz2FRSQM6bhVFOG5t57Hlr3b0eXrpX1vwCY6F5rrGjFueD4SKQ3ylhqP1suErs0GNEPOXhFwG7GxZAeamppRUrgDe9evxf4Na7GPpvvW8XQN9sr8Guyn+f3kX7R+nbE8FMZcvnfdGmPKYWU9CrdxIyq2bEV98X5UlFegqrYGZeTeTOutX70K69etwoa1a7Bh3eqj21rD1rPJ/Cqso+n6NRTPmg9l2fYtG+Rd6+TUDDrdIkL7Gw7ngZkPimKgAk5RlEHBxybgGHKLgKPKA3el9Pl80p3pgQcfkNY4HiSgp7sbN9xwI956azkJpQDGjxsvQ/rzh7a30s3e6/Piv2+/XVrhuEsji5xNmzaK+GuiClBdbR2WnEMVoo4OET/nnXsuIqOiRBhyd0oeDIXX49a3CRMn0o3cRe5xcmN/8YUXERMbI/uzdetWineTrJOUlCQDkuzZU4SLLrpIRrTkd+hYaL333rt46smnUEGVOFdEhAi94v375R25Xbt2yQAsU6ZMRmREpLH/xs+BDJhXAXfiyFs2lFWDRsBxfZgc4raS5Ah4sH/7Jjz/8guImDcPeVddByuV7QAHojo1VxWCVuNBR6gufcxwWD6zje0NFHARmDF2FiJdUbRMAvRHbrpDl4UgCThHnAPjp43H2EkFaOluJ1GUhquvvBbTp0xHj7cb5VWlyMzORHN1CzKiMzBv1gK4YiPpfN6E8rISjEofgVFpI7F0+VI0dNcjMzcV5cVlpAzsmDZ5Jp2D0YiNi0VNbRU+WLMSJeXFiI9MwMwJM5GTmY2ujk5U7SvFhGFjMWP8DDpvLaghQcVDFRaMGIeZM2YhKSEZc/PnY+7YuYi0utBDgi8lIgVjc8egu60Lw5KH4bILLkd0Ugz2lu1D/sh8jBs7AXsq9uKNt5bB4XZg/ux5aPO0obi2GH4HkBybgsmjpsFlj4C7sxeeDjddA5IQcARQUVGOKQVT4KFjuHrvWhRX7EdPV5cMjtJKAquDRC93y+xs7oXFY0FjVS26SJjtbS6mPGiia0ssymuqUF/fgNkzZyI+Pga+Li8S45NQWFaIqsZqTJ0wHb1+D7YU70BLewfiIhIpXBzqW2rRQNe3rt4uuGl5anISFkyeh0kTJiBv0lhpEUyKS8KXbvkixo3ME3GdnJqCxpo6jMvKw1VLrsSiiQvluLhsdJ0O8oAhPOKjPPIITblcsNFhCvZgbflGbK8vR73bh/r2TjQ0t1AaQkbuRp6newBbvfiRwBe/FpqSn7m8qUm6mzaFrLG5kebJv7EJ1W1t6KJ0cLf55rL9qK+spv3uQl0DXcvr6lHTUI/aujoynrI1hKbhfmT14daAGrI6CttQT/lWV4OGmkqU7NtHZZvK9cSpiKZj0VfuTet3KEofKuAURRkUfNwCziAoAmvZm2/ir3/5i3SZ/NKXvoydJHgaGxrwqU9+iiofydJCVk838IzMTDidTqxetUpGj1yyeDHWrlsn34vLL8iXQUy4VaxwZyEmTBiPCy64AGPHjpWRJf/whz9g48aN2E+i6pWXXwm5i2nby6R746c++WkkJiWKIOTPFIwdMxYFBQXSVbOispIE5DhJX3V1NcqpAnfeeechb2weZsycIe+68UiYnV2d0u2L35ObSKKQBWRZaakIuk996lPyPp/NaoiHUM4fSHgeESrgThypjlJWDRYBx8gx53dzSH20tzXgP0//B5U+L8ZdeyNcVNH282cvZMg8blOi8JRIWZdmjie5HJbX533kRySOg1rgZiFC3oOiAOEF0dyITHlBAG2dTXjz/bfxHomr1etXS2t0U3kT7L1c2Q+isrpCWqf5Hbi0yDTkjc5DQlocSmr3oqRmL6ZPmIYFMxbB6/RhTeEaRMdHSYtab5sP4/Mn0vpVqKwqR1JSHKZMnigjM/q6PMhKSUdSWjJVvOuR5krA4ukLkZmei9buDhJD3chJy8G43HzY6XxqJdEwMnmUdEOMjHKCszDSF4Gs5CzERMYgIToB3R3dqKc8r2ysQOGOHTIwESIsiI9JxOzRszBz4gw09DTS8kpU07nsJkEVF5WAJFsClkyZj7i0WBRWFpJAqYeD/iaOn4j3N36ANUXr4LP6EBcbT+d/N+JIZOXQee7udFMcPuSNykd2ZhZiU2NQ0lKOwuJd2LFvt1xTImwu5AzPxLrNa7Bjyw55SFTaWEr72IqY6Dis3bYBe2qL4PF7ERMRjcJd2+VTDalpKYhPiIUt2oq62hrEBWJh91uxcu172LN7NzpbutFR3o5UJGMGCcFIEmqVhSWYkjkR18y9FnnpBSJMjeNPJiOb8lQOfOj4848FvZZerC7bgA1d9Zj46S9g6nU3I/8cuq4uOV8snyxvyXkYe44xzV9yQcjPsHzyY38xCpN/zrkoOOc8FNA8Wx65xy45F2MWLcbYBQsxkcpAoKUeThJYN332S7jqhhux8NzzyS7AonMvpKlpF4Qs3C/cLqLwbBdiMdkSCnv++Rdh7pw5qCPxbLE5MWHqbMTExPHODsDYd0UJ53gFHJ9ViqIoQwKpNLKDfqReyDN9nv3wrCwKABs3bcIf7r0XHq9XBjD57e9+i5UrV6K4pAT33HsP1q9fLy1fzzzzDJ78z5PyDhtXNPg7byyU+F00nmfhxt2phg8fhq997WsYP2GCdL9kcTdnzlwRWdxixsLqu3d8F7fccos87eUnwbExMTKiJIujxIQEFOTnS2tfFVWyWJzyO2zcMldWWiail5dHR0UjkoRqBQmsv5D4fOGFF0SgfeELX8B1116LtWvW4Pe/+50IzSuvvFIGO3HajXdO+urMfY4DGZBdygkwqPKQEsNjRvCQ9H6qBDhtAVQU78PqoiIkzJiN5FFjSG06qC4duuVTuWCXlc4Pqi8Ihykqh8U8x8RoZdMtI/WF/AyPAdMwt5WErtPrQGN5LcpLShGgczRI51hNMYmMqka43E64vBFw+e0ySAWPGOi3eOSbcE3eJnQHulFSWULnpRsXTD8f1y24AemxOfDQOeT184NnO4bnjMKkgslIiklCV2MHclMykZqZiNdWvownX3oCe/ftxfjhkzBp4ix0e90kJt/CG2+9hv+8/Dj+91+/wp+fvhdL17+Gf770D/zyvl/h/sfuw2tvvYoVK1egpq5W3oV99Il/456/3IOHHn4AO3ZuR2V9KZ59/Uk8//wzWPvhh1j7wYeoraxBVmoupcGD3IRhuOyiy0kodmLnxi1ItsdhwvgC+GwelOzeh4LUMRgVPwJLJi9CfvpoTBhegLnT5tA1w4Voupa0t3aTqOxEW1cbyuvL0UN5lpGRi2hXDIbH5+KmeddiQT6Fp0xOiUnFgomLYel1oLa6ga5jJD6d0Qj2BBHhdSLBEofzZpOwyc9De0cLbE6HdPUenz8eI0YPhzvQi672diSS2ByVNRKpUSlId6ZgXFYBshNz4aI/W4CubT6aBiPpmBrv/go2OtBshysHZIbGs8LnioQlIwu2EaPE7GSOPvdo2IezjSX3GPJjo3kyw91v1hF5sJBhpGHWEWNhG0k2aiwso0cjZvIkjF28BN12K9o6O5CelYWsYSOROWw0soaPQQ6tmzMiPzQ13YeyPORSenKH05Tms+kYZZCl545CZGSE8fCSd052eKCxv6KcHFySFEVRhj5mDZQrBDSRWapFZpHo+dznP4/bb7+dPIPyiQB+j4xHouT30rj7IQ9wcvttt2P+/PkyaIl8YoCE3cMPPywVtN6eHmSkp+Mb3/wGrr7mGhkRkr/F9iyJvm4SfGNGj8H37vw+rr/uetTW1MqHvLkFjt+9+863v40LL7hQBKC7102VSismTZ6MCLrJ81NyHqqchSJ3ydxfvB9RUZEyUEqvuxfvrXwPP/zRj7Bv3z5pHeT38zo6O0XwcTcpFoc8YIOPKr4cj8/vPcaqgVYgTppBlIVc1rnLrgxmTmXe29uF7YWb0eF0wTFhCtzRseRvkYYQCkZYSAxRBYBMhNZxcsAqHAdNxEILDsqagR4cjow/vO2Kd+DaT12DL3zlFmQMS0bOsHR86UufxbnnLcJYOq/OP+8CJGemwm3xygf1K2vK8dIrz6Oqohxjho1BdXkNVr33IaKsEbhw0fkYlTcWHn6STTvLLUDctW7Ljh1o7+pEVnaO8V6b1YtAjAVjCvIxZ8Z87C0tpXirEHRaUDA5HwsvnI+Fn5iPMQtGIxAVQGRsFHoc3YgdE4O5Fy/AkkvPw4zFs2FPcSJqRAyW3HAOLvzkhbjohkswadZkuFJcGD+nABd94nxcdvXFOOeaRUgYHgtXlAPZ/G22Hg8qqsvQ5W3DjPnTkT0iS4ZQDNj98vHvlLRUOB0RyE7NRkZCBqJsUegi0eZ3Ux5Q+vfu2Y9huSNw8RUXABE+FO7cgdbmNrnGZCSm4ZyZ52DiyALYbRbYA3S9GT0Zn/nsZzFywlgSVE74fVYUjM7D+XOXIDsmHckRcYiLIikWYUNVbYV88uTt5cvx7nvvSosgl5ukhERMnTwNaalpSElJxMixoxAdH4sACWufP0h57qd89csDBMp8MlqJp1zLZOsrIKGnBuTmssrlki1gtZCAtcJLUy9dN8PNM8Btzpvuo5mX4pf1LXT9JKEYP3UGkJiAPds3orO5UXoe8H6w5uIutJxCfgwh7SHid7DxeUT/hrEf7SR/WtxYZi5RlNOHdqFUFOW0cLq6UC5YsEC6DB6AGT9P++6b7LAgKSkZkyZNwojhIzBjxgwZhITFDnceu/uHd+Pmm2/GjOnTpeUsIyPDeOeMxBcPMDJzxkwRR/JiPqWBPz3Ao0C+tfwtFBYWYurUqfIR77dXvC0tefzuyoYNG7Fr9y7pCuaw22U0ys1bNpPfbrS0tmDV6lUiIPkTA/wxbn5no6GhAXFUGeLujzyoSU1trXzvjT8vwJ8J+PKXv4wOCs/dOXk7mzdtwnUkFllMcrgVK1bINXr8+AnSsndAfoQTmud9p6OjXShPAu5Gx/XSwdCFkss6H1E+rjywSnNdJZ596Rk0J6ci/6JL4IhPkHff5IygdHHSjOSFZk4Qjotb3PregVtlvAM3M48HMYniEEbAQ0HreW092Fq3A29seEM+UF1cvR+t7a2oKqtBdVkd0rMykDYsFRWdNdhIeZwVmyVd+fYU7sQlcy/BDYtuQrYrG1lpOfBE9OK1Da/i3e0fYA+do9lRmZg2cSp67V50Bbrh9vWgpKIY3TRNSk9FTUUjRsWMwuxxs7B652rsrtqF3OxcZOdkwZHoREN7I/bvLUaaPQPXLr4O6anpKKsuR1RkDMaNGY8p4yajpasRH+z+UD5V0O7vIOtEXUc96ltrERUfBZvLAXfAjZbOJlQ2VMALDwLOIHaUFmJXEYmu1mZYXHR987di2aplKC7fDz+p6qaWFul6aSFBtW73evILoJOuFVwXyx2Wi94eN+bPm4v8iWPR3dGO9kpu+R+PfQ37sKNkJ22rEruLd8l7vlMpncl0DfQ4/Wj0tGDjji1yXZ5QUICOznYU7S/CsOG5iI6JwMbtG5CQmoC5s+fIdSc+NxH1jQ2Ul2mYlD8BnZSP63dvwvayndi1fQfsvUDWiBzUdTZie+FWpCelYLJ8By7GOPIHnARc+vouzsYy+u+29GJN+QZsaq9F6qz5iM7MokV8Zp0ajPPCnHL3Yt60DS103WzZuZPyYQIS0zPFTxLERskMcvcNSS77HYycSyGHEczYjs/diU1rPyQxZ8OkaXMRE3uoLpSKcjD6DpyiKIOCj0vA8bUq3NiPW8KsVOOOjY1BfFyciC9+n4y7HvL7aSx6bDa7hEklIXPRhRdKN8Vp06eBv99WVFSEHbTOTqo4sjhjwTV71izccOONKC4uxltvvSXduLKys3HB+RfI+2hz5sxBUmKitJJt37FDBhnh77VxvkRFRclnB7g7Jb/fw90vecp+PLgJp5FHqZw3bx7OW3IuEiieyqpK6Yp5/nnn4ZOf/CTmz5+HsXl58s7FVFqf405OSTb2lXZangIPvG6HZlXAnTyDRcDJMaMtyoeJad5O2929uxCvvPsWUhYuRtasOYDTRXdxA05Wf9LIdRLp5H1kAdf3DtzxCDhKrNfmRWHVHqxc9wF62rqQmZCJMdl5yIzPxaicsSRiovHK0pfwwrKX0d3ei7n5czCLBNecCbMxffQsZEXnYHTWGHkHrKa9Aq9/+Br2l5QixhKLi6adh7wRY7C3vAibt26Eg7uQUi5sL9yO/UWlyI0bhstnXYHxI8YhEE3+u7cj2ZGE/Tv346WXXkQdCcgJWRNxI4nEhQWLkJ+bj4SoOOzfVYa1765HW1UDfB4v1lHcLPTqSmtJdFaju7UbLp8DvU295FeH2rJaGdq/vaUdHc1tKNyxCy5XJK6+6ErMGTeThKWX0liC+tIaXDzvQkydMgMlxeWww4l9+/dh47ZN0mqH3iAKRhUgLS4ZRVt2Y8/mXdiybjOKdxUjzsZdMMejoqkCe0r2oaahEZ2Uny6KY/q4aWioa8LDTz6Ct1e+jab6ZsyYOEO+1bZs2TI0Utjpk6cikfZtz87dqCytQi3tS/GeYuyj/epq7ERByhhMzpuITk83NhZuQoe7WwY2WTR1gVwf65rqsG37ZhJwqZg8ZgqiHCzgDlW22I89Q8vI3WPpweryjdjUVouU2fOND3nTNexkCW1FkE98y3nCWGCzO+Bqb0XN2tVISUrCiPzxsDmcHEqWiyQzV+53HIAZkn/Cg/rdXSTgPlABpxw3xyvgqExTqT4KvqCPIu4rooqiKEeFv1Pm94WGjz6JywdforgL4Q/vvltGc7zrzjtF3PTBVzCO35wyol0MkUIRyCL+nIBxubOgvaNdBBV/I85BN3MjhIGIH3EZvrwOf3eNh/PnJ8PcTYnfZ2MRFklC0k/7yXHxsOP8UW5+d45HquT1OCy/Q9fT0yvz3D1SBFZoOcNJ5ngD/MR3ANxlUvaDwvp8PplyevlybKwe2jeKsy8+WcgOme0nzI8rV7y9++67Dx+sXIm7KW8LxlFFlvZFr/VHhrORjYUSv+3T63Xj/gcfwlMvvonb7vwZ8idMp8pb+DE6vfB2uLob8PsoPVQO/F488swjePqDtzDn23cgYvIMLkhyXI0iYAg+meHwnE52HjcUD61rIwEbHfAhnkRK6e/+ilnuBHz18m8iPjqZwlCAI8CjUHZJC1UznRMBeefTZY+S0Qv5fO3qacLGneuwo2QvcjNHkoCbi7TYNKOCz4mW/mqcAQH0BjrQ4m6Bl7wjKY54a6zEsbdyD9yUJzk5I1DXVY9VWz5ElCUS8ybMw7DU4RSXBc29zTLcf3JMCjpa21FRV4b0tHRkpWYixhlHFSUeSdEPD9wUR7N8QiTREY3c3Fz4HXRNCHhhoXwIUDr8nC+ULMpxSRu/38UPwfmc55b/5uZWZGRkIyMpBREOG7r9btQ21CHQ6SbROpzis6CqvpYEsAs1tTUk7vZj4oSJiHFFIyYykoRZmwhF7g7qiItEdV0t2upaMW5iPvbW7kYTLR83ZjJam1pRX1ONOVNmIUDXjnXb16G1u432eQQmT5gGf9ArI+A67CTypkymkuDHho3r4aBt5GQNg4O23+bvIjFZjOER6Zg4bhLcNg+Ka0oRFR2NrG4spq4AANHGSURBVMRMRFljaM/cKG8ox5qN65CZmo2Z42ZTnsXK8T3s4edjZ2QPmiwtuHfl3/FAxSYUfOu7SJ86ExbKq5PF3DQfC6PkhwQceThokrBrGzb+9n+RSfvxuW/dgRQ61nImyQfIjfAGhxaTHFffNsj4SmyxBuFur8M///hruINOfPKLtyM9K8cIpChHQMqPxUelzYfOplp878s3hZYcHhVwiqKcFj42AWdOwxE/+uEpYaVKFcdrzNLv4a5vssgYwIRhkWYQpLpjKLL+WMI2Sy7jP2w7BvJkmnyOeuXtj8xAVgjzNJ0Sz4AtcPPQQMJWVwF34nA2sg0WAcdwBZVbwmxkPV2d+O2Df8WG1lqcQwLORxVIPyXGRmXCSA9XZMkh7pMXcHYSLlF9Au4vJOCSSMB9o1/AHS5yWtS3TNzhMyGsXjr3euGlsuqwR5JYpKq3n5aHBRH66tgUh+wQx8Xh6Dzjb+I5bfIdaS+JFk+wF06rk8xlxBVarS8NHJecP+TmZyoBcvPpL0EpPjsZhbH4OB/ZQQtYb4Q/f+H4GFnHIEBik1sA+eGPxNfXO8FH/vzdPietx/HRQn45kUNT3nJQm8VGSbKTOKeN8DtmFM5C4o83z+LM5yOBaCehyO/A0v7bKS7OBh8JSwdfs2hbLD/9QT+VWRelgZZz3HS+2yheEfd0DHnkTJvTSXGFBBSlw++h+p+Pv6XJ2zPSZewYGW+E0h8IeuDhNFC+ckunhfPMJMwp9B0bY3VDwN1PAm7zKRdwsmnaHG+RDyu7+L07C+1rTk0Zdt3/N3RUNeFr//19jBlTQPltniOM6TDWHEhf/KEpH10VcMqJIuXnOAXcoUumoijKmYB5D5Y7Lf3wP4s3/mM/MVnYF5bFTchHlhs3ZkMU+fkpO1WCeLAIrvSwEJT3Ncgt64TiMkWQRBlaxq0BHN6IkTETNxD2N5ZJPGaNIhSnRBZyyjKZp22QGSFD4Y+D419DGSxIWabCzMeQBQILHm5hdkbHw0aVaa4KG6Xu9B1nKYJ9kZvlO4RZXgcaY055BSnfbKyEyEOcdhnZMMIWC5vPrK6EYjeDszHszSe1OZVlfF6QgHHTlMSakyrVMZY4OAMs3ngl+qHKvLFOaD3ePIkzqkfRYpr2nWNkNoqHKvlWSou8M2Wek9zsx/GZxnGEz1MU3LLPozVKvIyIRGN94ze0Ld4mrx/grtAOOCjNVj/tA4ko4z0tHluSpm5yklkpTicJNv4wuZPyymHhT6zQun6r7K+FphzeHoyAyxJDQp6EIsXPcdk5rtA+k+yDwxlJGi2URt4nyjcbxWvl7XLaOF28nIWmmcc0b0UEHaMYEcaUypA/hT8AnucN0VQKi2EWc76/AJ0SjNjpj9JiHlZGuvySCLY7HIhITkG33y+jE3N445rOiecZY6IogxXziqgoinJmEH7jPegmzBXdARVMk1DYg5bTDFdK+OYu9/bQDZ5DcdeovtB9N35jG+HwnBhVHmSJ/ByUuBCyEQljvENouMUGrmJukzAWG+ns8zgstNCMUxm08JEMt0MdMD7m8i/HPQCvrwcd3e1wxMfBERkhXflE3J+uY20kzKgoy7ZYeHDVIrSAOdS2B5Y/080R8bpc42ZjASbxheJk4RMWdR/sZ27WXG7GGV7TMbfLcbNQkS5zPDUmsjK7JT9pGU/N9UUFhJabxsE4c3kabgPTEu7m9UxFIRLbQX60kLclGcnbZX8yeejDfhyWXKFpX1zs4CCmP8PLJM3s4HXJQg+a+sINnHJQ5pDLQ/GIuDQXECJOOU6Om9wD4zDnBZ7hRLHxOmwUMMhvi/E0FPyAdU4OLo99qeXNSeRURlmEu1xwJiaiw+NBZ0entG7y9VaSJOHMtCrK4ERLp6Iog5/QXfgU3tuPA76pG8Yp6HcfhbAgXMk21uEnzjQXatE7buN1j2QUhhzmRg+LpCSUno8rV5WD4aPB9XrzyJhHxzhC4b4Hwoec68NOmwXdnW3oCXjhjI9BgOalvfhYyutxwOkxUsIPMfjXSCVvxk8//D26vlYVtoHzpt+hjHWLTENunnJ4/mq66X9A+DC3hAvzM9c1/c1wZt3cQT/cF9b071uPdyds3lzWtzw0ZeOcMNN8ODtUGvrcvH1Kh0xp3h5yc7zmeuIf5g5fn/04bLhf+LxpZlhzynao5ew2pxIHRcfbZh3N+RW+r+wvYULT8HhFd4f5h8IFJSwtEzeXTu72GTCynOy0QhvgoX4C3B3VGYGo5ETS8AH0dHUZD8toeV/vT5pVlMEMn0aKoiiDm7A7Oz/hJ6lCFy/+M4RL+PSUG22PByax8XZpGzwVd9jfAeFDJoIqzM3rSJfLj+AvPB2mHZQ/IbFnVr+VjxOuPNKR4ANBJo0TZAHy49e0RNTRsSKFbgQYAIeVV8MofEdbC7qDPkSkJMLioIqqHGMKc4pFHMPp4nHTuARx9Nwi7bF40G3rhsfpgd/hhd/uhY+Mp8dtofUP6TbN9Au3Iy1jG7j8aOGPZie67qHWO1a/Y7FjWe9oYcKXs3tg+GPYho/CeGnqsXtoSuZgc8NN1uvwwWvhwV+4jMppcFrg6xxHzQLNR+cRW0RcLGxOu3yihT8Xw+fWwWeXogxOdBATRVFOCyc7iAlfc/jyxCaDmPzwh/Kttjt5EJO4sKGZ+QrG8ZtT5dAMyB8+PsYgJh9I3haM45f4dRCTo8HZyHZqBzEhKUTh+3rV0XpS4SQ/Ef1c66R/9ueJeYjM+HlxwOJHnNWPjavexc+efRI5V1+FgnMvQI8zSl7pEmjFkNySuPgZrohFWXjs8Oal5Y1q2zYqMzFsFRXY+Yc/YXyXAzcvugGJzgRYebAN3lQovScDR3G86TwaR4yTFxxLuimcHOvQ7MnSl6Zj3f6hOIl1+7Z/CI607GgYZZvXNnohcPn2WX1osnTg3xtexAtNZZjwjW8jfeoMWKwyhucJb+twyNYpYmswgOHudng3rMbSfzyCyxdegiuvuh4RUTyqphHwaNnHy80wRlppv6w6iIlyYkj50VEoFUUZDJwKAWfWUPeSgPvBD36A8ePH4wff/758e0g5OfjSzwLu/fffx49EwOkolMeCVALJTq2AMwKaYkoOgRyLUCcZioiPC3eRJW8zeB/8CpIv6EeCI4A92zfirgf/jrjzz8OUy6+CJyo29NqSyDb5PVkBZ8LDAdmpMhxFiXJUV2DT/X9Dz/Y9yIhIgjPokJZeReHyJWWMR9Akl9HOxaXHgm6rH6XuetSmJ2HqV76FzCnTT8kolCa8JfMhAm9dnoVQeR1JAq79/eV455GncNPlN+CSiz8BuzNSljNHawmUeA2nTFXAKSeDCjhFUQYNJy3gzKnVir1FRfgeCbe8sWPx39/+NhLiE6hO2/9MVzk6kp8sAmQOMoT4gw88gNVr1pCA+xGJ43Gal8cA5xHbQAH3dEjA5Z3oZwQ4PP3x5x34Y65sMmKezeg26fEH6ZgZbv4+4AGQNw8Rn+CyoHT/Ttz11z8hMG0aZt74SXhj4ijOkHiT439qBBxVHuCg+Gx+v+SFhSodzfxBbhJyAR4QgrdC/opiwi22Ug65ZZYLLZVnHg2TH0D0Jicjbs5CRJLg4Ws+9/Dm84eL0ImUTxMWYny28N2CuxlzmbTTtW90bzsal72Gd554Drfe8hUsOecCWmbXFjjlY0EFnKIog4ZTIeD44sTvn+3ZU4Tvf/97aGltQXp6BpxOJ/n3fwzbCKkcHuMAGKKCbhWUXSwCKirK5Zt6P/nxTzBp8iQJoxwZLmlspoBzk4D7+wMP4cmXWMD9lATcjGMXcMZhMSqqFn6DjKqPdL9lzcbjRQR9PEJeB3bt3IXN23djzoJzkTc2Dw4Hf4o4LH6KhweCsHOXtIZK3P2H36MpNxfzvvgl+OITqWLKFWYOdOoEnHx3jqd0nnP8toAXUQG3DNHup7QYg5soSjjc6sZmlDkest/BnzOgQuihabvVDjcP6CLLjPLNp8iJlCNeT6a0MsfI5ZG/h8jxugJBjOhoRvlzT2HDG8vxja/ehtlzF1EYmwy0yRs01z8cvLxvG2Qq4JSTQQWcoiiDhlMl4OwkNHbv3o27vvc9+aD2qJEj+1ogeLkZTjk8kkeSSUaO8WU/IsKF4uJi+Hw+/OhHP8bUaVM5gHIMcC7yoIiGgPOIgHvqpWX41jF2oQwdhVB11ui2auVR+lj8+Nzo6mhDc2M99hftxpZNG7Fp82bEJOXgG/99NwoKxlIl1Cj/5ojusi2/Dw5bAO3tTfjl3/6EfXYbFnz1a/CnZSAoLRpGxZi3bgg4LhXk4nWNBccFr22TVnAe6ZLmKHreH24Z5+/SKcrBGGXQLHNcSuQ7cKSa5NECqasTKYsHl2Cjp4HZDZIn5jb5zGEBN6yhBvsefxhlW3fiq1//b0yYNA0+/k4fh6OAvP6RkPgNp0xVwCkngwo4RVEGDadOwNmxc+dO3Hb7bZg5cyZu+6//QkxsrF6TjpfQld64UVBFiS79/3roIaxYsQJ33/1DzJg5wwigHAGzzBmtTzyyqNvjxj8efAj/eelNEnA/RYEIODvlMYUKv7uSm+UOVyQ5FivVLmUUe1oQCPjh6e1CbXUZ9hRuw64d21BWvBfNzY3ocXuRmTsSn/rCNzFx2lxpfeO4WbwZFc0AAnI8aatcgexqw+8f/DvWN9Zh8W3fRiB3GFWMbX0tGkKf4+QEHFeQucrN21eUkyW8HHKJOtZyyWXQKIHGGtwBWf5oln38oWcX/IyEzUnlP6uiBNv/9if0NnXgK/91J0aOzqNzigIe44al/BvO0Coq4JQT50QEXKhYK4qiDFb4bkqXN7rp2u12xMTEyCiUasdrsQfMcz46nE7JV/5TjkZ4lY0xq41k0uJk2GFzkhZzIxh/5stpD8Lqd6O9vgpFW9bijWcexR//34/wm5/ehSf++Wesf/8t1FVVotfjR0JyOq6/6VOYNm0anA4ShhQV6y8RT2wcN3nwwA886ElkRAwKMrMRqKhAa3kZAl6fhJOEmRZK68nCu63iTTkdSDE9Lli2mWsduDaXf1O8yYOXQJAqyc1orqpCRmo64hKS6BTi9/GMsIoyFFABpyjKIMWsGNI0dFPldyZORcVTORDN0eNHimRYETU5bF7SAukuGfTBQdPd2zbhb/f+Gn/5/S/x/BP/wI7176KjqZYi9pPQs8FPYsxvcWD+uRdh/LTZgCOCtjlAIFKc3AmTu0dy5TQQALz+IPKHDUOC14OK7TsAj1du9Cz6TiUcnZra8ZvxuOhQdnKEnxv9ZyELtv7vjQcR6fcjyeNGa/F+9HZ0YvLEiYiPizXOJQpz8ulQlI8GFXCKogwZjqHH98fDsSZLawdDmIMPHvsMbL082iHmrozy3g8JudLS/Wisr4HP2wu7zSKtc1zGAzxAjz0Cs+YvwXmXfAKR8SkUr/2wkVsCJON4/BN+l8hhR25uDkZnZaOmaDfcLU3yrhpvN6xe28chvBTlNPLRlziz6PO56gz4EN3egupduxAVG4/RBeOlJwKfW9qYrAwlVMApijKoMZ/YGu7+30EDJ8eoHRwdrSCcUZgVw2OCygeX5EDQD1/Aj3GTJuO8Cy9EZGwM3Yltouz4EwL8nhy3vOWMzMMV192E1MxhMIc35yImrQQSVzhGSrhLI8WOuKRkTJ42HZaaariLi+D0eoxgzIAEHxiPogx9zCIu50PI5PtudH65SMD5mxvQVF2J3DF5iEtNR4AWmueWogwVVMApiqKcDGZtQSoIYTWAgZUBqSGEmTLkMQ8jfxONq4BcBEwLh+f5ZmsjGWa3+mEJuNHe0gB3Tyf449w8SqSflgatDviCVsQlJOPSK65CzvDRtDKtfZQyw4u4gspTGbzBGYm88VMRZ3Ogefs2BLo6++Mgk4FLQqYoZw79BTqsuMvDD3Zxd8porwet2zbB2daKCeMmIjYu/uATVlGGACrgFEVRjhOuJB/0uJZm+0bG5GVmpSAUTIaKt/CL8rSAl4WvPiAqZWgQfohNYz/xN4+pjIoQoJutjyqQPsDvxsb1a/C///NLvL38bWTnDkN0bBy8tLTb74DfHo1zLrwUc+cvhMsZIbVP80ZtVEQPhsUbxUxYYOfBGEgIjhpbgPkTJqJq/XrU7N4Fi9fNEvGAu76ZZkUZ2tAJMOBpBM/xe2/iSz/OgB/Jfi8sVZXY/vYKpMcnYOLESXA6XRJAu08qQw0VcIqiKMdBMBCQYd/Niq+0eIgrGKbpLOSmmdC8jPTIRlVw7iZnuPsCK0MMOXJhFT6uO/rIvFRjDNBdlUeb5F6RLN74u2hWm5/KTBfqq/bjqX8/hN//5jdoaOnGJ7/0TfzXnT/B4iXnw2Z3wmtxYN6SS3DhZdfCGRlP26FIaWP8jluok1fo90BjpAVQxKLRFhgTF4urL70EGTYbNq14G63t7Vz6aLkZjt3GvKIMVfg0NAYosdDUPCn5y4T8wMQLe9BP/kG4yJytzdiw9DU0VNbg/HMvRVbWKB7jh85RMv4uh6IMIVTAKYqiHCdutxu7du3Cvn374PF4RJD1ta5RPcBsZJMf003wt/EMr37ZJ4Q5lcHNAdU8rvjRsWPjb035yFjaB1igs3CjOYctCK+7E2vXrMTf/vJHrHhzOWbPWYjv/uBnWHLRVUhIH4XzLrkao/OnYOyE2bj0qhuRkJxG65MQMz/21och/Nkn3Fiy8Qh7MjYKzXE583o9yBoxEvMXL0Hvju2o+/A9WLvbZRRM4wGCFjrlzMEozcZjDsMVILefBJwPMV4vUnu64Nu1BeXr12LCtNkomD4bNocDdrs8aaF/PR+UoYUKOEVRlGOg7/ZON/rikhL86Ec/wm9+8xvUVNeIN1eKZSp/DFUmQn4s7LhS3dnVhV4SfyLfwusLZq1DGRLw4Qo/ZIYYMg4oH2tu4eJRHx0WP9rryvD0I3/H3/54D5qbW/GZz38VX7j1G8jLL5DuW34SaqnZY3DDZ76CW75wK3KHDaeyIlFRHOEy39xGv08/5CetD1wZNcxiscMREYVzFyzE+Pg4lL7+MjpK98Pm93Mi5ftt/AmCQ8enKEMD81zsG6iEyrQ1aKNrrx1eq0vKeYLfg+jGaux76w1Ee7w4/8LLkZCSQWH5vNEzQBmaqIBTFEU5Bvoq7OSIioxEZmYmkhITYXfYyTNUBQhvLWEvqRxY0NnZiSeeeBw//vGPsWXzZvipEt0XlKdagxhS8OEyjeGWLyeJrggyR9ALG1lPZytWf/AufvOrn+CFp5/G5Mkz8O3v/QwLL/wEYhLTYLPZIQ1sdBv2WJwYP20aJk4sgMNmg5XUn/HH26A/qoQamNNDIGKPlpOQs1hIxFElFkEHhmUOwy0XXoyI8gpseu0VdDTVw+EPwmms0l+uFWWIwsJNBFxoPkgF22q10vkYRIzPB2dHCza99RZ2b9qBxQsvwNhxk2Cx2+kazN3ZuaVOUYYeKuAURVGOhnmHJ9XFowZmZmbh9ttuw6233oqU5GR0d3WhuLgEjU1NaCbbt3cfqiqr4PV5EfAHUFpahhXvvIM1q1ejqKgIdXV1IuKEI9TJlcEHHy5pt2LxxTM05fkIEmTRNgfsAT/qq4rxwuMP4KH7/oS2Hh++8M078YWvfxs5I/OpomkzhBuZeehZoFE9k8qEIdZkGS1kO67yEQrLLXjSBZNEnNXiwIw583HtxRfDu24tqpcuBVrbYCURp+1vx8/xHhLlo6C/3wP/spiz0EkQ5fUgvr0Vte++ja0vv4wJ+VOw+ILLEBUTLWFJ5smfogxFtOQqiqIcDbPGJpXrICoqK/D73/8ef/zTn1BbW4eNmzbhjrvuwD/++Q/c//e/49av3Io7aX7FihVobW3Fo/9+FJs3b4bX68Of/vxnPPLow/LunIlVq4RDBhZubCbSZZKmdjqK3D1x7aqV+OM9v8Gby17HpKnT8O3v/RSXfOI6pKRkUWCz1Y3gqTgMwdZn7EXw1Fh+/EhpYnVJ5qeUOZPSce21n8RV0+eg/JXXULxiOaxUsWWxyV09w+HZAV5DGnN/Bu7XQP9DG3eOlSMRcoeOC9nBmGEOtCNhbiecfr/+dY8ULtwG0u9npufgsOF+A5cNdsLTbKX9M88hfh80MuhFnKcbzVu3YvMLJN4yhuGGG29BSvbwvuF7fLRm6DGaogw5VMApiqIcjbB6GFfX+X22xsZGNDU2ibuttQ0N9fVYtWqVDHAyffp0VFRU4sn//Aftne2YPXs2RowYAafLicWLFmH6jBlS8Tc5cjVPGczwk3+H3Q53dzeeeuIJ/PPv96Gjuwuf/dpt+NK37sDIMQUUyiajl/LbaTK0OVc0ZW2z8mlMhZMpDAPW5Va4QNAKd8COmKQM3Hj9Z7BgzFgUPvEQqj94G+jupJosVWPDFWmI/tI5dDH3gaenZn/Mdh6D/jj7fQ/e1tEO6JGWH7jMjPdY9uVQaTt6WoYeZn6z8cMIO4m3KJ8XsV2d8Gzdgm1PP4eUiATc8JkvYfS4CbA5nBSWv8hokZFjubVOUYYiKuAURVGOAxZwfM/nkQblXSWa4W6VPr8fU6ZMwVe+fCtuu+02jB8/HjU1Nejo6MCiBQtRkJ8Pl8uFT1x5Jc4951xEREYYERIHVgtPF5xQo6KjnAR8wLmmSFN/MIBWEu91JN5bOzuwfc8eTJw+B9/6zg+w8JxL4YiMl0FK+H0cbv+QskJRDKxSy3zIUxrOQrPhdjQkHK9rrt/npu3Kh8LtiM/IxY3X3oCCuBhs+s+/UfrOW3C1t8PlC9BSY+AVTmD4NrnlhodhF+tbEh5i8BBK/oFGyRR9GpqyHxPyEjNbZMKNW2Z4MHrJP8pInnKl3wx/IKGthTKdwxtD2htm/JoxmLEY8bCvCYv7fjPiYTi0aUz4fLiFY/hx7MZ2eURG/jXNJHx90z4O+nKLEtDnPoT1Y6SWf418BCKCfiT53Uhpb0L3xnX48KF/wdrYhquuuRljp8yC1cHXXJZvA+NSlKGHCjhFUZTjgKsMxjDx/WZU0YD0tDQkJSfJ4CYx0THix+/AWfjDYASHk3ffKPgB715QHKcds8bCKoK391Fs8wyBs46PnUxFhVEF3WZFeXk57r//Prz4yssIOOy4+tOfxi1f/jpGjZ0Mmz0CQR5dgSrh3G1SnvhTTdMfyvpw4+UsGMyK6OHscBwUljcbcjOkMynNVgSsDgzPn4jPffFrGOFwYfNf/4j9b7wGT0cnrJQI7nrGpTKkGwgjFhYB/BFwFnGG+Ai3wUefCKAp74+4TQsl2Uw9G/uLJud5SwABsiCtaB4PXhbS7IaRn0n4tnhqtrLayMzWVmMZ/VCM5nY4XWacPBVRQUE4n3ldnpe42J+W8zExt83GPxxj+LE24+ZwHJkZtxj9WChBVjHzijUgjtCUMZd/lJh52JdnYWYiy0PGyD7S1EGFPCrgRbS7C03rV2P5X/6ElspqXHz1dZg8ay6sdpexj6E+zJLHZHyMFGUowuVeURRFOV6oMisVcHL2f5yb3caUl3D3SnGFwnKto7u7G709vVSRD3/7wqyOfDQY6VOOBVOwSZ7RlI81jyr61vLl+P4PfoA3li6FKyICMQlxmDh5EuLi4+lY2+iIhh1TjoPoF0YfLfyOJYtJ7lJpsToxfdocfO+b38ZFeQXY+cS/sfflZxForIPf44HffEmP0srp5S5mfqpBc6tNUGrSpg1OpMLPjgFJHJj1fPZxFzrRtrwOOXgVPm4iVikfzAqShOF5cnD2mCMeiuBhC7kZ9jdFgenPU/4qoM9qg4emLIM5jI0CW+TawPlrhOUp634fTb3mfOiaImHION0eDhNabi7jt2rFT+LjNjc/xcMj3vop/X7aXsD4KDzvBMG/4ekPnzLk/MjhbQ40htNk7mu4m49blD+AZI8bKV1taFz5DtY/+ihGOaJw57e+g/MvugyR/DCNIgpwxvI6IRNxzB6KMgRRAacoinI0wu7yXJUyxZpUvKhixO83sVjj1jWeBmjqp0oFV6S47s7dJUePGY2uri789S9/wVNPPUkirseIkAjV75VBhhwWPoY0sdmo4k3ijUcRvffee/Hr//01nE4n7rrrTlxy6aW03GaUBS4YvJoxMTBnDvD86OjfLN3yeWRKqwsjx03Bl/7rTly3aCGaX3sWmx57CM17ixDR24OIgA92abajSq/VAj+ZjwopdykcClVec39ZHHHLjIuOi4vOSxcJFwct5IoPizTexwhaFuv3IZqm3I1UBsDwBxHv8yDZ14NEsli/G3FiXkTQcqn4k3Lgz0Vw3JxfEdz6QxbP719RuBiyKPH3wUnb4VwLkDrij45E07WBwyX43DR1U1iPxOOkNPI6kRQPx89Sj9ePIf+YUBpdoTgjOTzFy/vBcXPao+i6w+bg9Ui0cRriOD0+H01N89K6PlmPMY9ouH08UHq45VOk5wBjf9NonsNy3rho/+Mo7xI9vbDV1WH3M89gwwMPYmxyNj77te9i2oLz4IqKpZBGK7jBUGhDVpSjY/sZEXIfFqqG0MXk4zutFUUZeojIMe+aJ3D5MFsw+P2hhoYGvLH0DeTm5mLBggXS4vFxXJOMlrQgvF4vekiAjR41St5746SyPw9ewoOVsHDjd9/SUlMxZ84cJCUlIXdYLqKjo2WvhlOYgoICOEgAMB/9nhjp3bBxI/bt24fFixcjKysrtOTshssV/8lHtKns8bHhvGpv78DSZW/iN//3G6xbuxaXXX4ZvvWtb2H6tOnYXbQX23bvw6wFS5CSkkHhab1QmRh8905OD5sVsbEJmEBl2NbejNUvv4jGylLEJyUgLikZVoeDgnBrlJEHIud4n2Rinp1mXIMDMyWS92QRlNh4EjSxJMYiAySSSNTIu35WFlQksEjg2NvbUb1zF7ro+DpiYxBBxzyRBFZMWwsaNq9Fd101Usg/3mKDw+OHz2+IWruFBBMJiCQSVjG+XoqrF3FeDwI19ajcT0LYGkSyi/KYcs5JeWg8AKD1unvhKytDvLcXSc4g4oIkqiitLkqri+KK7GpBxe7t8tH/JKcDKZT2YEsTynftRiRJ6ESnhUSfD+66WuwvLUWAriGRUZEk6igC2ofi3UXodruRHOFCCqUvjcpgCgnSJMqXWArDeeClON0WKwlzm2SamW/hHMrv9MOJGWiGv0hgSrO0jtJ+sRCO9bqR2tMJ/97dWPfUk1j//IuYO24yPnnLrRgxbgoszggqBxwBWehWdKoIxSr0Tcnhd3dh09oP6EjZMGnaXMTExoWWKsqR4Yc2XNI9VKaXv/xsyPfwWOgGc9Ri7aMLjAo4RVGOB2mR4toOcwKXD64icjsXt2zsLNyJ226/DfPmzcNdd94p3dQ+8msSXSr5YmlU8Dl9XLHly22AFhkPuWSe3LzvNqkcGX68puFijF9ZT2IkJGLD+VHAl31uJeRPHix94w388Ic/xIyZM0NLz274gYEJH0ceVZTfdXv8scdJwC1Dbk4uvvilL+Dcc85BVFS0fOvv7w88iP+8/CZu//7PUTBuKvx+Gx96LjKDGouFq5le9LY14P1lL+E/LzyDCmckxlx1Hcaecx4i0jNJVUSGhlsPhroO0k7Rv5FLXLYPX3DNJR9FNvC2wk8jTp/LQ0KlvAyelkZ4SVx56aB46fhmZKUjNSkeMeRuK6vAS/c/gOjsYVj4hc/DGRMDe1snSt9bhk0v/Qd+ux3Jo8bB5YyB2ws4R43AhAvPR2xaGjztbWgsKoKns1VEYUrQhobCInywbi1GTZmIMVMnwkv512GNQExqJjKys9FRWoI1Tz6BtAi6Hli96O52w2uPRsKEKcimuJN7WrD8pefhKJiCsVNnwttQBxeJvtXvrMDsyy5GGx2JyWlZ2LdlOz7cugWzKc2jxk1EPO2xv6IKzz70EFwTxmP+9EnYv/IdtFbVUUWPt8XvQAJuErJRI0di1CVXwpaSzgXeyLBw+o7vR3PsTAYew3D4AYKNRLOTrlsRJHQjSMTamurRtHENNj73Ajw1jTj/ostxxfU3I43yR15ipIjkwYPRmHxK4TSa6TTSTWcCiXZ3ex3++cdfwx104pNfvB3pWTlGIEU5AlJ+LD4673zobKrF9758U2jJ4dEWOEVRTgssEs6oFjgWY1IrZzfvnyHAOJ3sz96GcONn/P3w9dPYFaoAh9Yx3iUK4yPeFYaPj7bAHUjoMPUd09aWFixduhR/+ctfsG37dlxzzbX45je/idmzZsPlckoe+umYb9i0CTuKijF34blISe1vgRtcmGXuwIRJa5IrCmNG5WPK+EnwtLVjE1X868qKERUdjSiq5FvtDi4wEoO8RtQXheSUzB5td48lzMlgxi3pkxaaABzdnVj9wvNY9eLzKFrzIUpXr0b9po1ItQQQ2d0FX1Ul3Pv3o23bFkQHfEjKzEJvXTWKX3oa+z9YjpTkBKSnZcBKyq2RwpVs3ICAuxtRLhfsDhecba3Y9eS/seutpSimMrBz/TqU7NoJS1MzfJXV2LOFysX6Ndi/bj0cPd2YNHIEqvcWoWpfEXJiolBK69Q3tsMWlwS7vwd12yhcRwcam1oRRyIkOyEetRvWIq6jFd7qaiRGu1BRXIRcmx11mzajm4TpyJRkBNo6ENnahsjSYuzfsoGETgDJQT8K31sh+5Q5eTKiszKRnJ4Kd0UJWmtqkTZ5OmwJSZRx/UeFj685d3qO1cFlkF1sLBi5y6tMKVyfSVCe0jGl4xpN4i3W3QtP0W5se+EFFL7+JkYlZuAzn/w8LrzkE4hPSpfzz1iLOD07ItGaUfdNyaEtcMqJcrwtcCrgFEU5LZxxAo4x6x/k4P3jtPW1pIXVTaT7nYXf0qAwNDWruex/OisVxwOnf+NZLODMQ8DlSIz+zEPIx61ozx789W9/w7PPPYfEpCTcdedd+MQnPoGszEwZgZLzj+H3Hjdu3hwScOcNUgEXeojQlyZ2UPppwl3M+G0rOCKQmp6NmeMnICcqCntXr8KWNWvQQaumJ6cgxWGHg8L7qDwzMoqqrGsUfbbwTRgVcHPe9DU4cO7UYMbJAo6PJ38PLJEq/AWRTkzLzcaiaVORTKK7tawUrh43Nr25HFveegv7SND1kGiqbW5Gt8+LrqpylK/7AHHxsUByMsVlQ2tVNe27DcNHDENyVAR2b9mM6vZOZMTFo/zd5cij8jEsexhyx47FkssvRnZyElrq6pA/ezbm0LnV01yPSJ8Hk8eOwZatm9FFZea8efPQUVWL5PzxmHrxpRRXDJr27UFKTByaWjvgjEsAOrtQvuYDSlMV2lqaUFVRAXdHG7KjolFbVETpqkDxli3Ys34DuktLULNpHeqry9DQ2CTvwHU3NSJr6hTEjR+PyLRUJJO10750erxImzYTtvhEzqxQzvXnIU/ZzPPh1BAmykJ/jGxLiiKLN6Mk8fHjcmkex6iAH0k+N5I8bqC5BcVvr8Dmhx6Ee+ceXHHepfjM527FqPGTYYuMBn/3MBS1YO7LqSY83r4pOVTAKSfK8Qo440qsKIoySDFvlKaZvx8L5qbpTm21GiMNmgKAxRx3UxLhykFCyw4kFJ7+JNDHhKSLjN/VYz7GpHxsyDHiY8F5EZYB/IH2p596Crfffjtee+01XHbppfjf//kfeXAQFxtPK7EgN+DV+GgP/vzjfQxZH/1+8kcCJWCxIyIpExd84mZ8/7s/xTkj81H/6D+w7Cd3YdurL5LgqISVKv8uUm2OAFW4fX5YufZto2gMPdcHt6bwgCBcMWcBOTCfwlNyKuC4OU6u8NspfbaAjUSMDcH6WlRt34K0zHTEkICxJiVizOJzsfCzt+Kib/w35t/0KURlZyF5ZC7yF85BYv4YBEhETZg+E+cuPgdT8/Jgd3uRnjMMl1x3Ey475wLkxMSio60VgZQ0zP7qf2HBrd9A/qLFqGhpRlVrM2JTE2FJioNz+hw4Fl+E6NnzEDssC772ZrTsKwK8PnT1eNDe3o6ty5fi9b/ci8L330e0KxY2q0O6X3O+jiHhOWHYCLTWN6CzpxejRo7GRYvORXtLCzp8vZh/5TWYcOEl6CWRmpI3EgXnLAKyhiFpyiwMHz8F0c4IbHj9Vbx172/w4g9/gEe//31sI8EXTE2DNSbGKP+hfAu308NhYqYDJ+KN9jdAsodrpSLeqHw5Ajyoix8xJNwcDXWoW/kOPrznHqy+7x9ItDpx69f/Czfd8jmkZ+fAxu9sUkxyOpuFgSF36DKnKGcUKuAURRk6hNcQPy5CSeDqqHSPDGFWT0UQEOYyo+IqY6mJnzl/uPqM8hFANToW3Nw6yoKb37PkgWm2btmK3//+9/jTn/4krW6//e1v8Y1vfhPDhw+H3c7DJtCRo/B8pM1K4dA4jJzKcDOx9H0PC1RZ5lESvWQBmwtjJkzDt79xG35y61cwlQJsf+QhvPWHe7DrrWXwVVfJABIxPCqij/KPjIfdN1pSzC2ILAz58Z/pz7lo2OmAh+fn7fDZ12u1w5eQhJ3FxXj8349hxapV8JB4qejtRSHtQ9LUqchcsAje5FQkjBqD9ILxiMzMQULucGzdthNvPP4UVixdDi/F09jrwcvvfYDXPlyFiqYWRNI6PhKE0fMW4N3aOry1aSNsiQmo7+4lEdeKLn5Py+WCIyIKUy+5DPOvug6NJIDby0pkpMnS4n1wRUfi8vOWIDfSIQOYcJny8DWCBLG7pwvlpSVobm5GelYmYhMT0eb2YW9lPQr3l5Lbg2ETJiF9wmTYxo5F5pxZyJszB/Hp6UhKS0dsXCwJ2QAuIP9rL7sYE9LTMDopGedefyPGLjkfATsPoMQCu/+4hHM6jo8h501JH4I2zs8R+G1pfojAn1aI9vmQ5Pcg3e+Gs6kBFas+wNt//jPe+8OfEFtZg2/e9Gl874e/wMxzL0IwMga9FCG3XZi3B5mGduB07IeiDAZUwCmKMqjhG7BpRq1Zb8nKSRJ6TM/D/rOIa+9ox7PPPoOf/vSn2LhhA2686SYZbfKiCy9CbGysiDb5thaXP7FQNMZkSBN+NvF7ncaUfS2IS8nGvMtuxnd++D/4xi2fQ257K/b/836s+csfUL3mQwTa26nmHZCWEhetI98/C0XIrSh+qUlbSSBaaJkh4hhzm6c6/zjegGwX8FHtptVhR3DKLIy/4hp0VleiqaYG6ZOmITspHi1r38GG155Hd2c7fJw2qxN2ixNpGdmYOHcekknEITIWXnskkkaOwpWfvpnsRmTm58ETG4eUkaMRGR0NJ4nbaQVjkOJyoI3E1tS582GNSYA9IgbJ8XGItVuRHJeCyIgEtDa38YcgYWtqRPHWzSTu+HMO4xGXnom03GHo9nrhIyniI/HipP2IdjkxbHgO+fiRkZ2F+RdegJEzZmHivEVISs5A7e5daCMhGE0ixkois3DlOwiWFGHfspexZflyuD0+rNmwCUuXLkNldQ2aSHi+/+obeO+xx1G6azd8Ph6axsg3PhamnUrC4zvAzcqexSrtW8DCn98Igvs02EnJ8ecRojvb4N68Dpv/8Wd88Nd70bG/GJdedg1uu/vHuOzGm5E9bCSc9ghKvNH8yyN8sinK2YK+A6coymlBWipOwTtw3J2osbFBBpNIT0vD5ClT5L2j3t5eGcqfjd1qx2g9/fm2gcRKWWnpWfcOnLS80ZRb3fbuLcIf//hHPPfcc8jNzcGdd92Fq6+6iirIyRTCKL8iaIx/nqHKPpVNntLETyKQ34ErHPSDmBwaTuahksrnn/Eekh1xMbGYnJ+Pc6ZOxwinC+Vbt2LdO++gcvduOKlMZTntSLLb4KKI+N3PQCh/uZLeL9soy8I2dLjtnijh8fF7cGz8bbVEnxf59iA8OzajoaMLYxaeg+mTxpHC68EWSr8jOQUNpSWIiopB0ug8rPjgA1SV7kcWCaZJU6ciwuZEZUkZysrLsG37VuzcvRPj5szBpHPOQQ+JseIP3kXvvr2IoPPJ29mF3pYWVO8oRE9TM7weD+rKK1C6cw+aKssRxS29vgB6SfDaIyPQ1NWJdYW74CcBlp1fgKqGOhJ7/A5cKwKUHp/Ph21rV6OjsxMtXh/W7tqLYtqHRRddTOLFhsLVlFYSprFTpiIlJwdF77yN+rIy5IwZgxEjRqK9pRXnXnABFixaJJ/BcEVG4drrrsfUJUuQSGGC0ZFyULisGiX91NN/XOh+wN0k2aSbJAv7oHzPjr/Dl+r1IIX2M6qxDo2bNmLLU09i83+egLO2FlcuXIJbv/h1LFh8PhJJuMLmkPXpNkBpP73pPxz9+xU2JYe+A6ecKPoZAUVRBgWn6jMCdpsdO3fuxF3fu0sESEZGRt8yCafXpuOC88sU13X1ddLN68c/+Yl8w+5MhUvIATc6muGHAm8sXYpnn3kGHR2duOrqq3Ddtddi2LDhsJJA4/D8gXZzKrFQpZGFGy/n8s1Fz0MVz78/+BCeemU5bv/+L1Awjh8wDI3PCDC8p8beHowhvmhfeUK77uDHue5ulJeVYtWaD7F+3WqUNNYikJiEnLnzkDNjNlLGjkUwMpIq6ZQHnE9Wqwzfz58i8EqkRqynOmskpRSptCFSWtkd5/EitbkBNUtfxIZnn0CjO4Do6fOx+HO3wJ6ejLqGekSTiH/voQeRkpGNuZ/5HFo62+Ar34+elkb0dvUg2xqB8vUk3PYVIXn0cPTYgphy8WWYcfnF2LF+BzY+8Th6a6vgoH2NZfHa0YH2thY44uMQiIyFz+6Ax2YhoZiE8y+/AsWl5VT2mnDROYtg9brx2H+eRlpWLhZcfCF2bliH4XQ+7ty1E4GRozE+fyzWPPEoJuTmYljBRLy+Zj0ih4/C1Z+8CZ1l+/DSvb9DF+3o1NvvRP7kyYjasR2vP/kkckhop0THYtd772FMbiYJwmZU1NWTcAQio6IwfP4i5Fx+FTxx8XL0mdNfVGkLQZI1Fr+8o+iig2R+ZN3a1YUeKlP1WzejePVqdFXVIIHSP2niVCxcuBj5tO+RMfFG916JyyhDZqJPf9oPRsqb4ZQp34/0MwLKiSLlRz8joCjKYOBUtcCZo1AuXbZUWt7i44wnmuY1SaZSU9Zr1GHhrOHjwRMWHjRlEdLV2QWb3YYlS5YgMzOTQ56RSFkS4WWTMrm9cDv+8Ic/4Pnnnsfo0aPxne9+F1dccQUy0jMoNOWTZFRoyrnGZUyKl/xImePyzd5nagscY+SbsZTzwk/zQZsdSUlpmFQwDkumT8HY9BT0NjVg88qV2LX6QzTWVCKC6gzxMVFwRVA1nT+ebQnARxnip3M5FKsg2w7buMyH2fFgleNBFfzQ4bKRw07le/fyN/DOC88hLm8cRk6fib3Fe2ElMZU7ahSySYw5SYDu3rodlvgkDBs/AcU7d6KeykdKZAQy4xNgIbGV6ohAZUurvGMWGxuNzRvWI3PkWIxKz8SFJJw+cc4SnDdvNsbnZMHd3ITSxjpEpSRh5oQJOHf+PJx78QWYsXgR4rNzsausAl0dbVg0dQqCHe3YWlKOrJmzMZnmZ40rQH5sLHZu2gZ7Zg7yxo6Bk0RmyfZt2LZtOxppfxadfz5GpySifuc27F2/ARYSfJnTpyI7PQ2ZHh9Ktm5DTGwM2lpapLXdZbMi2mXHV7/yZSw57zw0Ufqq2tuRSuIoSGJOctr4P6QdjCH5+CiGLw8Pz/lvHte+KVkkrRvj9yI+4EOczwsXieXWnYXY9sprWPnoo6hatQp5cQm4/qLLcNPNn8XsJRcifdgoWJ2R0h3XeIzC555RLPmKxtOPo37KWzS32jclh7bAKSeKtsApijIoOHUtcP0f8p41axZNb0dsTKyE4eXKscHCRb5dxxVcEm88cMeDDz6It5cvx90//CFmnmEf8jZFlrjJ2NXW1oY3Xn8dDz/8MDqpMvypT30K1153rbTqGp9+YAFAIcnC73nyMIIj4BY4ikla4Pxnfgtcvy/nBX8Gw9gnG82xFvNZ/fAHPejt6kDRrh344P33sGHzBtR3tyN6TD6yZ89HBgmcmOxMOHnIepsT/IyZhaDRzTHIj4clBbwFA8low0kcaxaygONM9xkTGSUzqrMDxW+9juLKKky54kokJMehavc2jMvIRPOePVj//JPwU5jqNjemXXMTFl99LZpqq+CuKEZneTl2rduI8cOHwxYRgRV7izH1yqswMSEOLz/6MLqysnHxDTciodeNrr27UblnJ4r2FaHT78OIggIEvV50lJbDS9fAiOGjMGrBYkyYNx/L3ngdTeUluGDCOKx98y00pWViyRe/jNy4WFhKitGxcRPeefc9pCw5D5MnTkDtu29h+7pVAC3vofxLzshGkh2oIJEZExmNNrrO1sRF4+rrrsOoXg/efullpJEQ3FXfgOwxeYj19KB1fxFmLVwMjysCa9evQzeJ1emfuxWBxBQSQKG8D8v28Dw/OP/N8sKB+49TP3R+0K/xTTcy2n8bX29oFavfA3S1AzVVaNu5AxW0r/W798HusyI/rwDzl5yDKdNmIik5TbpIsmAL8nnG26MCx+emnZy8VSk/vB0y/uWPlX+U8NbMLfKU70XaAqecKFJ+jrMFTgWcoiinhVMv4G7HvPnzcOeddyIhPkHC8PIhUUv+2DGqGDzl97/8QeO43H///SJofkgCbsYMEnAU7BhuCYMaST8ZC1RzT7q6urBt2zY8++yz2E7TvPx83HjDDbTPMxATGqQkfL85t0QAhtyynBdw1ZTcZ1oXSoODE9vvI199M6D9MvOE32UyusUZ75sFSbiVl+7H5u1bsXbPLmyvqEAnqb34jDSMmTwFOeMmICZnOKwk5nwOB9x2K3ooL7naQiWzT9gxnC4e/KQvE8XfcB+YUiNl5n5IFzsKyy1wMQEvnO2t6KUw7tgEBG1WOAMeJPi8aN5ZiN38/lp3D4LpOZi06By6rsRj1fsr0FpbiWkkutqKy7GJBE8gNgrDLrwQExYuwSgSEoWrV2N7WSkmLV6CtvJKbFq2FJERDqQOy0EBlalhJEYcVP66ysqkRW/briI4c0fi/CuuwOoPVqKusgw5kZHwtbWh4OJLET9uHGydXVj/3PPY/c47iEtKxiwSh1VVlajfvhmTxxcgf8oktHf3or6uHhWUt06/H0suuhjVnZ1YvXUT8oaPQNPWQlSVlmH6ReejvKcX+ZSWht27sGftKkQlJSLgcqC9sQFJo8dixg23wJpAfpRZZtaGsl4GgTHFkWmSveTgMyFoCdBx4hwnYUYBWdDLPB0rG60ZSVN+ty2azo0Idzcs3V1oqalFxb59KKX8aN2/H5GU72MzsjA1fyImT56FYWMpz+Lj4LPa5N023pyxSZFxEj//GZ+m4O2FpZG/YfERI9s1nDLlfFEBp5woUn5UwCmKMhg4HQJu/oJ5uOO7dyAhwRRwIUKVC+UwSEbRT6gSFODRBunSfx8JuKVvLMUPf8QCboZkYb9YGToY6Zbdk6f00ppGFW32b2xqEuH2EIksh9OBL3zhC7j44ouRnp5ufBqA1zMFGcfDERLmR9f78kRmzjwBd6Lw/nHmhAaulHyyUQU24A/CRwKpp6sV9VUl2Fu4FRvXr0VhSTGa6VyOz8tH2qQpSCHRkjxqJCIS4mCzOym/bXBTnrq5pYXC+Y2+caFjYFTaZZ6PBTnNrDWuE7yUf80l7DaOp5VHKOQlEpfEYkg+Uglet5sc5EeiwekwxF1LWzOc0VFIsDrQW9OAluZW2CiNEdkZCEZEkjChOhEJqR4efCOa5r1+1DU0wUZuR2QE7I4IiZIHc7Fw5vh8cJNY4XyJiYlGQ32DDCCUSNcwJ5VHW3Q0ZxzsHh/aauvR2tCAGBJbSbmZ6Ojtle6nTmcEFT3+jAWX7wC6u0gUkTs6PhY+P+UZhYuh/OutboDb40F0dhrlI+Ck9HZT2ixURmNSEyhfSWC0NsPt9iE6azj8DhfFw4mlyCjbTBnko3kWcfweIfuZxt1TeSASHjmSW2A5D/mbgC5eTlMW8nY69hE09XSRaCvei/ainajZsgU1u3eTYO3EmOGjMWXKdEyaMgO5I8cgLjEVNifFwC1uobLEDPbzh5InxvCUc0UFnHKiSPlRAacoymDg1Au420jALTBa4OLiJYTUOkK/eoU6POZF3sgjrtoaNaX77rsPb7zxhtECN50EHAUYigJOoESzEOP083uTHrcH27Zvw7///W+sXLkSU6dMwVe++lUZrMXldMo+mrc/GaREdp5mQgVJBdyxIdnF+8pT+uF8sZEg4Qo+SyeHtwf+9mbsKy7ChxvWY03hDpRUV6OLlkUNz0VmwVhk5RcgdcRIxJGoDlJl3u+MgdvmRDcLIIfNeL+N/vqFmLE9zmOBj0/oT5ZK5ofSJtKj349DiEAhX5ZEVOcWKMmUeB5mxdgWbVW668k6XJ7IyQOxcFdANm4BomIAB7k5LiNOXpcRWURzHAGFY+XDUxZ1HE7KDoUh40Xsx59jYMHEbhn4hfad95W7H0oaJAaCBRStJC3EXBY5TlrKLWH86QEO6KEfL5l0lZZV6FpM8yy+uAXLxmJJ2srMWHk9I80cRV8LHKeHTcKYU04nVTR5QS8JUfKMpHPAT0K2s6UFraUlqCvag6rde9BcXgFbdzeGJSVhRsEEzJw6AxMmTpXPJrhJkAYoj0nXcoySbtkWO2k6EDMN4YsO5fdRwds2t89TKXsq4JQTRMqPCjhFUQYDp0PAzZs/H3feoS1wx41kFP3QdZz/+Njw/BnTAhequIqAo32rrq7Ba6+9hldeeYU8g7jmmmtxySWX9L3rZt72jrSfKuBOHN53zjduDeVjYmEVQQLF7+1Fe0sTaipLUbZ3J/bu3Y2ymkrUdHXCExMLZ04O4saMRcLwsYhOy0FUcjwi42NgszsoztA7UVTF4c8UsJtFFIsNqfzQPG+VXUa2mz4hJByniZx9nv0Yx5iHnjDOEWNFcVF4fujB1zRDtJmrc3yi+2hdIx39y2TKfrJRkiokynhdSZ9ZMCheFnPsZyc3vzfGSM9R2SbN07+ZXmPf2K9/f220kOPj8sr+EgVtiAfX4TVsrKTFxYuNcLxuvzDj7YY2QEgOcjiasnB2hIxD8EA03ORqoePo6+lCR30Dehvq0FlRitb9xXBXVcHS3Ip4hxNZGdkYPjoPOWPykTN8JNLTMuEkcc4DCfn5IEhmGGnntJkCcqjAaTXTy1MpgyrglBNEyo8KOEVRBgNnqoAzbtZDDKOGRInnXD3DBJyxW1R5ssLj8WDTpk148IEHsHnLFhld8/Of+zwK8vNhd7IIMPf96KiAOwlo3+UNRKqom4NR8CxrCRkAxe+BI9AJn6cHDS0tKKmqxLbdu7F5z06U1tWirasb9sgoRKenIWXkSGSPHov0USNI1KXCHhMPOCLhJiHgoch6KT4eoVBkCm2D36Oz0DLuasjZz1LEZuejSG5KiBwS+SEMbzlOpqDh4xYeiIUUY8YvWoeM51mHsIjk9WU4FiPoAch1TMoKTUPLJQqOnvxY/LHTFFYcmYQVpyG4pPzxQsNTwpnzhrBlB88anlJfk501tssLReDJ8TDmjVXoj6bc9ZGXcVg+bnYSsi5a10XpjvZ5EOfphbuzHU10rOqrq1BdtBcNZWVoqa5Bd1sbou1OZCQlYXJePqaNn4yRuaOQmpoGV2wcfDa7CG5Om/GhbUOY8rZ4ztgfSgT9h3J5SBDKRYGnfBRVwCknipQfFXCKogwGhqyAM+M6RJymN//wNZHTZ3gQh9r+IeI4pF845vKjhTseJI30I5WmoSvgzGxh5GPcXEnl40Bprq2txQvPP48nn3pKPtB966234qorr0RSUjIHkTBc2eUYzKw90n6qgDs5uKueiBzKCKMtyIDzk3PWYiWpRQF8JBxcdjssAaq4tDSjtqIUdWX7sW9PIYpKSlDe2Ih6EnTuiAg4szMQN3wEEoePReKI4TI4Sgz5xzgccJFAD9K1wudwImjnL9bxwBc2eMn48wVc4rkLJLeU9SHHlMsPTwwxwwnksAzPi0AjN+8Lz5siLLSShDXEFJdFWSITXseI3wjKGC1wxnKRL7RAygkvDIUxV5Aw/BOibzEt46W8jAWkxcbiiP1lKUEO9pcpC0Cjy6ed3Gwi2CitlCvS7ZL3S5b5vbD4vPI+XQ9dt3t7e9DR0IDOijJ07N+HttJidJK4RkcX4m0OpCYmY+ToMRiTNwHZo8YiLTcX8cmpsDlc8v4ip42TYOXzhBws4iRdlHDOL8432Uf247wTODVDA0m74ZSpHBUVcMoJIuVHBZyiKIOBoS7gpMLfP0s/nCKpdknlsH/jJqGQoXXlzRQzgiMRCs9BzfWFvg2fAiQN9BPahzNBwJn0dPdgw4YNeOzxx7Br1y7MnTMXN9x4AyZPmozIqEjeIWOfjjM/VcCdGJxffdnMGUAZYZQ2slCesKiwiFoykEq8/BmjGLrIw9PTgbaODtTxh7jralBSXobiinJU19WhlQRdj98HH4WLTExAdHIC4pITEZ+WhuicYYhJS0dERCTsUTEIREUjyN8Ro+uI304Cj7ft566SvH3jGPPZZ7xbZ0wDlFDeB1NOsJ8pQtmfzUw9v0MXoB3qW84LD4W5AnG4IGaWmMvNVfiMPNQ6ph9POR0s1CSPzTVJRfH7bvyun43Kq5OEEos0u6cXNncX3F0dJNTc6GlqQHt1BVpqqtDe0IjelhZ0NTXD7/Ejyu5ENImyrLQMjB45CiMpf7MzMpGamo7YxCS4omPhIZUrrWzGxgUWypx/PBqo/IXUq3GUORD/Gkd9KMKpNlPOU9kbFXDKCSLlRwWcoiiDgSEn4Mw4wqf00x+18dvS2iLLYmNj4XAYoxhyrc1sDeI/7r7FAk5GROSKC7nN6opxySULu6aal+G+66zEaThPCRK9sU1J3xAVcOFwOvm7bs8+8wwef/xxRERG4vOf/zwuvugiJCQmigCT/ZR9NrKA1znWe5kKuBOD80vyjIxLmekOq9tL3pjhWHjIcvrhPO1rgyEHZ7cxEEcQPspnn9sDd0crCY56tJCQq62tRllVJYqrSNg11qEz6EcbbbXX7kBMchIik1JhS0gSQZdEFpuejigSelExUYiMiKBt0AZ49BLaUMDK4s4YWIPTxYLHLuex0S3TGJnROH8Y3jeG59mfl/MZfiTM/Tfh0GKhBbwtzg/Dn3+lHZFcRsws0Izwxjy/u8YDrPh4P2iZg8skpZkHLGHxFvT4AM6zzg50NzdRxbABnY00bailecqvpjqa0vWsox3xtEqcw4H0pCQMS89ELgmPrOz/3955AMhRnGn7nbwzm7NWOeccyMFggzFgAyY6pzvHM8FgE419tu/+u7PvHM4GY/sMDiSDA2BMTiIIBIooZ2kl7Wpznjzzf2919+xo2VVcSbvS98x+293V1dXd1d1V9XZVV40SUVyFUJlYcRn8Emcej8/c/6w5NaLXejCM8Xg4R1hzSVjLR0fTbNLM8r+V/tCFr7oGI9a5WHBqzkYFnHKImPtHBZyiKAOBwSbgnMK9JW4ArxTmkikpABkBJsHLuo72dvzbv/0btm7bhu/c+R0prE827hwlK5EUvwLHH0ul2M22FDtNmMbZdFbgETcea0LCpUDgd1smCRZLJJOIRqLw+/3wijBkpweZEzzc5NeEI/+4T/lZ5zh4BBzjgj3vmeEPhEgkghUrVuCPf/wjVq9ebXqW5PAAkydPhl8KoQY5VxP/MkshfbCogDs0GF+k56lnlh0PglXzxpl9xJWsox+u59QjIi3kccFntklL/MfRFelCq4iUmj27sXvPNuzctR119fWoE7FS19go69kvI0zPjGmvB6GCPOQXFyGnsADBgnzkiQUKi5DOK4EvrwChUK5YEMEgu++X59nrFZEkQo3PJGua5EhMjZLM895MiAhkDR+XTVlJzEzl+Dg1MsycgLWOmGUxr4TFWipzt8mUgseV5P0mM1L2Qjou8SQSUlZ7xN2dZPNHWUgkkJbz4jh27eEuROT8U22tiLS2yHyHCIk2RFs70Cbn3ykCLRYOm+38cv588ZRfXIiysjJUllViZNUIY1UVQ1AmojfHH4A/4JdD9Yg49SAixxXjcZljl33zPyfWqViYZTpYz43lS5YyM5y3zzMLS+hZIi7jdxBgnakFp0w1VcAph4q5f1TAKYoyEBhsAs4g4ZiE1F5koFw2yKRVCkg333IzNm3YiB//+CeYPmO6SRtNYV/Wd6eTzgExLKdAY81zgW/VxbO1LFAEvL34bbzw4gv40AUXYM6cufBIQcuE4AR1ODAM/rP3OZgEnOm9TyzFbtal0LxR4v6JJx7HI488Yu6Dq6+5xozrxsIoxbM5eDmRwz0XFXDHBsYbceLuPctyVaidsuG14LWnVHKlo0jFo+jq6kRchI0rFjWCprGhAU3NTdhTX4um1lY0itBp7uxER7jTjMsWkx2FXV4zNd/tiblExLj9PnhZWydTiJDzeLwyETe6y7LX6zdDHXjEr8fnMy9g6IfH4+OymEcEk0f8shaSL3riiZQZK4/faqbjCSRjcUkr40hEZVmEGbhe1iWTccRiXUjEYnJOkpZKeuoS/wk5p2hXF28+eEVc8Tszn8SLV7YNiuDMzwmhIJCDgmAQRSJSi0pLUVJaguLiEpTKfK48N+5gSM4rhGAoX45Z5uX4GLuy28wzw+O1Zhj/lmvGiYuyYKVh3c+ZGdDbnu8J11giLStgmXVSXBVwyomKuX9UwCmKMhAYdAIuKwweu9ftRVQKSp1SEGRBzCcFnHAkgltvuxWbN23Gj370I4wbOxaRaBSFBYWmbM9aN4bDY+/obDcFw0AggML8IilaWqKpQwqTbW1tKCsvNzV30VjE+PvJT36CF198Ed/61rfwvnPOQUFBgREu/YKJKB4Yj2zgC7hMfsPsSeYpprqkwLp02TL8/H9/jnXr1uLs970Pn/rkpzBl6hQEpaBqDlo24/GbQqV1Mod8LirgBiaMV9aBOUUX3ispihi5Jnvdu+KPgsBn3OVayRrWerFWPSzPLGu85QqJYImZAb075blsbmtFc2szOkXctbQ0o729DXFJA+gnLMomEo0YYZUSsWVElxiX40kJg8JKxFlKwrVqis2dY46JNe1sqmmeOzleHrM5fnMOlj9290/RR2N3+z6f3whFCkKfTLns5zoRjH4RhGwyHMgVoSairLCgSNKLYhQUFiM/vxChQK6kO1avqxIxCOQE4DZhM8VhmsLIgdyn9rNCpSZ/jDwn/pwzYBDmMJ0VDlzZCyZlsdf13ITNQ48XTNxYs3bUqYBTDh1z/6iAUxRlIDDoBFwW8VgMq9eswWOPPWY6xsjLyxOx8EnMmTMHd3z729i8eTM+8YlPYNWqVaip2Y1zzjkXF198MYqLi404W/TGG3jm2WexY/sOVFRW4OKLLsb7znofXF6XGZ/sL3/5C84//3xs37bNnAsLk3//+9/R0dYuhbACE9bnPv95E16/YCJK/rHwKL+BLuAIBRRh09Oa3TX422N/M71M5uXn46OXXYaPXHIJSktKzHoesyWorMKxk18dQPbWJyrgBia8Kj1r4Hh9eL2sprLWdXOun7k3zHo2V+Y1Y0Gb9wibO/K+Eb/sR188O+FwgVtTqNHSiRi8qSR8FGa87rznWHMm4o1DBLDJdDIhy0nWqllijtOYCDy+BOLwFhHWokmYRoiZmjqfCKscS6DxBRFr6rxeSSM8cjxWTR+bMPp9gcx80u1BXAQZv8lzSzhu1urJ0fK+5BMtnswyo8GKIzbN5l5ZOOS9a61kWOYpp9KiX2o6Qic5R8vZigdrjvPOcm9wXff0YAXcvkIeqPCYs8/axLEKOOUQsZ7RgxNwzmOrKIqiCCzE7dixAz/96U+xePFijB83DqNHjUI0GjWFDBb+WlpasPCVVyTBdaGxsQn33nsvXnv1NbS3tptONf77v/9b3BsxddpU00viz/73Z3j4kYfNt1t1dXVYsXw5/vGPf6C9vR3DR4zAyJEjUc4mgFJ4Gyv74zILdCcaToHIfPMm0+bmZjwrQpi1nhRvZ551Fr7//e/jqquvRkmxiDcpnBKn4J0t3GiHi3M8ysDCub7Z19kSbxamcw+5Nehk5Id9P8kNwn9mHZvkJhKWuGOTxnhSxE7KBfb7EUtw6pKilAgkbxDIKUA6txjpgnKkCyuQKh4CVAyHZ9gYeEeMQ2DURITGTUX+xFkomTYflbNPwfD5Z2Hsae/H5PddiBnnX4r5H74KCz58NWZfcBmmvv9iTDjzgxi14GwMnXUqKqbOR/GEWcgfMw2hkZMRGDYB3iFj4akYJfuqQlz2G8svRSK3CKlgAVKBfBFyAcRSIuhoSXYq4rLOQYwDZVO40cxp806W86S8s54RiQ2Z8vuztJQC+ZqNX/AmKWi5LO5JkYRJV5a5RaRmL+9lXMfBzGV7hmnt4YA5GL+KoliogFMURekBhcOO7duRk5OD+QsW4Mtf/grOed+58LisJpJ0v+BDH8IN11+Pyz/6UVPrtmv3LmzfsQ1PP/OMqSW64brrcfutt+O2224zTSz/+re/or6+3ryxZ63RlClTcPPNt+CSj1yCD0lYCxacZJpbXnXllbjooouRm5vLYle/Y8K0/+0V/jEoRZn9m4Kl9eMhOCKMtZN33X03brv1ViOG/+Vfvo7rrrsO06dPRygU4obWTwqrzjb9jRYsBy7ZV7zn1eft4NwSrA2iQKEoYV2UVVNFc5kXBbx3jPgXJ9YQyRNuNzKkC2uqaF7E016EJZAuUTi0zizjcpiW5NRjWdqyiD2lW2beXt7LkuwsRIxTCSci+4pKmBFRRJZBxJqcj6XJrPOzDtQYl825uF3weGhu0yzTOjf5mQ0yHmXeLFlmLQqcYaASL27WItPMIASyY8u9d+uONX1mFOVQkCcn8xweGHziFEVRFBsWdKZOnYprPvYx1NTU4MYbb8QX/ukLePa5Z8FvXFgYys/Lx5gxY5Cbl4eiomKT7rIJVUdnpxFz7CggvyAfvoAPRRynKi8XnR2d5vs3NpekABw3dhzy8/NMEyrTO6UEYgpg5hsY6/sVUxjqtxLR3rmDqb3gjON8kJnH4eDsijUk5js/cbCPxsQfa934LSCbsF508cX4n//5H1z84YtNc1NuazVbc0qyVnhWAbUfkfAONcR+PhKlF7Ifi70fEeu54b3FKe8Sp0kfrykvDgUdxZxpfpviSwAqIzsUmbjsWcJNzWZGq8g9kWWmnSKfU3PvWfNmmmV8PcGpdTdZU+eX7c/Z1qQBttHJPB40ztOb+MoU3LKO05k35y0nmKIZN27Erawp5winbDlqTkv80XjeNDMvUWKGBRDxaP04vEJfxp8VphN+T/pyVxSFyBOSSagOjEw6oCiKcsJDUSPGZlUXfOgC3HXXXbjpppvQLqLiySf/jsbGBllvioTm2zz65/cvznAAoWAIJcXFRvjt2bPHDAuwZcsWNDc1m14SS0pKTEHGvCX3ecx2TpKdFGHHAmWXiEA2tXSahvV3yccO1YRv9pGZWuuc9UcWKdjKPllYNR1QSAmVIpZx9etf/xo/+MEPzDW44/bbcZMI6EmTJmXim3Bd9nEeieM2IlH2k9nXgV4H8UyvfZlyeFAQ9W1WU0ljdmQ7AsXEPx0pSpyp5Wp8UYgQe1UGExb/WY/9XmYEj8zS6NQXJjj55/jNXs7GhGGH7VhGW3KeJrPmUGR+LxO37O1oaRFfKTFOHbOWZT3DtcOmZcPjYmxkzo/TwzTrAI8fnFOiSZSaaff1dOayfamp7cuISa3Euu+kfWGlWIqiKIqkm1K4kdLMmjVrzDhvP/vZz7DwlYVgd9/Dhg1DKDcX0VgMHHvKqQGKJxKm0xNOx44diw9deKH5Ru7O73wHX/uXr+F73/seusJduOKKK0ynJBQE7NwlGU+YMJh0U9AVFxUhFo3i57/4Be697z4zSPWRIjt7cISc+fUsyfUndtDch+l+3eM1B8Lv/jo62vHU00/h1ltuxeOPPW6GBfjRD3+ICy+6KFPD6RzZETzCvTjU/ThxawqunGaZ0j/0Lt5o1nVzjJhmkbZZRaPuX/bVcbbJtvfQmycxPjactXXRXuZ4y8xkmTPb02+2GWSG89n+3oOzge23Vz9ZZHnv0+/eMXT4dryRHXfdcZh1tj1VrJpaT+OdY6aE982ByzIVcIqiKE76KfC7kWFDh2LM6NFoaW4WYRbH1VdfjU9+4pOmBm3ChAmYMnmy6cabXX5XlFdg5syZqKqqMgNwX3nVlfjB97+P8ePHo27PHoyWcG6/7TZcdullCOUEMVTCnjZ9OsrLy832JJgTwoUi/DimWW4ohChr4Pi6Peu4DousMoUl1aypKXkK9qojjjkMEcnJZMLsPyGid+OGDfjRf/+3iLdbEBahy6aTN9xwg4jhcWboBvpjLR0Pl+J3UDHIDlfpG+cR6s0OlEPZZi/2s+Ehh6v0C/q4K0cTHUZAUZQjAmuXjvwwAk7y1U/pkx0cm0Vy3DH2PEnxUFhUaLr+5n7q6uvMWE8lJaXm+zX6a2hsQH5+PooKCsEPVbietXAcN44dk7DHRNY6MbllzRoHBGdTy7y8fJO28sexo9grZXNzk+kEpaiw0P4+7AikvXKeFFEcRuCZp5/G7bffjnnz59srjwzWWch/+3Sam5rwyiuv4IEHHkBDQwPOff/7ccXll2PcuHEmXnkprA5KrMvCuDObHtO8SK6HHMe+hhGYMnmWrLOHEWB1SdbhmvOwZhVFOU4wz7qkCx43hxGow69/+p+Ipr342Oe/rsMIKPvH3D9SCpCpG3F0NO7Gzf90lb2yb7QGTlGUQUxW6bg/YHBMREU0UlyVlpWhvKLcCApHOFRUVGBIVZXtBoRyQ6bbfzaPdHnc4s1lxnPitsOHD7dq2rz2uEvin2KQ/inSuMxv6swg3zLPjk9Gjhpljf8m4fD12gG8YztkrDM68ljn4JJ4tbKcLZutgdB/+MMfIjc3D3fccYepdWPnMV57+AQj2Bg/ZonRIQv2NVAURRmIaAqlHC1UwCmKMkhxssqsUv6hwG2zzDRNl1ljznK2uzPPhZ5u+7FM+NluEkJPN9OlgssSg/xlH59jPbc5EMuGi451w7Ppf8x5SNBNTU2mZ0mKtZdeegkf/shH8O//9m/4wAfOM4OlG5EmOJq1xyEfc45M7CiKcnzQ/S2lohwaB57LqIBTFGWQYKSMgY3pzMf8adZSWa6WSJE1B2smNMdsDiQHFj9MQHsKo33RW9LcV3JN976NOz14s87XwkhDI6wcF+Ls4fDJDpedwCxfscLUuHFIgOLiEnz7zjvxta9+DVVDh8o15NVk01U5TvPH4x08mLiUqbkfjIuiKCcKzAP40o0/J4UdXCmYMnA48NxPBZyiKIMDySXTYklJ3qwBeZnQMamTwr8IE5ol4g7czObEmR4k2UEcDaz9WWd9UCb/nHlHbJiiRjJleumz1vWz9JCdshlkW2sbnvrHP8xwAG+8/jquvOIKfPe738V5HzgPBQX5sl+rq34Oo8DvAPv7MPoTE09yfOadAafGVbAicG96LiuKclzAx58DVrgl7/FIjmS9ULOR2ZTJXBTlwGAezHuJ91T2S9b9oQJOUZQBjpWcUYRwnDSOucOuUbhsYb31tJI925xSdl+W8U9k6pJlMYY9IE2OMjO1j52n75z3gZn4l3O3pva2rIEzLhK4MSvUQ0I2c4ZWoHDjcAubNm7Cj/77R2Zct8ohQ8zQCl/60pcwZsxo+Hw+a892TR2nR/J7v/7AiR0az9TcTjJ1Ym8venVUFOV4gI82C91WCmDR/bjbr9n0+VcOFHO7WPdS9x21b0Ts7T/H1F4oFUU5WPqvF0qvGZftq9ddi9kL5uHL/3It8vIKMm+fGDTNab52oLtiwueY02O/yXQHMkZwdZ/jgZ6r45OizUgsOU3G7gP3/Q4LX3ged9x+G+bNn2dWHEocMHTWopleM4Xamhq88MKLeOyxvyESjeL888/HRRdeiNGjx5geHJ09DHTB1hO+I2UcZfdCyTEAf/Ob3+Lhx5/Hdbd+D5OmWL1QMlJ6Oz1L4iqKMhjZO821HnCnVQP7aAq37sE9//vviKZ9+MTnr0OF9kKp7APTGkimvJOYn7CNUVvzHtz++cvM+n2hAk5RlCNC/wk4nxFw13/jetOL4aRx401wbKZiD4NtJYKSlB3sbjLJn4uNF7h9t7gYaFix0R0vPPaDS5fdEmcUIB4z/hzD2rx5iwntX++4HfPmivCQ4Ky97B/u2Toe/rOOI5VMYdWqd/HrX/8azz33PM444wx89rOfwdw5cxHKyzXHawkf7sg5HyucwUDvAi6O/xMB99Djz+L6W7+PCZNnipi1Binvmbs6NXaKogxenDTLeRnD0TzZDM5rC7hf/e//QxR+M4xARZUKOKVveC8R5hXMF1mqaWuuxbc/f6m9pm9UwCmKckTozxq49avX4Ee334LOrVvgT4tsS8SQcCVNBio+KOEkEz1Y+SW+GZbMWTVwB7PtsYNn6bHj8+DSZdkyTQHilrgDukSENLl8KBo9Dt+58w7MnS3CQ9wZD73FhbMnrmFNG5dZ68Zj4HVubGrEKy+/jN/85jdmDLxrrrkGV155FYYMqbTGwDNbM6MaHPHcG33WwP36//DQY8/hhttEwE2hgGMNHO+vvc9VBZyiDH6cnIbpJWcsASc5EQVcWx3u+dkPEU158PF/+hdUDh3GTRSlV3gL0XgfWfm5VQN36+c+Std9ogJOUZQjQn8JOI8IuE2rV+O/vvolTJcM8n3TpiDkoXBIWAIu7RVB40GiqwupRMLamOxrn3aqRy8pSdtyQiEJj4Vzi/0miscAJsFMrSne4uGwxG3WuR4I3JaxytrG3CDqPW48tnknNsKPW79zJ+bPmW38MM5Trl4a+sk6KxsQ8SLCl3kChVwiHseSJUvx4IMPYsWKFZgxcwYuveRSnHLKyQhKvDoMZuHm0LeAYw3cc7j25u9i4qSp4se6lzJnzBkTdwxDUZTBjPOi0OqsRPIo+U8Bx3Qh3NKIX//ix4iIuvvY57+Cyqqhxq+i9AazBZM1yK1k5iXvbW9rxC1fuJqu+0QFnKIoR4T+FXCr8OMvfxGnBTy4dO4sFJgWahQwknylOfCzxxJvpjt67my/yVo34tUt+ziUYzwW8DBTyeQhCiJLwKV8brQEfPj16i14K+rCLXd+G/OyBFxaMhGGznTf2Y8j2MwKQ9rUuj3+2OP47b33wiPrPv7xj+OSSy81A5GzmSbHsjM+JQz+Bju9CrhoTM7/d/jV/X/FgjPOQ1V5iRTm2DNdd9w5cGnwx4KinNjI0y//raeZ82aZiUHajWSkE6uXvIW4y4vxM+YiJzfXpAX65Ct9Yd0dVv7KfDLc2Y63nnnMWrkPVMApinJE6FcBt2oVfvKVL+KMHC8umzcLeSxHp6Lyj8mXCDjTNPBQM0jZjsngezZ3DtpZ4WTCPZcPlp7hHAzcVsykx5wax/3DXRm/3EYKGa4kGj0u/HbDLiyKuI2Amz9nlniTH+PCZcktt+zHihoRLbKdkw1ERbTwW7ff//73eOWVVzBj5kzTu+QpJ58sYthjwjACR4SOeUl9nOQfEgtWXMh5OWPXsQby0Uf/gt/e/2e0R5Lwp+PwpGJ2PBovGRgVNEVRBi+mu3cKN/OMMx1IISV5EFuDsLG4OxlFnA+6P0c8Wy+x9MFX9onkFdanHC4kkwl44zF7Rd+ogFMU5YhwpATcR+fNRi6/GM8WcNyBKVAfZC5J7yZt67kdw7MzXjNoATGq0Tabw0oWD/JYDdxhth1MGOKfNWJSoGATyWafF79asx2LopaAmzd7pvFlSTcLpwaOxreDFHHV1Tvw9yefxCOPPIKcQA4uueQSXHTxRSgvL4cv61s32Uj+8RhtsmYHM+aseM/YWSfv8/q6etQ1tiAu9zu7FpcsuM9L04ezoiiDACcZs6Z8msW4wA9cJV3oaO/A7393n2lmfsWVV5nhUwjTCdujWVaUvchoLBeam1vw3Tu+bS/3jQo4RVGOCP0t4H4sAu50EXCXi4DL20vAeY1vpLmvPpKzXp3tzJQTq5rI8meOlfMidpg8uiXjpTszaDMjy45/Yk8OHhOoNXvA8Ji4Q8cOZnvxz7fBIsJSEn9NIuDuWb0Vb0Y9IuD4DdxMR5NkQs7sQVZ4RJwtXboUv7z7bry1eLGpbfvs5z6H2bNni5AL2P74ZwdyHML46A02S2UPqSYCNa9UlBMK50UX86zm5mb86/e/h2QyiW/ccANGjxpl/BgBp2mDsg8cnVW3pw6XXaLDCCiKcow4+gKObzj7SM72lcqxCYxpBiMFcGM2Jml0jOsdeDLcHyf2/EHjhHswmB32sIPE1MB5bAHnEQG3BW/GRMB92+rExMkOGLJzdOyko7GxEc88+ywefughUxN36WWX4aMf/ShKioutvEHMKsAc/FkdD1hNTeX87amiKCcQTAPluWfayB54v/+DH5j877rrrsPIkSPNOiYLxhu9i2kqofQG7426ujpcftkVlsM+yCqtKIqiDFyYsPXNvtfuE9ZopVh7QrPdMjCJZJfwNObAtkg0/sSN3cUfkono7NV9X2ZvY47pEM6XpYes7XoLwXlRxynnYtEY3lmyBN/97r/innvuwcRJk3DbbbfhM5/+DMrLyqxmlfY3b5loOUHZK+7U1NROLJO00PRkLPMmLZQ0kSlCtx+zIG5mRn/66/XHe8Oy/cOSgKIoygkMRZHdEQoViFEhLln0IekNIOnhh+h+caI/SVgzzSdtcWemh2BGFHJqm3HrxXq6H2Divi8yp0lkhiGywJFO2YUOKYzUNzTgN//3G9x4443YsHEDvvD5z+POb38bp51+OvwBv3nDzG3YVOhEr3XieHgpibvMVE1N7QQySQvF+N2bSUeZqPKPJuuZOhp3e53+9Lev34HC0oCiKMogx2SRtjlkCR2jSqxZ61VoFlw24ki2dbHzCUlCRby1+IPYLtNtiRSaxDlJkWdq6uif2/Vm8s9Yb+sck3+c8ljN1Kav1Pg97tkbHQTZUUO4e5o5JscpjXA4jLfefAvf+9d/xb333ou5c+fiP//zP/GpT30aZeXl4t/27EwF49a9eGLinD+nampqJ4wx/WPyai1a9SiZ9J1GJWfPKsr+OFARpwJOUZRBjpMt9kz0ei6Lv6zM1AiQjAgRNzaPpD7zetHu8WFZWzv+smo17nvlZSxctx5dCfHDmjg3x4xztmOTSjHnOzoKwIxxmeFmm+OHU3t7fs/H5b3CcUzWmWPL8mOMMADHiDPtCzusbFjwECf2LumV89q9azfuu+8+3H77bajeuRPXX389vv+v38dJCxYgkBOw3zRL9iLmbG8m5r+iKMqJi0kVNTFUjhIq4BRFOQ7IEibMQDNiifOSzLlEdFF40YHrKJoMTAI9sjndPTJxI+r1Y5dorBfWb8ayLdtR6HZhRDAHAaN0xL9b/Lt9xr8lBrkvbs+dUVzJxo7QYs+YptdIij6qQ/FresukEdvNHK8dhvHDddyObmymKVM5DnNOXORhm2NxwqVfe3+c7RNZacLmZi4xa2y3RCKJtxa/he989zv4zW9+g8mTJ+POO+/ElVdcidKyUuuQ5J95t8w/HgvDEbPcxBRFURRFOSqwGKAoijL4sYWJwSiOFNIiUOIiuDqTKYRF6HSI2OiS+ZQkfXGvDw0i1urEa3sqhbhon5TLjyYRW9vCMWxpaUdxSSkuPe00zJwwHsjJQbsIt5qkGzUpN5rSHiQpDEW8dMo+dqVcaJblTpl2xBKIUgwGgmgRkdUo2qqR7qYHSEl2ZV1Y9ku3Zk8ALbJdWyKFqAgp8xWa+EuLcAt7A9gj4mxXKo0GCTPB85J1YV8QjR4/9jDcpAsR2Z7i0whB0xtnX8h6moTDDkg8IsTCXWH86U8P46Zv3oTq6mp861s34//9x39g3ry51rduDI8aTbY08wzBfNeR9eNxKYqiKIpyVPB8V7Dn+4TFncx3D4qiKAeA+WA709TOmhwMzpcEFBpNdXV488knMMLrxtShQ+DnKlOTRVglRRzhwpU0Cp0AVra24/HVG7AhlsT6+nps3rkb5eWVaBZh9dLOXXhp02asrN6FThEyoVAIWxPAk2s3YWNzi+lCP1qzG6FAAImiEqxsaMLLm7Zi0dZq7JBwOZxBfm4uVkZSeHTdVmzrjKG6vgHV27cht7wcdW4/FknYz69dj2Wyr3YRjyV5uXD5/fj7rno8X1OPZhGT72zfhVc270BLVwRVBXlIiXBqDeTgraYWPCP7e33LNmzZXYMK2a6wsETOBVi4dQcWbtiIdbtqEU0mUZwTQI7EDzVcnzVidBdjhV2n2IqmDiyu3o1dNTU4TYTqtV//Os4++2zkSjwYkUahlxVWJh/odlIURTmhcdJFTqPRKBa+8opJO0859VRJrwvNOqLlaOVA6OzsxJ8e/pO91DdaA6coyvEB80ajXoiIOtamuX1GuC1rbsWLGzZhRW09GnNC2OnNwZObtuFP6zfibY8Xb4nQ+/OW7Xhq3WbUig6M+3xI+bxIyroufwBNwRDeaGzG/e+uw8K2KJb7cvF0YyseW74KOzu6sE205JLmNrwoYbyzpwmN/jxsTXvxhw1b8HsRYMsknKW+HDy4YTte3bITTSkP1ndF8crOWrywfguWd8SwMOLCX2T+XRGYDW4PXmtowP1Ll4qfndgtx9Sc9qAhkkB13IUH1m7DX3bWY00ghLclGX9Atlu8YzcSIj6tJpcHRjKVRH5BIb70la/g1ltuwbx58+ATkWgKGmLZ4k1RFEVRlIGBCjhFUY4jKODsmjiX2/QcmYAX0c4uDPUCV8+cjAvnzMCOWBTv1NaiIJSHeVNnYOqMWYgUFGF5fQOK3ClcOGEExvu9mFicj0vnz0RVaRHe2FaNneEYZkyejPlz5qB85Cjs7IxgQ0MLukQ9pqNdsg1w+dypOO/kuWgOd2FVdTWChYWYP2sWZs2eBVduLnbWN6OzK4m0iLiCZBLvLyvF5xbMw1mzZ8It4mlnczM2ROJ4bsNW5ITD+MqMKfjO2afhi2edhqHjJmBZXT3W7dohwisX82dMxwzZLhkMYKsce5ztQPdHRpy5kUqmUFCQjymTp6CwsMjEHmF3+Fa32GljiqIoiqIMHFTAKYoyyOitVkjczDhu/A6MyxRxKXhkwSf6I5BMYHRBAcYFgyiWNe0inLoSCeR0tKNj+TIk312BUSLwRhTnoSSdwFDxUyDbFIqIqXClEYjHEJFtAhJmcsMadCx9C3mNezCqtBRenx9x2Yc3Gce0kBczgh6UeF2IRsJIJuLwt7agc+lSRFfKPgJeVOaF4EolRCBJ+G4XZub6MM2bxgg50JCIx3AqiSYRVnUiOsv9AcyS464SEZUv55XwurG7qxMd0TDQ1IC2JW8iskrCFQFXFpJwTY0Zk/Ve4sjosG5369s1Z95adkjJudKv+WktnKIoiqIMKFTAKYoyQOkWFPuG/kRkGAHHqeOWlAQuKQIuiRxZDrrdsiySTvwEXR4E0ilUFufjkpPn4vNnnIwvn3UaPnHyfAwrKJRgXEilXHCLX3b8SKGTFLeACKizpk7Cx05bgM+fuQCfPPskzBpWDl8yZr558LFjkFQa7ngCQZ9X9pYWkVeCy09agM+ecSo+e/oCnDtvOgryfBJuzByfV8Lksfo9LnA2LSLRJ6IxL+BDs4SzM55Cpy+AmNsj/lPIFXHoE1/jKspwyYJ5+MwZp0m4p+C8OTORk5MjAVC8ygHzoBkNjhnx1kOM2U1Ojauj5ghFWy/eFUVRFEU59qiAUxRlgLK3erDkBf/bAsVg+zGLnLdFnBEmKTaeRE4qjNyUCCpx8ogw8SWTmJKXg4n5uajbWY03Fr2Gd958HWvfWITw+q3IT7pF9LlRkIojLxGVoFIoC4YwTwRTXjSM1xcvwqI3XsdK8b/1nbeQF+tAeTqB0hRr6Kyu9r3JBCYWFmBWYT5atm7Bq2+8iqVvvIZNYh27diDkSaMoGUGxmEf2w+MKplIIyLGJBMMYUXJnDKkwnag8umQpHnhzMZ5+ewmatu/A3JJSzC8uRtPmrVj09lIse+ttbHrrLYRra0SDJeXc7Xgwxnnb2EtlNtlxlvGnKIqiKMpAp0eOriiKcixxhEQP8SFmJBkFCk3EjnHI1LjJshFtsmzGZ7M68gilYqjwpjCqqAAlwVwjlAIimEanY7ho8ljMnjgReyIRLN2zB7VdcYRCpfCkfQi6vBhZmIeKoM8MGVeQiOMjQ8px8eQJSAaDWN/Uhp0tYaR9AXhdIvBkd2MLClCYE5R9p+EV0TciJ4CPTJ+CKeNGY3syhhV19WgOJ+DxBOCOJzE06MeoghCCftmHiL8y2c+YgkJU5eVitJzPxSOq8MHZ0xDIDWJzQz3qm5tRkExhcigXH5kxE5NGjcGGjihW1jWhJSrhBtj5iCNu9447M6E7p6amjTMSx4w/Ojn+FEVRFEUZ8LjSbPezHxLphH4HoSjKQZESkZVM2J1qHHDyYQs3SZaY5jBx8rjd2LR6Ff77K/+M0wPAlXNnIY/eKOKYLpkaN24rOOkUdYyQ9iYRFjHVHk4i6MtBno+dd7CrxjQSyTRa5PCaZD7pdqE85UGxS8SV14eIiMS2WBd8IogK3B4RaW7TrLJDrDYZl117RBzKNu4IAj6gAyG0iTgrErUX8nvtga6TEi5QL2KtVU7En0ijRM4lzydhIYZmOehYLIoKCdPr8aPdk2OWc2VdjgnDbTpHqYkkEJFjLfZ6UcFaRRGocRGOdUkXmuXYcmJxlEoaXehn7EXl3GXf4m4iL4MsmLgRY+cuHg+aJbx7Vm/FmzE3bv72nZg/e6as2292oCiKomRh8irJszjkTWtrK77/ve8hmUzi+htuwMiRIyX5tYZkcfI0RdkXdXV1uOKyK+ylvmExSFEUZYDA7C07i6PwsObsSRY9/RLHTSwlGWbMJULLi8pgAAWeJNzpOExf+yIsvZKhlolgmShia4pkvGVeNrGMiIbpQDDViUoRRCUet/kujWLMlUwgX6YTxO8kdnjiSyNHhJIr4Ua+ZNbDAn7kiigyGoi6VfbvScQxRBwmib8xfh8KvR7ZR1xEWALlIg6HiZtoStFUaRSkoyiTMIM+fqfHGsaUHHsK4zwuTBNPQ71pEXri7onDl+zCMFcM0yWc8bKu2O8RYWqrVgpUY3Ku2VNTS2l5seLImTqmKIqiKMpgQAWcoigDiPfKtP1qi+xNsv067nTjgOKcmiaDbF5Jk+SP34XRLSniRgSaqDTxK4LHmC2IOGGNFmuwWKPIHhpTYhRZLlFy7oC1L4okunFfXE9EJFpT20wtmISVFBNhacwr2zMA0zRUPLH5Jy0pbuYQZMrtTLNRrhcnGv+Z/RhPssjknMfpk6k9n5k689y/M7UwQSmKoiiKMmhgTq4oijJw6dYa2bPdZIsax4xOkRk2ZaQDBZBZx2m2uJFl07kHhY8jbHqspxnxJFO3uGXCF6Ob0U90lBmPLHNT4+h4pPEYOJEpxRtEtKU4FUsxTDF+u0ehSLe0CDsj5LiRwP0aEekXNwo0mXf264hELhtRKOuT3L6HmXDF5MCdo8o2RVEURVEGByyCKIqiDBAoRih27GnGrMSK47p1f49rSw8u27N7Y7vzH4Mw28mMaWrImiuZN8Gbf/JHfxRSFEvcG93FL2vluI2bNXQypUgj3I7r3PRDgUShRHcu2+tNmFwWc0Qdz80Yl+1aP7N/7lP8mzCdcHk8Ei5FniP0TEzQ3Q6bYbBpqDknMed4LUVnmSPyrAOUw3IZYzgcVoHhsvdM2ZCeFEVRFEUZwLAkoCiKMkCwBMbeJojgSYooici0y+NGxOtDzOtH3ONHlJ2OyDzdoj4xTm2jW0TcrPWWH2c+SvM51r0t/YTFrdt/VnjiJ8zwTJiOfy/CHnG3/Ru/sj2PL2aHb/zb21iWvU+Zty0i58NwwrafzLH6Aiac7OO09m1tH5Op2R/NxMneFpNtYnKMXM9tutyyD7cPCRFxlmxjPKt4UxRFUZTBgPZCqSjKEeHQeqHshtIiLT+Px4uNq9/FD7/6BcwOeXHegpOR58uBX1IuVmTF3TCDbB96/17crntbZ66vQ+b67nXWO7C0PbWOoTss+utecujd1cFZ09f+e3Pvy28GBiqeeJyJZAoptxcdLg8eXrkKqyMx3Pzt72DenDlIM0L3cWyKoijK3mgvlEp/cqC9UKqAUxTliHDYAo6CQ1Inrwi49atX43vXfwX5nS0YV1qOYMqFHLt5Ykwm7O/jwOjNI5NANjXshr76Shj3XucIN4tud8uFy3vvMTvUvddwneXSve3e/i241uisDD3D6QPjzWX1kyICrkvib0VzM6JlZbj1zu9gzuw5PQNWFEVR9oMKOKU/UQGnKMox5dAEHJMjGr91Y77HGjgf1q5Zi9u/dSOiLc0oDOXBk0zDy0BlPcWbs9Uh0Vutk3UIvbPXOhFwve3YXm+89rY+Q/ZO9ukx45Xh9XVofcMtnACsGsuky42mzi7kl5bitjvvwKw5sw4hXEVRlBMbFXBKf6ICTlGUY8qhCTinJoyZndsWcF6sEQF37XXXYer06fjMF/4Jwdw85omGw0+ZGNChZqvc+9FPGw92r2nWVsoWpvhgFKBYOoU/P/QIli5+BzffdjPmzJtj1ycqiqIoB4oKOKU/UQGnKMox5fAEHDNFk+/B5/Fgzeo1+LoIuJNPPx03fvObKCwozvi0pMnhwCTwULPVw9/7wXI4e+zeNoVEMo5f3fMbPPvMc7jlllswd95ciXMtXiiKohwMKuCU/uRABZy+cFUUZUAj2Z6V6Unmxzm3CENPOgWfiBCaV+a57JH5E8bSSbHEQVoSbmMJuFIyTaUlLIlPRq2YMz1UcagoiqIoytFBBZyiKAMaireUJFXWm0uKOA/cLrf898BLc8mcGF0OzfjrzX2gmvzk/N0854MyazuXzLvcMnW7JCSJTYlYDu9txJu+HlYURVGUAY8KOEVRBhDZ9T971wmxJo4qjk1RTMtv25x5x/3grTvMwWLsSfLQjNsyDJ4zm/3INPNTFEVR+hsnbdU0VulPVMApijKAoFhjsiSW6Xij25VTkSFiIkRcKXBwb/lvDIdqTreOh2TMknsJ80iYyzJHbFlNSw/B5LjT/BZDjD14JuQcnFBTXCdhK4qiKIdOb+koX74pSn+hAk5RlAEPtdLeOaIlYYwZIXUYdrj0FuaRMIfMclYcHKj1aCNpyTbrZ/lRFEVRFGWgowJOUZRBiq1k7Jq6Q7fDpbcwj6QRW4wdjGUJtL5CVRRFURRl4KMCTlEUZdDhCLKDNUVRFEVRBjsq4BRFUQYdvdWhHYgpiqIoijLYUQGnKIqiKIqiKIoySFABpyiKoiiKoiiKMkhQAacoiqIoiqIoh4L9ebFppJ79qbF+eqwcQVTAKYqiKIqiKEo/YY1gqihHDhVwiqIoiqIoinIo2FotU9nmEge6OaYMSgb65VMBpyiKoiiHgVsKbG63W01N7QQ1j8cjus0q7mem/GnaMDhNrptLpkaMm2s58HClBXu+TxLpROaGVBRFORBSqRSSiaS1cAjJBzO/tPy8kjGuWb0G1153HU497VTceOONKC4qyiSs5rWnJk/7JyueOEkmk7jnnnvwzDPP4JZbbsG8efO641Q5YJiFxuNxc6+bTN/F96J6UyrKiUZKfq0tLfjhD3+IRCKBr/3Lv2D48OFmnZMa7LfArfQLh5f6Mh2HEXJer0+E3NFNy+vq6nDFZVfYS32jAk5RlCOCCrgBhgq4I0JHRwcefeQRbNm6Ve73hO2qKMoJA1/c2LOxeBxr16xBUvK/iRMnIhQMdedPqt4GOHKB7DzQ7XJj/Phx+OAFF6CqqkouoeXOMsmRRgWcoijHFBVwA4yseOJEBVw/INlnU1MTbrv9dmzatMm6LzM345HP6PuNY3HdTfQMojhSjkOyEsTDgOVjJ79KJVNobm4y+V9xSQm8Xu/eKYJzyx+DR07pGyPQ5I+SiLWndXvqMG36NNzwjRsweeIkXmTb55FHBZyiKMcUFXD7YABk4hRwv1IBd+hI1snL2NTYiJsl/vgNzFVXXYX8vDxr/SAitf9iQP8iuzOFXnO/HeV9K4pN923ff/UqHe3teOjhh5FOpfHRj16G8ooK494zZdW7fmDCNKmzsxMPP/QQwpEIbr3lVkyeMtkIu6OFCjhFUY4pKuCycFLZ7OPsze1oIftOplTAHSqMJUf0NDY04NbbbkMwGMSnP/Up5OXlG/fBU0SznrOjjd5pyrGGd711Hx7eM+DU3jCsNhFw9/72XpO+fuxjH8OQyiGWJ+XIk52oSPpsrmj3v/0j+R+/e+vs6MS99/4W7e0duPXWgSvgtBdKRVGUnmSn1f2VbtsZvKG3MMVtn+v7k+yMTjlk+Jad+Tozd1pKllNScEskE6aGMzEozDrWo229H4ua2tGz7vvw4J8BvqBMi5kXlfLMJyUMzpsEgQk4/yQ9YNgmfPHDtCEztd3V+tES3ZZMWtcmlaZJunwAxutpTLbJZNj2ZCCiAk5RFKUnTLEdEZU9f6jYOYDkEYZM8zETNnN6rrDEgNmX7V8ZwJhraf7Zmb4UAuyp9Uae//WnP/0djz/z3Jv/DtYzz6l5oWP/zBAjxr3bv0nibXe1I2P2JTp0srbf+zoPHFTAKYoyOOgrQXbc+ymV5dvV9vZ2tHe0mzd5RlUdSmbA42GhPpkyTTJoJqwsmNEz8HA4jJbWVqvJKfdF97299jtOIcTiUE5QceLNutTWBTP/nejkVE1N7fgzYj/zzthhmZdyghFxdvpuxJq93hjXqx1ROxT22ta+tgMZFXCKogwO+kpPDzad3SuVfi979uzBL37+c9z1i7tQs7vmwILv4cnJ39ksgz2SsbfHn/7sp6hrqLczdWsDj8tjBOMLL76I//rP/8SyFcuM4JNc3ioM9MUBHZRyLNnH1VMUZZDjPN9Mz5mG95UmmzHEJC23mlxaok6T74EJr2l3uj3wU3AVcIqiDCL2kfXtK721N2MGahbot4+g2tra8Morr2DhwlfQ0tJsC66DxT4Y2barqwtvLX5LwluIttY242Yy8bTV1p5CjV3Qv/zyy6itEcF4SPs7AHoEu3cx4gjt8wRGY1RRjl+s51vSeZmJhCNWqw2x1tZW8Ls6Nqvu6uwy+Uk0EjECbhBoAmUQoQJOUZRBAsdn6f6A3DF+FE7R4zQJ5Dz9sDkiB1Y2lrSmlmiSHJcCSn7cns0kY7GYsUQ8jriYy+1GKBSCx+s1fhke1zMM+olFo8afOZZkCvFE3P5w2jq+RNYy9+Hz+ezwPHKErkx4zsfXHCuI3dC7xcx52KV/zlN00j/3xzCNyTZGjNKfbSYu7P1x6hgLEgZGD89btjO1fAL9GvZV26coiqLsBVNMt8dt0v7X33gdv/7Nr3H33XfjD7//PbZv24atYg8++AB+KW4vvvSSeZGnKP2JDiOgKMoRwQiJfhlGwIs1a9bg+uuvR04wB3NmzxFBZAkeCg8Ko0svuQSjRo0yyy0tLXjiiSdQXV1tiTWBU4qkCz54AWbOmmnCbG9rxxNPPoHa2lrzfUJcBFVEhFlHR4epDRs7dizuuOMOTJ08FYvfXow333wTkUhYBGMKAb/fpIkTJ07EjBkzTFf8I0aMgF/cFy9eLFMffP4AwpJpNzU34y3ZtqKyEjfIOWzevAUNDfXwBwISXgQd7R1YsXIFtm3dinPOPRc3f+tmFBUVSQFgK1584UXTpTC7qOcxRqMRI+QCOTn48MUXY9KkSeLuQVNTI5588klzzkaM2YLOH/Djg+efj+lyjDx/Cs+nnnpK9rfSxMmqVavM22Ge55w5c6xtlf3CWGKPk4zDRjMO3M3mGn3qk59CXn6euTcURTn+SSWTkqY+jb/+5S9IpJImnTb5jhjzCk4/KPnOhz/8YRQU5GsaO4DhleH14zhw9933O/MdvBlGYPLAHEbA813Bnu+TlPw0Q1IU5WBggmc1WRQOIflwatSYoNbX15tmjbU1tUbYbFi/Hhs2bMS6detQL4ndSSedhCFDqox/CrDfSeL76muvYuPGjcbWi/+tW7Zi+vTpmDRhEjwSJsd4eeCB+/HQgw9ikQisJUuWYMf27cZvpwiv0aNG44wzzoBXxOLPf/5z/OGPf8AWEVlr167Fa6+9hkWL3kRubi6qqqrw//7jP4xYY40XxeMbbyzC62+8YZpG7t61y2QIARFstbV78NJLL4pAfAULX11oBNSmzZvQKqKT3R6zNvHcc84x5/VfP/wvvC77Wbd+Ld586y0sW7bUhMdj2LZtmxm3bfTo0SZtZoJ///33S5ivSrxssM55w3ps2bxZznkGJo6faAvAmHkr/Oxzz5l1DfUNKCwswNnve5/E3xAtXBwgjCUnP2cHNM8//7ypZZ01c5YRzZpfKsrxD/M45iV8mbhF8iU2oXRaRHDCdKCktBTnnPM+k1bzZZsycGGqzWvGl6TLl68wrWTOPPNMlJWVWR6OEiwv/OnhP9lLfaM1cIqiHBH6swZu9erVpgZu2vRp+MxnPoP8vHyrEC2/gD+A8ooK5OQETDrFRLe+ocEUrJ1SNifsWrisvBwFBQVmS74d3Vldjf/4j//E2nVr8YmPfxxnnH4Glq1YbprCsEbtzm/fKWJqLf7nx/+DU045FddcdTW8Xh8efuRhU5P1lS9/GTOl0P7Nb94kgmo+vvjFLyInkINH//Ionnn6aXzuc5/HhAnj8ZOf/AQ7d+7CJz7xcZx22ulGJN51912m1vDLX/qyqfF7XkTVP3/xnyXDOAv//u//jo2bNuKaq69GXn4+/vznP5sOVb761a+amjKf32cylbxcq7aHGQ47X+ns6oTH5bbjmz2fWQWIfAmDAo7OFJH8LiMej+Gvf/sb3n77bdx2222YqzVwBwxjSWvgFOXExXnCXZLedoW78NCDD5lWGsx/2HEJ0wa+0Bs/bpzJs0aJgJNsx+RZysCE13Qw1cDpN3CKogxw+H2bFJjTKSPcxkmGOF5EEW3ChImSMY5CMBQUHyL5pODs8/sxbOgwy9948SdGETVOjLVNFDUUKnxrmpuXh2gsitKSEpx19tmYMHEi5s2di6FDh5pv3ZjZ7ty5E81NzTjl5JNN88up06eKn3lGWFII8Xs3Ju3MtAsk/BEjR1giUfYxpGqIOQ7Wvg0ZUolzzz0X00WEzp8/H0MqK02zzUpxLxdh6fZ6jNjiR/B1dXuM4HyZnamIsfkjw68QoTpu3FiMFuFH8caI4TGySemw4cMwUeKD5zluHM97HMaMHYuCfJ6zJd54nKxp4zGNGTMGpbI/U9N5FDMnRVGU4wEW6vmikun7xIkTTBNJvrthPsR1fLHGl4vFxcWSnmtxW+lf9I5SFGVQQAFiumTOgpmkkR4ydd56mozSzkTt3NQyo7JYq2f5p6TxuNlpiLWKmS1FIpsZshkmOzJhByDsWMTr8yEm66MiuPhWlR+u0y+/YzMdj0i4rPHjh+qsdWSvZKYDEdkPa2oYFsPv6OyUaQLhrrDZT54ISNYg8iy4r4Ss85gP4xMmbH7ndvXVV+OGG27Ar+75FeaKuPSIcLSQbXj+NLNo/lsnY9ZZ84wX5xydAU7p5pf97uVXURRFOSCYZDo17cxzxo4bh6HDhombNd4b8xa+cOQLRDa1Zyptp9SK0i+ogFMUZfDQV/7HjJQqRKZ9ZpJWXmtgJpuW5dy8XFNbxSYLv//97/HwQw/hITHTsYmExZorNllkc8q//PnP5juzBx54AH/5y19ME8b58+ahpLgYI0eMNB2tPProo/jtvf9nhg2gsOIumbkzM2cTxwdl2z/+8Y/4v9/+H3burMbkKVNQWFBoerc0b23lV1JSirFjxqC5udmEuWvXLtPkcvfuXcjJyTF+nIID/5u59ygwutpuMrHEXG8x814XRTlimPvQNkXpR5y0MNv65kBuwAMLiUkxX7qxNcOQyiFm3vR4LL/S0hLTTJ69GbOzk/2HpigHjgo4RVGOCP2dUVlZrvzvLe+lmy1q9om9Lb2yXsrn9eGKK68wTRqffuop/P4PfzAHzqaKOez50ePBSfMX4NqvX2tqrH75y1/iZz/9mWl+efPNN2Pu3HkYP24CLr/8ciP2Hn/8cSPUqoZUWWJLRBPd2TtlYWGRqcm777778PIrL+OCCz6Eiy66yDT/dGr5eFzFhcXmW7qTFizA3x57DN/73vdw1113mY5LOHyAA0Xoe+EJOkay54Ws2R4LygkOXwo4TxCnmXnHXW4XM8+b1CxLEdV+cZC9XTaO/4yxNtixHn4U5XDgndjTHHh37W1sf2Hdgz3NwlnrNi/gaM59yhd7ztTZgs8BOzEaO24sCouKzL453EtxSal5Qcdmlr0dl+PgyrK9PVjw1Z7VdqSXlcoJi3ZioihK/yOpCpsY8q3joWY5zED5FtMr4mbN6jX4+nXX4vTTTsNNN33TfGvGFImpFwWSGd+N2zCdMjMMYR+IH/p1xoVjRxTbd2w3Im3YsGHYU7vHHD97DuMwBWzeWCvCjLVhZMTw4RhSMcS8AnO7PKbzkOrqHaYJ5ejRY0x3/6zFGzlyJPLzC7Bp00azHb8/27GDXf3DhM3v09jzJP2yFnD0yNEoKi4058UPqGt27zbNLgsLC822Ziw5Nvu0T9N4PFBkIxNnYqaDGbk2v/n1b/DMM0/jlltuxbx5c40f5QCRuGfz2MHciYlzlOYZkinvCet5spoip+Te5LlYLwvse02W2bvsXvW5MsvtnAD5vDhNkOnfGXeQHk3cDJL4UQYPWXdjBt5lxpxbV8xuF2H753/LzDr5xyWTUqZ5P9OV964dgA3vfeNfjFOzhfitq6/DH++/H+++u8osf/C88/GRSy4xPdMyr+EWpoll1s/amuHZT5Q4peT5694j13UfAxv/m4xH6Xd4NZiOaScmiqKcwBy9xO6QkJSaGarJQiVDLS0rM7VpHGaAY7BNnjIJ06ZORSgYMn5YQ8ZaNXbdT6tkl/seJvfMWlOmB0yOCTdr9mwjtjjm26xZs1BcXGI6IJkkGcCUKVMk7GLMmDnDjB1ndXQCeEWQDa2qMuPblZSWmAyENXx8cztx0iTMnzcfE8aPN9/LmUKyxG0mdk0B4wAsU2B2popiPaUsmJjxqgTeHfwOk7UH5vmQ+80IMZlnodKY+HXuQPrn9qwZZmdAFIB0M4JP3Nltek4ggIAUYFnTHAyFTM00e2oNieDlCwkusyt2RTlUzH3cwxyc5Z4pIAUT7zpzvxoXmYpHqxaMQssRTpbJnZ8x4uzDCl9+8ozwnh4xYqSpjeNYnex50i95Q5rpL+9xPku2f1DQpZPGrOeLywzHCbkb5lQMw4TTEytA5QREU01FUY4YRyNf6SVLOzBMhmgmEgaFnGVWkxmPOXYucwescWCzL9Z+cT1XchsrI2a+3O2fvVw622VPnfXGD93tMPgnjrJo/ehgTS3/lkdrO7Ns3LIw2+/HiBWkoljI/cAaMtYimltMfuwCnd9vvrpwoXkLzfuNLxPYcQ4LluyR9bVXX0NDQ4MJgi8UaBy8nuMpcpxGc3/KH8uhHLB+zdq1ZuzElStWmnEPOSTIqtX2VJZXrFiBXbt2m15fzfOgKP0AkztKLU5ZmZaUW4uWcomrKyEmwolTW5A58A40qXWa61gDTTHn6C8r7bbMalZpYaXvodxc8+KPL+oKCgpRUl4Blzw7LskfGAD9EPp2ufmCgybLLImbHXSn89Zx8PhFRoqHJJjHcBy57P0KMpu9qJw46EDeiqIcEUzG2cvbxAPFKcyxgMiBvJ96+imMHDHCjKMW4JhvZi0zL85Z+8mkUwebXIl/7s/s0w7OhCV/ZjByzsoyz8f4kozWwGXO2ovM2I0fM+U2lnsmHhiOs2yvNOHRv/z22ofM08wGhwN3bYdhwhO4D9rSpUuxefMmnHHGmRg6tCpzTMqBwcs42Aby5rE592lbW7tpAtrS0oyW1hYjpJ5++mmsWL7cDGnB+9CsE2PNG5v0/uMf/zBNfNg1Os+9paUFb7z+Ot59912UV5SbfXSJ+OON99RTT+MPv/+DGYT/jTdex0IRhq++9poRga+++qoZeJ7r2tvazJAXrJEbyHGnDB54F9GY/JmmkfZtxdSV5vgwtcxyz5klW6xZvlIilVKS/ouQo5hj7XJKRB+bA8t8Mp5ALMaeiaOmd+JYJGZ6FubQp6vXrEcoJwfTJoyFRwKMR+OIRyJIxGNIsbdjdlrFWm8mIHYtnCtt7Y8yjdmL9RxYR2tVDZo/MStfMIdpkz1Peq5XDgwTv7xeco10IG9FUU5MJFlhcys2qTpUmAVR1ByRb+B6o+d2PVPGnuucA+CMs+5Q9t3nfnusONhwHZxgZMr4YZzqN3D9AO/xQfoNHJ8tFjxfEOH5/AsvSMEzapoxsqlwe3u7qZljEzCf1xqywufz47zzz8MHzz9fBP9mbNq0yTSz5MDFHAsxItuz0MM4YI0dX7Rcfc01RtgtWbIE06fPMF2psxmw1+c18ROVAi0LSOzgp2roUNMEmQJOUQ4YO21zkkxnyvvLpHV2/mOW5f5mnsQNKJUIhZLPK5JJ/EUjYYS7OhEOR9DV2YHOjhZ0tbeiUywm9zfv1XgsKVM2MU6JUEshLM9AWO77pMwzPeUQMl0JN2oaOuBFEkOKQwhI+F6azyP3uhc+OQ6f1w2/PAccv5MvfPicecRPUJ6FoqJCBHILECooQihXtpdnKijPDp9B05w5SYFnHT9P2LyM40+mTrrDPNH5/tycu/zoR9k3jD3G3WD5Bk4FnKIo/Y8kK4NOwGXjhOGkjpl5e0Wv6wRnvq/1JNtPNpntZKY/09tMuAxWBVy/wXt8EAo457liLdyWLVuMIGuQc3hdxBbP4ZRTTjY9pnI9e0ZlEYHdovO7ThZky8rLzdhW1Tt2YMXKlWZMw9WrV2Hnrl1mEHyuLykpwfRp0/HE358wvaeec845pskkB5o//fTTjJB78cUXsX37drOuqmqoufV4qyonOrxDnWSLwsROltJcoqN1l5i0jCttONe9ZOULxJVKIOhJi5ByIxyNob0zjM5IFG3tHWhpaUVjU6vc/61oam1DY0s79jR3oL6lA10i1JIi9NJsPsypPOvpNJvQ+0Rs+eHxBWSdPB9enwg0n6mB5/fOPl+OrPcZichmwRR+ybhYKi7pRQJx1sIlYkhE45AZeOR8PC6RlKmYqeFjY0mvK44cH1BalI+yEstKCvNQUVaM0gKZL8g16UwolCsiLx/eQBCRuKRHLr4ckR0zbWLc2PGTiRdZttImO+4sz7YRLp+48OxVwCmKcmIjycqgrIEjRzup62u//XU8TnzI1BR65KcCrh/gPT4oBRxMpyWmxo0mzxd7V/3Fz39uOhT5zGc/a4bRYI2a8/zm5+ejo73djH+4VQTZhR/6EE499VTjznuJw28sfmsxvvyVL2PqlCnGrbWtDQ89+JD432qGy+D3bkveeUcKQ1NMBz5vvvWm6c31mo99zIyzqCgWvEOtBMuWbOa/y641s5YsdwemacYP0zd5Lk1PjxJEJBJGa1MTGvfUombXblTvrsWepjaxdrR1diEaTyGa9iOSFDHmC8EVKgbyKuEvqIQvrxDukOQzYm4RbF4xlzsHaWMi6kTIQQRTmt9Luz2S38k+bbHHo+X+2fqex5OmMOP3dixLU6DJMs0joi6diMKdCMOdjMo8m2K2IdnRgGhrDWKdzUiGm5Hq2AN3rA0BdwI5rhjyfEkUFuShuKTEjD83dNhw03vykCFVyJdnKxDIMfHiNMU0x5CJTSIrRBCzyagVewrhXacCTlGUExtJVgZ1DdzxhBMfMjWZufxUwPUDvMcHaRPK7Gyfx7pj+3b89t57sVuEXJ6IMjaDpDvPgsvXXHMNJk+ahCYpDPPbNfYmyWaWnV1dZsratZqaGtPzKmvquD3F2cqVK00t2xf+6Z8wRNyffe45PPnkkybOpkih6OMf/zjGT5hgjudoFpCUgYhz/ZlGOc+P08GIuIkT70iPPHOUSFYv/+LImrFkBMlYGB3trWhoasHuhjZsq23Elp312NXQjpYuIBz3wJ9bAA9FWqAA/lChLBfCI/OenCKxPMQ9QST8RUj7Q5KxmK/RkJR9WMcjJofYfWwUQOagDOb2NestozOnxHix/XETM5WVZlY2NHugyPNImJKXsdbQlYyJoIvAk+iAL9oCV6wV8XA7kpFWsWaZF6EXkWUReZCp351Cca4XI8tCGFNVhJFDK1FVUSYCrxihvGK45PxSPCeej6Us5eysI2XNYto0y5R9c/8m3nmAksZlhPPxD6/HYBJw2omJoihHBCZ3h5PoWcVHK0E94p2YHO840WLHj1Ng1k5MDg/e3oOxExP7cTHzNA4+/+aiReZt/uw5czBm9GjzNr+jo8M0r5w5cybKKypQWFBgetdj7dyiRW9g2bJlpglmowg7Pqetra3Yvm2baZrJ79ko8DiO4cknn4zioiJs3LgRmzdtMi8QGF8jRo5ERXmFbCvHIdsrJzp8vcT/9vOTZs0V561l0wuk3Cdc4ku79vYObNu+HUuWrsRLr76Fp55/DU+9tBjPv7MJi7e0oyZehEjpNGDM2cid9iHkTj4HnlGnwT3iFKSHzkWyfBrixeMQyxuBSLASMX8J4r5cxF1+JOAV8yDlEhMRwxo2Tm25ZYwyh1rI6CEek23EmZLsdUwzaGZbYy4jEpMirhISflz2mXD5REzmWMcSKEY0OATRglFyrBOQkGNOVs6Da9gCBEadhMJR8xEaMgUoGoO2RA521TRg1Zr1WLxsNd6WeFm7dqPE0S40NrcilkjAJ+mTPxCAR86LT5yJXZm3auRY1pd4FjdzdFa0C5mZ4xorLgZPJyYq4BRFOSJYmRX/Hxoq4PoRJ1rs+FEB1z/w9h5sAs4qEFvPFZ8aLr27ciXefvttnHX22fjoRz+KGSLY2KkIa8pqamsxb+48VFZWmm96nnrqH+abtw9/+COmGSX9MCIuu+wyzBHxd7o8n+effz4mTJhghFxTU7MZ35A1by+//DJmzZqN0884HVu2bhURuMgcAAe8Z/wx3vQOPHHh8+Rys+Mcr9wHVg0Rx8n0eTxgRyGJaBitDTvlfl2CZ154BX956mU8/tISPLd0J5bXuFDnHYP08NNRMP1ilM75CAonvx/BUSfDXToeqbxKEUSFSPnyxIJIu/1GnCXZBNIl4ozPRcbkEA7WiD1vaguzptn+zHJGOVlGf5l1JDOVWKDJBhxKwDperxy7D2kReGl/HhKBIjm3oUiLEA0Nm4HS8fOQP3oBUuUz0OqpxI6WNFZsqMFby9fjnXfewZrlb2PP9k1IdbUg5HGZTlZcEp7Hy4NixydS4jfHJMumVk4mvC7OMR3H8BSZBg0WAWddHUVRFEVRjnvYtJmFFAp4jmtY39AgBbslpqnk2LFjjcAzL17EWJBhc0i/32e2bW5pwY4dO1BUXIwhVUOwZfNm823cRRdfjAXz52ObiLI3Fr1htuG3OE4X7ayZo9C9+uqr8elPf1rE34fxta99DWeecSaKi4qtJpsSvnmxYPaknHhQrrGmyxLxlHB+ERAxuW927tgp99XbuPehv+Lff/0n/PTRV/HUu23Y5pqMxIRLUXbOv2D0h2/B0AtuQs7Jn0Ns7PloL5mBjtyRCPuKEfNYtWox+BDnPiRs5+VFtpZy4DpjfAxSPYxujvXmbkLYe2qM68RMbV32dmKOJ2d7Y9kHlD0vcD0/TojLTCTtQScCCLtz0eYrQ21oIvZUnIlOiZfgaV9E1QXfxMiP3Ibyc74GjL8I2xIj8MSSGvz0gefwX798CL976AmJ27dQs6saiViXiDWOf0eYDnBfsvMTQb0NQlTAKYqiKMoJAotiLACSmtoa/O2vfzMdjZxy8skYJwKOHZzEYzHT/JHCi938s3aMnZ6ws5PW1jYMGzoUb735phkzjtAfv43bUV2N1157zbjTjbV8XV2daG1pxehRo4wgpMB75plnTO1cRWUFksmE+Vaurr5eCoxShJdCuxYXTzD4QRuLoy4PPHL9PRQmbS1YvWwpHvj9/fjRz+7Fz/70Kv62OoZtoVORs+ArqHz/rSg94+vIm/MJeMe/H4nyKYgGy5A0tWtW0dYRTLzhOQQ2jfKQNUoOnKWGyjZ7EyOi3mMHsz7bevPrWG/+xXoeEzG1YWJGeMqU7k449JcQByPBvF7E/flozx2BzorZSI4/D775n0HBuTeh5IO3wjXvs9jmn4qnV+zB3Q88jh//7Od45IE/Yt27K5GIROGVOOQYduwQxtq/NX4kcV7wKMcWbUKpKMoRwWQsh5HIO42p9teE0tQY2NlbJp3S5GpvnGjJyoBp2oTy8ODtPdiaUBIeH5sHLX7rLTz77HPmI/3LL7/cdO///HPP4f777zfjw1FkUXjNmz8fgUAAL770Eurr6rFgwQJskvuGQwQwnLVr16J2zx5zT/F5pdAbKiKPA3pz3arVq0wvlMuXLze2YsUKLF2yxAz+/dbixVi/bh0mTpiAivLyTNNO5fiG9yCfEho776B4i0YTaGhowTtLVuD+x57HQ88vxbKdSXQVTUPOpA+gcMZFCI09C4mSqQjnVCDiy0XC7bObF0o+4IRpP37OlDcUZykMjbTj7jgdRPB4jXiTqRFvWcbeJvnMcN7oYGde/lu1jfzOTgSdJ4iIv0jibihS+aORN3QSCoZPRDKnBLVtcSxfswVLlq/G1q3bEYuGEQr65LnnOHWUvna4mUgVsuePA5zzGyxNKLUXSkVR+h9JVo5YL5Tf/KbphpwpElMvU+BLay+UfeLEh0wZP4zTvXuhfAa33HIL5s2bp/F2MPAeTw3Sgbzl+DjQL3s7W79+A0aPGW2+Q2Nx4C0RdRyAm/cIhxM45ZRTMGHiRLPN2jVrTJNLCtVYLIrm5hY7PDF5DnnW7PikpaUFkyZNMmkAe65MJKxmWXxWGS7jjvNsOsnbk884B/MuyC8w/lwskSqDHOca8gpnw/uku6ks74OE3EscR3DJsnfx5orN2NIQR7u/Ct6hM1AwdBpC5SOBQD6S7oAEy84+2OmHbCyB8Is53n+sJXJg2MwbDPaUR5N9VzmrSfb8QMU59uxzID3Pg9+vEUaPEatEIsN5IZqJJ/HsciXgTcfgS0fg7ZLntG4zuna+i+juVciL7cT4IX7MnzsDs+bOR9Ww0fD6AkgkEzC9WJKeBzPI4enwftRhBBRFOXGRZEUF3ADBiQ+ZMn5UwPUTvMcHsYBznpVkynpGjZiiuBLYjJICj344Thxrufk8O/cSv50zU1ln7imJh5Q8g7yvzPPoFPAIdyPb9ixq8PnmwMcUa9zOiDwTpxKGhOvsSxlcWJeMF13MXHurBZdJd+jAe0rWuc21jqF2Tx1eWbQEz7+5CtXtbgSrpiJ/xCwEhkxBIm84Yt6QqWEzgkRuT5m1mguK8R5hrRrhMp1ovP0yd1tmxlrXk97cBjJZp5PBOQeuy8SDLJgpVziIm+OHT7o8qnzkDBzBLiRlfV+8A8m2aqRqliKyfREiDRsxvDQX7ztlDs48ZQFKK4aYDRPcUC6Ey4znwHAZovlizsBgu2Xj4IDHOpgEXEagK4qiDDpMxsGE1S6Q2m5KFk58ZOLKgs4sXKVYgJcFFqRZUNfo2z9W3FnzgxEWRiiUKLr43NC4bBW6KNDc8PK7NwosWWeeMPqTe8T4tcUamxqxmVE8YQ36zXA5NesdY7i9RBbvRW7H7Y14IxK2EW9m3poogwdeMt4tLnO95V4xBXyuYfFerrgssJljUhTWnj31eOqp5/DDX/wO97+wHrvyTkLh2dei5H1fg3/Kh0yX+XH2GEnFZkKwhEdSZmhyWxlHijUj2Owp18lfN9ZBGeg+mM0+5X26O48NRa6zLmN0sz1wwjhz/CdlRSd8aPEVo710BtLTrkTR+7+F4jO+ilrPWPzpyVfxk5/9Ak/940m5drWmJs50iCQ/64WOFRKvvVxhMcp1K00x7vZU6T9UwCmKMmhwMgOSPW+WmBup9WFWFJn5DO/NUrPXKicezh3R133Q845xxB+tN+jKAp71c5Zty9q2r+2VwYbcOSLaKResK+6GGbtNrq9PlgOyPtbSiNcWvo4f/fIB3P2PVdjonYn8kz+HqtM/jcCok9HlL0cXcsx4aAyCn8fR2KrWiBIx7sbNm1QsI0r6umkd6KcXc8IcDNbb8TuWWZ+Fs52pccsy+uMjZ8S1mJlmrU/IynZ3LppzxiA5+jwUnPpPyF3wWWxOjcbvn3gd9/z6Pix98w2E25rFP1/UsP9QNo2lpJAA0jIvYfIa8YtWcdnv5VEOHhVwiqIMCpgJsKDnvM03BT/j3l0IVOvLGF9WnJm4M/8FsyzrraVud+WEJFPIcoR/D3q6sKmksWy/Zlt71pjzc5ZtE3/Zpgx+zFW0qtzspIX1cVKYN7VoLlRv3YYHHngE9zz0D7zbXozAvM8g/7Qvwjf+HMTzKpFy+xwJYKAWzJgEa6VW3es5kz2v9I4TZ47theNoHkoRcJzIMi0mV6PdW4D24qmIT70KeWddi8JZl2BDTRd+9evf4+GHH8bW7duRlAvEXITXnDWsIrllyWuupcess+4JpX9RAacoyqDA5C+p7iZfVobBt3762/8vO54kv3a74fawYMUlK24VJQPvC/ve2CfmZrJmM5ht7XnlBION5tgjJOfZ1YjVNLa9tR3PP/sCfvC/D+DhJW2ITfwoqs75JxRNPBO+/ErTk2TCVCEJ2YkRnRzLpjc35eDJjkOZdy4BrwEFsxFysoKDncfdQcQKJyA5/RrkfeA2pCZdgiff3IS77r4br770HDramkS7J+B2JWQ7vrDhvcAaPevljdL/qIBTFGVQwLzFZCrWP/kzX1VIJsGf9Y2FWl/WHUfZmanTaYWiKMrh4JT9U/AYIxzjb3t1Ne7/8xO47++LsCt3ForP/QZy5l6JaOkURL154re7fobfsGUCUo4qjHon+ikMnJpQczlkBb8tjMCHVk8ZOsvnI7TgMxj6vn9Gi6cSD/71H3j0b49hV81OuYbW928UcUl2duKyxpFT+h8VcIqiDBqc7ymczKZnMyy1vk3+2SZ/7FiC4s3UsjAmFUVRDg2Tikjawikbz/nplohi7ZrVuOsPf8ZDb1SjY9SFKD/lk8gZMQsIFIoP9h4sE2JPjVjoCddpEnVUsVvBZqKeAox91bJmlaIh6fKjKzQC6dHnIv+ULyA5/Aw89fJb+MPv7sWmde8iFQ3DIxt5jG+Keavlh9K/qIBTFGWAw6TfEm2RaBQdHZ3oaOtAW1ubZa2tYpyq7ctaJJ5oJs7a29HVFUZM4rOPYpOiKMp+YerBtNlp2u6R0n8sFsdbS1bi7gefwqLdHuSd9AkEZl6OcOFYxF0+IwhY22aMgQiaCg0QeDFtnGtCJ4o3Cm5L3LkQY22cvwpNZachNPsaFM34MF5f14y77/sz3l6yAvFoBC6KOHZoIr+sYJV+QseBUxSl/5Fkpf/GgfNizZo1uPXWWxBPJDB6FAcU9Vq5iaAZwwEiEcX4ZErO9JzdtW/ZvNms+vadd2Lu3LlmnamxM65KXzCeOAYc42owjgOnKIeDU4jnH9N5Ns32uDxGvKUiHXh18VLc+/jr2O4ahbzZlyE0bAZc/jzxlVVnIGFknpJ9PS5OYqSP1BEnE9WckfjmxHEjVq+SFuY7RzEu+1JRBMK1SGx/FR2r/46xeVFceeH7MXP2fHgCQQmD5YDskAYmPCUdyFtRlBMbZupi/SngbrrpRiQkvMrKStsHC9HO+1tlXzD1ZkLvZFC8NrxGTc3NZjDmO1XAHRSMJxVwyomIKcCbBMK6x50eC90uawD3115diN8+vhDVOVNRMvsS+CqnIekJGu9Mdgi3pDnpjDPVJmEDFLlAzjXbC9uB188rOiEvVgtfw1K0rXwMpfGduPwjH8HcefMQCAQkzxn4eTVPRwWcoignNpKs9KuAW70G115/LeZLZvDVr34V+fn5xgezjqOXrA5yGFESZRyk2cxKmn7ffffhxRdewO2334558+dbMSrXTeN03zCeVMApJxLmjpaEwbqzzRMg9znd3FaakozgzXeW4+5HXsJ2zxiUnnQFfBVTkfIG6dPU6vTVXNJOmjKmDDDkAvUprp2LxntD0sNAvBl5tQtR//q9KHW34JNXXYo580+GP5BjBPxAzl14GirgFEU5sZFkpf8EnMcIuK9fdy1OPfVU3Pytb6GwsEh8OElXdto0cDOHY4sVR06c8peSa/OLu+7Cc88+i9tEwM1XAXfAMJ5UwCknEuaOloTBDKjtFBvlPhf5Js8C8O7q1bjroX9gfWoUimZfitDQKUj62GySG4hXexNriIH3Quc+VinHGl4/mezz+shKXmJPOomCWC3SO15D09sPYEpZEh+75mMYN2GiiCOrd9KBmsPw/AaTgNMaa0VRBjRMNk3Sac9YyWj3fyNHjOiwsgW1Hib/nNixYsiCcyo0FEU5EEzKIckFv3eDy3ox56J4k2Lk1p11uPex17GmrQS5Uy+Au3IaEhwiQNIXjgSXXfPmkc17M35fpQxOeOlS8o95DYeQaPVVIT3yTAyZ9SFsb0zgmZdeRVNLC1yi/o2ZO0E5XFTAKYoySOgWIEaw2aYcIHZcZYs4KxvVzFRRlP3jpBzptDWcC1OOeGcbXnntDaysTSF3+kXIGzoDHn9IkhVZK8qNwoz+DsSykiZlgGGuz74QD46fpEiLsKcE3pFnIW/C+7F81Tq8+cqziHS22z70QvcHKuAURRkk2NkDhRsn1tLeOCvUuq0XusXvfrNlRVGUDKZJpNuLNAdoTiexeNm7WPjOeviGz0Fo9Dwgp9CIOwo3r5hfRByn1rZ9s691yrHngK+PeGRDybQ7B22hcfCMOQfBktF4+aUXsWTJO4jFYrLWEv+a+xweKuAURRlk7CPZd3KFw7Fsels/GC2DlQ2/x9mGa7UgtX9MHPUWgYpynOCkBdlGKODYKUla/jc01uOJ11ehJjgBhRPPgCevWEqVbut7NzE+IixkcpodTm92zJCd83gP1o7tQR9l7LTOOe3ejJh5+hVLy4WPePyIFY5B3vSLsSs1BAsXvY2WpjpYn8LRtzanPBxUwCmKMkiws4ms9N58w2XlA/0Hw3KMSPjObLazM+0X7FM7skihK7Mf60wYfWbnR2X/xxf9ev0VZQDRV3LAb9m4jh34xOMxLF62CksbvIhP/BDSZRMlPfGa9cbkAeGXcgl76jwwmfU9jeuPwUN1KLvNbMMDP0Hg9enVuFKmDlzm9Y7LTEJWRNwhxIbMRd7k87B5VxM2rl+DZCJqNjE1tS6VIYeKxpyiKMq+cDIpgdPs+X4jKwM8omT2w2aoWWdwtPavKMqgwEnrso0wqfC4Pdi1uwEvLVqJVO4QFFaMktKk1cOgSUqc9ESmzoDPBme+NzvG9HZIfZmSRXaE2BHkiDte+4g7gFZfJfzDZiERKMFrby1FTV09XLxfjEfnzlIOFhVwiqIoxMlIZCLZioWTt2RnMv2V32SHI+Fzn45lH0u/kgkvc4aKoij7xEktrPTJhUQ8gSWrt2FVTRJFw6chN78Ifo8bXq6XNCY72dKU5sTD3CdyE1j3ghtRdwjesrEi4uZg+bYWrFm/FYlk0rSgyb5XlINDBZyiKIrJRayihtWsUP5RRHGSSiEeS6CtpRXtrW3o6upCfV0dWltakOIASPtin7mTyd2MuV0eszuGR7OahooDj4V++gtzbqQ/A1UU5XiGqYVJkjiV/x3tHViyvgZdpbMQrJqCtNtn1meSF0UhcsPwnkmkXUj581EwYopMS7Bhw2aTf/I7yh5tQZSDQAWcoiiKU/JghiPCKZ0WYca3gzJfV1+PP9z/B1x/w/X4t//371i4cCF+8IMf4KGHHkJYxJwRWvujFy8UaSz0pFJJdHR2IBwOy2G4xc1tHYP4SXNwHc3eFEU5yrxHjEkhnD+/xyWF72bUtsbgK5sAV14Fki4vkpJmpvn1k8tqTXC0MKljdhLZY57JM52ynUnP5X3hbN/TnBM1873A1T2N9OW/N/baH8naODscZ76vfR51snbOmrhY0o9kcCi8RSNRXV2DlsYGI9+O3QEOflTAKYqiGKzMhOKJH+kTNhX6x5P/wM/+92foEoE1duxYJBJxrF27Ftu2bTPNQJyMcy/oKGa66u/Vg0VStl+9eg3+4z//A8+/8Dy6Il2yjWRr9vb8Z8KwZhVFUY44TtmbBUSaS9Ig1rzRjY0ONm7egcYuFwKlo5By55o1KZdbhNwRbBLXI2AeC53YBsJ8Z+eQPU9kmYOJ05KygRMMt2MHK9y25zFnLzvznLJzjkzHLNxOHOnOMJwByx2je0/LXk9zYDjONg4mbJrMc1/c717b2P8cf5njstf1tJ7hH21i8CMRHIL8yrFoa21FY/0eOSC7xYntRzk4VMApiqIYrGzExW6w3VIQERHX0d6O7du3I+AP4LOf/iw++bFPoqSk1PijeKMAczKfaCSCVsmY2traEI1FJVOVYg3DkWkimUBXZ5dkXG0Id4XtTMuNcDiC1994Hff/8X5s2bLFrONxmOZIsq2ppZPjMWgupyjKMYA1b05z8fZwFOt21CLsCiInrwQuDzujkD+xlKRpR6z+rUewPBrW7PhEBOSmIshPtqIo0YSCVAv86ZglWiTp9Mr6onQYefFWeFNRSVOt1g3BdBJliVZURasxJLIRpfGdyE81ijVJeO3wiBSiP5MWy5xP9pgv4RQnW1CY7EJuMopgrAV5sWYUprqQlwojmOxEIB0XqZKW42lHZbwaVfEtYluNVco+ChMtCKViyEklxE8HiiO7UJBsQkD250/FzXYl8VqURneiJN1swg2J3yC3ibfDJ8uOTPbI+RXIsRbHas055ssxlSfqMEz2Zdk2sWqUxRtMHPl4kQTr/1HC3lkSXsR8BfCVjkDCF8SOXbslz4x290JpH5ty4KiAUxRFIVkFBM5GwmE89PBDeGXhK0gmErj7l3fh/gfvR0zEGUVVIBCAVwovCVm3adMm/OIXv8A3bvgGbrzxRtx7772o3lltCj0cuPTvf/877rzzTlx//XX4r//6L7y7ciXCkTCefeYZPPH4E/AH/Pjb3/6GH//kx2hoaLDyMhpLD4qiKMcSSYY8kuZ5vV50xpLY1tAGV14RcvJzkWKtm6x3aniORDHcCdckifYMJx7ERdw0iZCqQU54N3K6qhHo3IV0pFU8JES8JZGXbkVu8wrULnkMuzcuQyQSMS/VckQIFcp20Q3PY/fr96Nz8ytwtWyAp30b0LkbKRFScCfNjnxJiqcGJGpWoG3dS8htXYVQyyrUrXweXduXoCC2E66m9ajf/A6izTsRSIbha69GuvpNJLe+gsQ2yUO2v4rE9jcQ37VU1u1AINYk+6pG69oX0bJhEVxdzUh3NSDVsg3h7W+jbsXfkd6zCt62LRJ+NZKy793vvoxEk2wrAtInYs8vxxXZvRbNq56X49mEXPGbrl6MxNaFSGx5CfHNLyK+5TWEt76N8O6NSEc7rYg72sg+kyLURELCW1CGdE4+dtbWo7Oz0whq40GzugOG9y9NBZyiKApxMjb7TSC7yqZIoztd/DKfkyPLUmBx27ViFHIrRIzdcfvt+NMjjyAajaC9rR1/+P3vcc8992DPnj1obmnGO2+/Y75zC+Tk4LXXXsP//vznqK6uhsfrgc8vmZoIQRaO/H6/yciMbtMMTVGUY4CT/GSbQzgWR0dMCo+BkKR/3kwTRMeOFHvtQ/bJWihvOoJI41asffNprHjlMaxa+BdsWPgn7FnxDwTbNqM8WYOK+BaMiKxEXs1LCDW+g4pENcqSjSgMb0V4w8uoF/ET2bkcu9a+hY2Ln8WONx/B9jcexu51byMR7pB8II2AK46iVAuKujYgvukpdG54AYHWDXDVLUN+ywoU1L+N5qV/QWTLQvgje+BJibBq3IHtS5/G2tcfw7uvPY51b/wVa197FNuWvIA969/GnnVvAA0b4a5fh7RMgyIQW7etROPaV+GpXQpv7TtI71oiAm8hsGsZXNVvIFD9KiojG1CS3IOSVAPK0vXIbV8HX/1SlES3Ibl7Garf/js2yT43vPEENsh042t/wnrZb+3aN5DsqBcB3N1q5GhCgZ9gZ13+XCAnDx2RmGmB4hyL6bhL2S8Ubg4q4BRFUQxWwugkjznBIK65+mM499xzkJ+fj2984xv4xCc+YZpT0lMykUQsGsWrCxdi0+bN+NIXv4i7775b7C5ccMEFRqjxW7my4jJ85Stfxjdvuglf+PwXMGXqFKxbuw7r1q/D+ed9EFdcfgW8Ph+uuuoqfOub38SQ8iGSmTnNSmxTFEU5Wkiaw4oRx8xLLU5TaXR2dCEWSyJHCuFuj5efMRlY/HbsSGIEoxhTSDZrzBGB5XMl4E+HUZhqQl7LKoRqFyG97q9oevmnqH3pFyJqnkRO5054a95GZMNzyKlfgpaVT2P3ypcRKq7CsJM+gvGzTsfkkZWoSO6Gb89S5IVrkZPoRDoegyfRDlf7LhT7IhhZHoSnaydczSK6wtXwt28VobVMxF01JpWHkJeOSr4QQV5pJYZMmIVkyQRUTD8XI8dPQ1GeF5MmjkN+KIiWnZvgDtebWkRvOoFQqgOVnhaUx6vh69iOYKIV3o7dKIo3mWabvtZqBDuq0bzsCdS/cg/alz8Kb/1KuNu3wx1pQKxlKxJdDXDnlWD4nA9g4tnXYNq5V2Pm2R/C8NEjZT9huJPdzS+PCeZ+csHv9SMejxuzvjc/GnfO4CdbvBEVcIqiKNlIIsmmj/yZRTEre5H/bC7En/hxe9yISQZUW1uL3NxcjBo9GkERfRR7o2WeYbA55Lr1a/Hjn/wEX/qyiLhvfRNL3nnHfN/GDlJISkpAzttHfhfn7DeD5muKohxDmPaZZEjSvXBXRNKuNDy+HClBdg/ezcIk7WgkV0ZPyo48khaXBP0YN3wY5sychXNOPxljhhWjwBtFDqKIJ9LoigfQGXPL1I0OsXQibpoh7tm9DR2uANq9xahpjaNtzw5E6zahpTMOd06RCKbtqF/5Etp2b0QsEsaqdRvw8qKl2LCtBo21u7FrzRvwtG5C89al2LxmCVo7OrBuwzYsWbwEjRK2J96GXLcIuVQnCtOdIuzaERLLTbUgJyWCEAmk3HI8VsQiHu4y+2rf+S6ad21GV1szdu/cjq7WWoT3rEesoxnIHYqudB6aanYg3FSL6u1bsHlLNeqa2rFhw0YR122mhnR3XT12yLbbq6uxuXoP6toSiLtCSLoDsqejcYX6xrRs8edInMaQTCbg8XgyR3Rsj2xg01O8ERVwiqIo2YiYMh2ZyCzFGptLpmxRJ4tMSc0aLjPzKSgsNB2YNDU2wZUWv8kU6urqzHdzxUVFePqZp7F82XJ89KMfxXe/812ce+65JgwmyNmtRqxhBTJFpb15b9qtKIpydJAkiWkhO25qbm1FQtIuD2vfTFpoFbzdMks70nBfTDdNzaAQF8GybcMmbFi5Ck2tHWiLeZAIliNZOg3eaR9D1bnXYdj8SxAtnIj0iLMRmnQ+8odNga+YXdpXorSiEpWFfvg6dqBxxzrkDp+FMfM+iGHFPmDPSkT2bIXb58fQyXMw9YwLMWHe+xEqGirn7pUCtKT3LtlfqBz+IRMxfMbJmDF/PqqKA2jYvAJ7Vr+FUPMGtK58GjWrX0ekuQZbVr8pAmw9giEf0j4xt8SjJwB/biGGjhgl+Um+aU7vEoEcLB+KvCFVIpobRYwmUDL5LJTM+BBSReORN2w6CsWKh01EbtEQjBozBcUlZfClI0i1bUOqdik6ty9GV90OBIN5yC8bBm8wXy7SUSz2v+d+4NWjgAual59xvsTMzgSVXulNvBEVcIqiKMTOSNycSnpp9TKZME0lUzLPniSd0gN7n6R7TiAHp516GsrLK/CrX/8Kd3znDnzrlpvx9yefxOlnnIFp06abWjkmwBs2bMAbb7yOpUuXmnwtmUpKUG6zPi83F48/9jj++MAf0NrWaiXY9OTkbZrHKYpyrGBaJMZkyOsVwZJOISZpIJ3ddtpkkkbO0PFIYe/LJI8yH3MFkC4cjtGTp8KVaMPWjZvQGBbxE6pA9a46bFouIqa10QiwlC8kgqkICV8JOt0lSHhz4femkJ+oQWF4O7yJCJL+crTEc9HaFUUw3oh8dztcHtmR24PcnByk0j7sbk6gDaVwV8xCuGQOYkNOQ1fJLNTFctDS2oJoPAJXsAh55eMQ9VeiPW8C8mdchKJxp8BdOAq5409F6fhZGF4eQk6sGZFICnFXEK3hKLbXNaMlGUJXaDgaUI7GWBD1rWERzR0SblhEq4izVBxpbxDeUDGKS8sxvLIcxTkeDC3OhScZR0F+Ls4+/SR8+AOnY9yQfIwq9ePkqUMxdXgBgq6YRJwZfe0YIZJDhG86zW++A3Zey1cDysHSFm9XAacoipLByUkkX2FTD78/gFGjR2HGzJkoKS4xb1wLCwoxZepU4843paecfApuu+02zJs3D9u3bUNzUxM+fPGH8bWvfhWVlZX4wHkfwPvOeZ9paslBwbntlClTMGzoMFODd9opp+Lqq69Gbm4IW7duQ2dXp2lW6RRWFEVRjilS0DbDmrjdyM3LhWg40QFxSQ27WxEw6TySBXHuxql1MwVXUXARlx+N7mKEyqowXIRKU+12dIlGKa4ai9HjxyHkrkXX1pfhjtabXjSsYVnk4EXMDa0agmJ/AnUbF2PrilfQ1FCHoqJSDMlNw9OxGztr69CSFlFUMhQ+l2xcvxF1q19HrL0JlRNPRsWCK+EfdSZKJ56JSSedh0kTJiM3vBuN21ajLeqCp2g4AhXj4Zn4AXhmXwHfyHlI55QjXjAWgaopcCU7sX3dcrR1RBDKL5S8IIm8oiIUDx1nxkurnDAfk6bOQUlpFUrELa+gCMnWbehq2o50IFdOoQCxcDsiLbWINe/C5tVvo7WhBp2dYazdsB2r1mxFe1sHGmo2Y+WiZ7DytSfRsGsTICKPONftqCLXLy3XLRaLm7zTx067lH3SW+1be6IDkVQUnu8Ktluf8JsM7SFGUZSDwWTovSQ+B4rTlJBNGOtF+Dz11FMYPmIEzjjjDNM7pFnLdKk/kyYGZzIZmUqBhSJuzJgxOPPMMzBs2HB4fV7zjduCBQswe/ZsFOQXGLfhw4ebmrhz3n8uLrzwQpwq86VlpaZ3yWIRfifPPxkfPP+DOP8D5+Pss87G6aefhjFjx5oeKPn93EwRiGxayXMrKyk139f1Oz3iic1ClyxZYoZAOPOsszB06FB7jXKg8D4Jh8N4/vnn4fP5MGvmLDMkhOaXymAmc/vaU6vXXX7360FXNIFFS1ajw1eJnKqpSHkDlichc9f38+3P4Gg8CqbPznJSjivi8qIYbaiIbELrrvWAPx/B0QvgKpuEWDKFaHs9CgIu1LdEkMwdjpLyIQjXb0Gyow4hv1tEUyXcQRFHiQTyPFEMKUghGelAUzyIRMVMFI6eg+JEA9wUgu07UBCSPcfb0Fa7EfGGjUi27ECsdQ9CkT0ojNcjnEgjnDsCRflBVOWlUVwUgj/VgdzILsTrt6KtoRZDchKo8rYj6A+goGoiSoeNgF8EnKtlG5L1m9HZ3IAcyQNy0jGEQvkom3gKoik/Omo2oK6xEbGSySiqGoW6bWtQv3WlxEsMZUOHy7XwmxeAQVfS1O6lOxoRzAkit2IsXBWT4R8yFcgtFe1rfSJwxLF3wtpSppVeuXjBeBOi2xch3x3G7JkzUFRYJHcWXwQc0+5VDDxcHgc7V1m+fIUZAujMM89EWVmZ5eEoweEV/vTwn3otP0WSEXQmu8y81sApijJIcHIDa0IyCRynnO0H48QMwJ1KmeYzxcVFqKioMAVzrg0FQxhSNQQlxcXi0XoDTQvlhUyNW0lpKYKhoCn0MCyKsWBuECVlJcgtyEV+YT6qqqokY80xmQVr4YKhkOyjUvYlYTptkvrxnIwp/QavUC95q6IcF5gkQ25yZ8oWAQlJD7mcF/CiwJ2AK9KGdDJhulwyj4Lt30mm+xUJ2Ag3mizSmEz6ZEVeOo5EpBM7GjsRSXsRCXdhd10zurzFKBx3MoZOO1vS3xK4UwlTa+hBBCFXByJd7djTmsCeSAjuwpEi7MrQ3lyNVUvfwJo1q9AaBSpFJOVJuh+JdGFPczua29pQs3U1GtY8D2x9Bt7q55HaxrHWFmL3msXYuLUae+pb0NlaD68njcb6Gqx9+WFs+sf/YttbTyLevBM59e+i+vW/4d2lK7GhuhFrqmtQ3x5GMhZH8+4dCO/ZirJUPdzib8fKhVi7cimaOpIoKCxGMFqHQKIZJRVVIjrzUFQ5BPlVY4CCoSisGIZEMi5C0IWAzyMioAvhmBxDWxw7mpKmWaa3qEryNu9RTb94/3CHzCM9cgEZ/8l4q+R/HtP7cqYB5VE6nsEM46oj2WkvqYBTFGXQYKXwvbaYNyrKnu8PZBdOV/7W3qzAmemZXiKNI91E6HGe+yectzawtnCWuWC7G8S/WTTr7G1tTM2jWbm3u6IoyrGCrRFI0O9BeX4ArkQEiUQik64d6SSL4du7sqdphBLtKO3cgIZNS7Ctvg15I6ejQIRM/a4daN2zE3k5XpSXliDkSVhDAbhEcLrkPHKK4Q8Vory8BCWFIcRE9IVjSaRyyuAunYxxM89EGTsZaa+V9D2OWNFoFJz8MYz7wBcw57xrMHLamQj7hsBbOQPeiilw51Vi/CkXYPyFX8X48z+P4RPmIOnNF2E10tTgFY2dg+JR0+AvrkQqWITQ0InIGTkHOcNnoqBqHDx55UgVDEPh0ElwB/JQUlKAyspi+EqGoGrCNBTnuuCN1wPJLrhSMRGuETkPN3LFf7BsJLwcj6+zDfGWehFwaTR0iRiU48sddxoqJ52MhMuHjrYGpONhiTY7Fo9i9kIRx2wulYoiHm4CYs0ozPMixDhOJ8UHXw7wVYDi0FvtW1cibFrOOKiAUxRlkNCd4zBxM+mYWDol844Z9/4yyVScef6y1zm/bLce7hzf5j3r92X2dv1v3eehKIpy0Ejp2yqAJ5EfysHoqlIRDE2ItDfBYxe8zXuoI5XEMGwxO8nPZAX+dBSe9t2o27MHrsqZKJtzCYqnn4/iYeNQ4E2go2YTNq9ZhnVbdqMl7kPKE5B0ULbz+eH1+9Hc1oqabevg6qzD8MoKhMrHock7Ab4hc1FelIeGrctRt3MzwgiiM2809riGYFVNGkt2u9FcMBcF8z+FgtlXok7c39najM3tAUSCQ+D2BdHU2IymDhFaoQok80cilVeFWKAM7Z4SdImfZMFQ+PJLEQr6xW8DWjpjyCurQm7ZcFS3pbGyJozaWAgdKa8I0nXYtG45WlK5iHvzULNpOTrqtiKdEEEk+iea9qKmrhXtHTEUFpci7c9HOGcIYrlDkM4pgCeQAzebTdrxZjjS2UHmYlkTDpDjjrehq6kaqUgrhldVIC8vKNdS1mb5VfomnBIBnoUKOEVRBjR23m3+OfkPmx4yMzLGj+u57Ez7zfidQI8f3bN/jt/efplwspZ7/vpy61eT82DcyE9RFOVgMS+AZMoUxOdxYfyoKuR7woi3VEuhvEPcrdHFTApzJAviWUlYUvYTceWZ4QHKZl+CgqkXoqlgFqJDTkXFtHMQKqpCpH43tq9agnVbdyPqL0de+RgEvH607tqAzevXoaYpLgIqD4mORmxYuwa76tvgKp+EWNksBCeeJeKnDPVbN8LduBYtyx7H+pcfRfXGjXAVj0H5/I8gMVz8iA2ddYGIKaDu7cew+aU/oql6FRp2vIsdy17C1jefwsY3X8DyxW9hZ00TkiLIdm3ejE3vvIKtbz+LbYufQe3S59G4bQU2rF+NbY1daM4ZA9fQ0xGomIDWtnasenc56iM+FM65EpVzPgJXuAOxXSvRuOYVbJbza0n6UectR7xkLEIlw+CTdL9p10asX/YaNixbhJb6WqSTbDkiEZgVh0caOQxjHF4iB3GUpFuB5u3wpFMYPmwUgoE88eWRw3LGw1P6IpqM7lX7RlzyYO73cUvIncmCgKIoygEhyQoTG3a3f6hQcLDYwI5AVq9eg+uuuxannnoqbvrmN1FYWGjWH83MaFDDVN6OLpPgy7XhMAm/uucePP3007jt9tsxf/58rtGaugOA8ejUsDY2NuLmW242w0F86pOfQl5+nuaXynGH8wLIixSqd+zCv937FLb4p2LoyZchEhwqrh5TUDf1cb3d/nYadLg438E5uMTBjNEpIoBqwUm9AqkY/O3bkWitQSzpQipUCRQOQ4EvgfSed9HaEUVu8VCUuRrRvGERWju74B0yDa4Rp8FTUI5QugXN9TVScHZjVKEHybr1aBYx5SkZh3TZeCRzy0SZuOETYZSX7ISnZRMiEm5nyoPAyPmmdszVWQtXIibHJLHnsoSKy9Sb8Ay609mkywtvTggdDbtMj5e+kjFw50ucxsPwcKiB5l2igArhrZwuu0zLftagyBdHMtKF7dU1yC0fgWDpCKSSCRT7YiLeNknwSeTlhkzT15qWBBL5I1A4YgqSgfz+uhQHDO+J4nQbCpqXoXbxgxiV04wvfPwqjBwlcWmOJnVUj6cveAz8dp2diNx33+/Q3tGOW2+9FZMnTz6q+SLHkb380svtJQv2PBlORuwlCxVwiqL0P5Ks9J+A82KNCLhrr7/WdNl/0003orCoSNOkQ8SJNV6bexwBd9ttmL9ggXFXAbd/GIcq4JQTD0mV0y60t3fhFw8+jRe2xDHk1KuRLp8m4sRvPReWt/fSH6pBwmAQxuSfPIImj3DEpZN0Of1AJUXEiGyCmwclAiplVqTgFXHHscjS4hZwxcVjVESUC0m3X6Y+8eMWMSp5lxnOxW2aiXqkHJyQ8FNun/mOLmU/4xSUXh6D8U+xxs3pwlolphHGm+VutuEc45H/LTODoDPmGIYIiIR9bDw3txyDOyXuPD6P7FsCdMmxyJxsk0RCNkvxGzgRgcwxeT7srCXJLl54nNyjbOORc0+LW9KOq6NNWbIW/h1PY/fbf8b7T56Myz/8YRQUFMqx8rx5Lscecy0GqIBrjrUgzmreLFTAKYrS/0iy0p8Cbu0aEXDXXYsZM2bgS1/6EvILCqxBQG2OXtI6eGFsMR1nBsXxnPjW+o9/+ANeWbgQt3McO62BO2AYlyrglBMKJgusQRIBx7G8nn9jCX7x6EtIjLsYhTMuAvy87ymPsnCSEnHPmj0ssmvgUk64jpu9Ex6HmbU9UiDRjc0unW04tBtFA+dTtnqgdxp1HpNB8xjL1EkSqTU8HAOPbrJszlcWGCfGr6yjHwbCResgLJxZ427jnAvX2ZtZy/LPnAPX236I48fsX46Z50N4vMZd/iVsz17Jek23M1wWv0bs8pxtv/0ND8WEax8TFzjLuPeKMC3uWofw27+Fq34FPvvpazB/zhwzLAXzcdYc8jy7Azk2cNcDVcA1xBrNvZaNCjhFUfofSVYOX8DxnwseKTSsW7cO37r5ZrS3t6G0rMykR1avaEcvUR3cMDYph81Erk3KDF/QJOKDwuPOO+/EHMlQe2YQSu8wNlXAKSceFHBWIbdGCpl3/f5RvFpXgfJTP4dgxRgkWcsjtz4rjOwkx5rIv6SY2ZbBHA5OEsWACZdlnkmX45RZ5cxkYTane5b/nkESO1hD9nxPzLa2B+OH/5wADwJz/H3txCb7ODjv7IZuzm4dM+Iti2y//Y2zTyOUs5a5kJOOoyDVDG/1a2h4416cNqUSl199FcrKyulD/Fnp6JE4roOFxzBQBVx9tMGK0yxUwCmK0v9IstIfAo6JE7+B27BhA2686SaTiPJbrYA/YDrmUA4N9tjJ+Fu+fLkZrPTbd34bs2bMVAF3gPDOUwGnnFhY97RVI8SmfXEsWrwU//nIMsTHXozSGe9HPJCLpKgmpzbFeQqMqJMpl4/Ik8H9ScD2xNo/sd0c954Yb/LPPK7ONqQXz3v5teeNP2fqkO2+L3rZx37puc/sfTjh9XRz/JLs+X7E2aXVFNS61qzp5K5yU+0oDW9E4+I/IdSwBJ//xKWYPncB3B6vbGi9VGS2c9jCvh/g8aqAUxTlxEaSlcMVcA6sKdqwfj2++a1vYdq0abjxG99AUVFRJi86esnq8YGTkidTKdOJyeuvv4477vg2pk6bKqKEWa+yPxiHKuCUEw/WwLG2xKoxaWntwM/++Axeq06jaP6V8A6dIQV3X6YJInFqwSiqjNOxejScDON4pq9zPBrnLvugCONuTC4iF9yXTqIgsRuBHS9g56KHcNbsMbjqiktQVFYh94f4sm8IN0U/Z48xPIYB24Qy2ijxuvcxDATRqyiKsh8kkZdCsc/rhc/nM+b3++ET45g+nFc7MGOcMZNKJBLmGwSKDa3NVBRl31iyjQNIp6TAzU46igqKcNn7ZmJizh40r30Osabt8LIjj6xypqmxs5ePaSpzIiRxfZ3jET53c3llH5zSWPvmTiWQH29ATt1KdKx5DlOH+HHWmachv7DEagEi95BHzG1uFvsGUfrE4+rZKFYFnKIogwbJFViz4ZhycGTlkazVzAkE7CVFUZQDRYqNpodETlOYNmEYPnjSRHir30Hzmpfh7qyFT0QcJZ5Jsu2tpKze6zdpyvEBa934nSOvcQ4SKEq1IL91A9rWvARvxx6cf/ZZmDBuAvzegAg3N7yi8ijgaOZeUfaJ1+W157pRAacoyiBBEvmsV7tM9s1PMozMvP76/mXiyZoyKq0lRVGU/cPmk6Zbe0mLXSyyu9Lw+oM487QFOHfBSCS2vIi2bUvgirWbrveZujDFzqTa3cm3BdOgnm7KoISXkTVvlHLBZDvyI9UIb3kVsd0rcNap8zB7zlwE/T7xyIEMel50zYf2h9/N4S32RgWcoiiDgkyST+UhlvlxUX/7/2XiyYpLNqO0lmwHRVGUPrAaTVK8UZhRwCXlf0IK7WkUFxfjmg+dgVPH5qBt42toq34XnmgzvKm4VTZ3yuc9yul9OCsDESfj6COvoJgIphPIT7UhGNmN1i1vY8+61zBjXCVOOe00BPLt79bT1pdcGTOtafQO2B8BT0DieO94UgGnKIpyIpCV9scTcXR0tJt5kx9r/nlQmIKIxplygmEGpuZUzJFxlqUxYvhQ/NNVF+GkijDalz2Czq1vwRNrFY8pJFMykY2cbWkOfIycjlGUAYpcGooFmnW96GjhXE/WyAZTHSiObwW2v4im5Y9h5ugSXPHRSzFixEjxwReG9KsJ56GS486x5yxUwCmKopxgpKVQlUgk7CVFUZR94xS+2UyOxpoT1skZ6cW3GR4/xowehc995HRMy2/BzsWPoXnTIgQjdQghDo+U+l1S4nTK/hQBTlHeEYbKAMS+MJnrZk+5TOOlz0knURRvRbBzG1o3v4ldy5/BtKF+fPzqj2Lk+ImiNKzWHlbnN3YITkDKAZPrDckT1x1xKuAURVFOOCQTyKpC0rxUUZQDg8V2dllhFenZNJvDj3BYErfbhYkTxuNzV30IC6qiaFnxGBo3voV0VzO8ybipaaNyYzGefeo5BdDuhpnKgMPOHHjFaYROFOC8hsFUQsRbA4L1S9C58jE0LPkbpgzLwzVXX4mRo1nzJleWnntcXS6ZFwHWotKD3oaioVuuJ9deUgGnKIpy4qGKTVGU/sCU5q0ExaqN82Hm1Mm46bMX4bwJHnS9+yjqVjyJVEuNiLgo3GZc4TRSUvo0tXlmO2Ugw54laexlMmFfM286idxkBwrj9cjv2Ii21U+jdc3TOG1CMT515SUYN2ESXG5KjBRS4lfpH4LeHATtppQq4BRFURRFUZTDguN7uV1uMQ9GjR6HL37yMlx1ahWCO55Ew+J7ka5dAk+sRWRegsV6xGUbijiPKDjW5sisMpAx4o1yO4Fgqh3F0e0I7Xwee177P2DPEnzk/Sfhs5/5NMaPH2/VIJmmsRRvmYaTykHQWy0cyfflIeDyq4BTFEU5INj8x0yzjJh5+ecsZ+P4c4xkpjKT7a4oijKYsQv4KbdbhJkfFeWV+OSl5+GfL5yFYZFl2P3yb9C5+hmEmtaiKFYvIiAmhVCrcM/CqFNcdZLaA0LTz4Omr2wnk8VlrXT8sgbOJ3P5yXZUxLahoOkdtC57BNWv/w5l6Wp8/MPvw6UXX4jiknLZ3iPX0iOCnmFZV7e3/SmHTqG/QAWcoihKrzg5juRmZtw0mTXjpvGPeZKZpbu1hn+G7JzK9pcx2ytx8Yt+x11RFGUQ4yRvHFzAmKSbibQbOXklOPecc/HVT1yCs8d6EF3xJ2x/9WG073gXvq46hJIRBNIJeG3VYCpunDQxOy3tDVlvhN/+/Cl7YbKdnnEmy068u2VK4yJrRwPpJArSERQlG5HXuRXxbYuw9aV70bz2ecyZMhSf/8LncMY570duQbFswVxRrgqvDYVcmgNQZ8tzpb9QAacoitIbWflNmoUL/tmFDPNf5vlzRFzGuzOT5Z9O9JfdIsJZR7hOURRlMGNSMSoDNp2T9I3pGjsnCeQEMW/2TNzwT1fha5fOw3hsRM3C+1C34mm4mrciN9aCYDIqYoE9FUoYDCIToIXtbMxg+8le7sle/k8U9hUP8o+Xx02Txb1EnB2Z5vLJPFcxZwulO1Gc2IOi8Db465aiacXjqHnrIYwN1OOLV30An/v0JzBx0mRzjU0eZ4KxAs4OXul/VMApiqLsC8nNUim+U2ahxO6HyxFfMjWZlVnsUdqQf6mkbJeytuG2TqGGPxOW+GO3wCl7ndnObKsoijJ4cJItIw5MmpeQdM0aqsRK2tzILSzFuR88D9d+4Qpcc9pwFNc8hz2v/hq1776MSP1WBCN7UJBuQ64rBr+kiV7ZjoKCYdMy0L171lqXlfw6vGe7EwXnxLMiwMxKHDGaWKtm4tZxtz0xrrnOn4ojP9WBknSDXJMapPasRPid/0PLC/+GgtqXceFpk/Hlr34VZ513EfKLypBIpkxPpMwrk8zP+HMlxSRfE7O6PbH2oRwcfX0HR1TAKYqi9EIm2ZTSB7vI3rVzJ9ra2o3Qam1rw9Zt2xCPJ5BMJFBbW4OaGsnoJCMzIk0SXZrP40dLayt27dqFhPilZqO/+oZ6Cd+Nzs4ObNuxHdFwxAg5s9O+02tFUZQBjZN8Wd+2WQV385N0kUIu4PFh+vjR+PxV5+Pmz30QZ49JonP1/dj41H+hYdlf4albhfzobuSl2+EXEWA6N5HtTNKYlUQ6+6EsoDBxJEK2Zfs7UTCfnAmcsIBvatroIDBO2GnMe5CNGMdu+RdKd6E8WYuSrs3w1byN5iV/wrbn70J444s4a2oFbvj85fjMlRdh3OjhcHs85pq62dukXByG383eS8qh05eIUwGnKIrSC072w+mbi97EHXfcgd/e+1s0NDTgwQcfxLe++U08/8LzWLFiBW666SbcddcvsLtmt70Nf0BLewt+9tOf4rvf/S42bNyA9RvW4Tvf/Q5+efcvsbt2Nx599M/4+te/jhdfegnReMxsqyiKMljpLraz0Ll3wZMvqVwiFpIuD7x5BZg+ay6++oWP4fYvno8LpongW/8XbHjm19j49nNo3bECgfZtKEo0Ij/ViWAqCm8qCXeKwlBCtpUJv9Vy4L4dc9j7CI5vMudvn3QmLuRfJh5khkM40F3kF0KpOApT7ShJNqIkvhuBzq1or34Xu95+DFuf/QVSG57E+6eV4Wtf/Qqu+Oy1GDvjFPhCxaamjaG4jXDjvDN1yJ5XDgfTOqcXVMApiqLsA2ZQLiklmIFqZZ5vG/lGjE1GPGacG8m4UkA8kWBKa21kw6aSHAuH651aOW5Heedxe8yyVWOn2Z2iKMc5kg66KRskzWOz8YQs5wZCOHPOLFz36Stx02cvw0WzSlBStxBNi36H2jceRNvG15Bs2gpvvBX+dAw+JEQEpkzn9E6tG0WcGRi8RyJqFumh9/Lv8YN9jjxfW9eamjaO2cax2xxBx+5EvCbSJAdyJWQ5hhDaUBCtRqB+KbrWPoX6N/+ApsW/R17zcpw/dzSu/8LH8YVPfQzzZs9Gfl6eCZt5IffH7C7FsMz1PN4j+djRVw2cSyJ+v7GeMAMv9h6AoijKe7AT9GTy8Afw9Hg82LB+A75187cwa+ZM3HjjjSgqKmKqZnlgCtbfyVNWmG75xWIxNDY3IicnB3mSiXV2dhorKSmRQoMbjU2N8Pv9KCwoMM1K6CYxYMJpbmkxzSfpl8KttaXVnFNBQT46u7pMOIWFhQhK2JlzOsLEolG0d3SYmsRXX30Vd37725g8ZYr1HYNyYPAeT6XR2NiIm2+5GcFgEJ/65KeQly+FHM0vFWVvJC1kWupOu5FyJ0RYiEPaJ8sueNJxSTPTiCWSSCYkra2rxdKlK7Fo6RpsrE+iI3cUPFXTkD90PMqKSxAI5SLqDyGczkEsHRQx4pfU1i2ijmaJF8JJzyfxeHsymVU5ZOblJJmS83tED188ypJXhG+OCGCJNRHCnUinwpL3dCHcuBORnSuRqH0XefE6TBhWhnkiqKdMnYKhVcMRCOaaHkWZn/PbNu7DCEJ7Z058Hg/xynPgC1rmyffd9zvJI9tx6623YvLkyUakHi3q6upwxWVX2EsS1X3sW2vgFEVRepKVGzHb8vq9qKyosASaJPD5+fmSuQ1FTiAAr8+LIUOGWGJOhJnJ25jgyh/fVBaL2KyQbX1er7HS0lIUFxdJOB4jBisrKxGQcDIcjXxCBAZ/iqIoRxpTMDZzkpq6RAakOUaYT5aZXspaEW90d0v66A/mYfiYcbjk0otxy/X/jK9/4nycNTKJ/B2Po/GlH2HTMz/H9sVPoHHrMsSbtyIQ3o2cRCv8rgR8riR8ZkgCfjuXMk0E+SrNdIlvJ3dMXh0b0GQfaJbxNOxTMU4m+iT+zHmacxYZK+fP5qYBEca56S4UoxUl7EmyazMC9cvQtelF7Hz1d9j51A/R8OL/wr/rNZw6vhhf/tSVuO5rX8LFF12IMWPHwZuTI+KN33VbloE7zopP5djg+S4/ztgPVN36RlFRlIPB5Df98NaKgom1HM89/xyGiNg57bTTTE1YJkcmRyJ54rHLPtIpFgDM1xvmfNxOOx2ZcI5naJpZcr38TFrJFXSzjWE58eH48bjY6Mdy4/YGTu3ZIwlrRuPxON59913s2LEDZ599NsrKOQDr4V+vEwlGVzgcxvPPPw+fz4dZM2fBH/Bb11xRjiFlpWUmrUmwafc+4H2bXfPec7k/4NNAY81NmjVvIjV4fAHZVzjaJc9LCiUlZfD7A+alFn1Ek2kEcvMxevRITJ80GvMnD8G0YUEUpJpxzuwR6Nq1Givefg1tDXvQ2daMZKQFgXgrQuhCQPbBV2JBM8ZcXPbN9Ju1fxxe2j4e+cdpNnyejdt7Vpi/7nVcOEQWDAXmVaWxoTFrJ/ZsZh9EZkxNl20mSbHdnKvDHiMpWAMp9toZRjDVgbxkK/JTbQgkxCJ1QMsWdO5eh6atK1C3fhHq17yM1O7FGJKqxklji/DJj5yHD557Fk4/43SMGTcRvlABikrK4fH7EYlEzD6pAcxxWP/s/xacz17uL5jv8x5hx2CJpHUP+31+8wI0Nzd3L+M9G4lGzJTb9FzvWCwey9zboWAIZWVlKCkqQW4o1+R9cVnPtJt54/LlKzB82HB84NwPIC83z5QBrFx8b5jv83MI5ufc9kDyUPrvGRTDp7spa0g4by9+23xv3zfA/wdl8KmBgGuwJQAAAABJRU5ErkJggg==;" vertex="1" parent="Gw9YWnHoNEfaIMr4INsT-1">
          <mxGeometry x="-413" y="170" width="880" height="424" as="geometry" />
        </mxCell>
        <mxCell id="OgdvYvhtUfmxc-MgIRlx-1" value="案例一" style="text;html=1;strokeColor=none;fillColor=none;align=center;verticalAlign=middle;whiteSpace=wrap;rounded=0;dashed=1;fontSize=24;" vertex="1" parent="Gw9YWnHoNEfaIMr4INsT-1">
          <mxGeometry x="-180" y="110" width="300" height="30" as="geometry" />
        </mxCell>
        <mxCell id="OgdvYvhtUfmxc-MgIRlx-2" value="案例二" style="text;html=1;strokeColor=none;fillColor=none;align=center;verticalAlign=middle;whiteSpace=wrap;rounded=0;dashed=1;fontSize=24;" vertex="1" parent="Gw9YWnHoNEfaIMr4INsT-1">
          <mxGeometry x="100" y="800" width="300" height="30" as="geometry" />
        </mxCell>
      </root>
    </mxGraphModel>
  </diagram>
</mxfile>
